<?xml version="1.0" encoding="utf-8"?>
<!-- Generator: Adobe Illustrator 27.1.0, SVG Export Plug-In . SVG Version: 6.00 Build 0)  -->
<svg version="1.1" id="Capa_1" xmlns="http://www.w3.org/2000/svg" xmlns:xlink="http://www.w3.org/1999/xlink" x="0px" y="0px"
	 viewBox="0 0 750 500" style="enable-background:new 0 0 750 500;" xml:space="preserve">
<style type="text/css">
	.st0{fill:#B31942;}
	.st1{stroke:#FFFFFF;stroke-width:37;stroke-miterlimit:10;}
	.st2{fill:#0A3161;}
	.st3{fill:#FFFFFF;}
</style>
<path class="st0" d="M0,0h750v500H0"/>
<path class="st1" d="M0,57.7h750 M750,134.6H0 M0,211.5h750 M750,288.5H0 M0,365.4h750 M750,442.3H0"/>
<g>
	<path class="st2" d="M0,0h380.9v269.9H0"/>
	<g>
		<g id="s18">
			<g id="s9">
				<g id="s5">
					<g id="s4">
						<path id="s" class="st3" d="M31.7,11.6l9.1,27.9L17.1,22.2h29.3L22.7,39.5L31.7,11.6z"/>
						<g>
							<path id="s_00000021098203428756490320000016164312951753951406_" class="st3" d="M31.7,65.5l9.1,27.9L17.1,76.2h29.3
								L22.7,93.4L31.7,65.5z"/>
						</g>
						<g>
							<path id="s_00000093880816316605482580000002709451064716799133_" class="st3" d="M31.7,119.5l9.1,27.9l-23.7-17.2h29.3
								l-23.7,17.2L31.7,119.5z"/>
						</g>
						<g>
							<path id="s_00000003811953672930782010000011859385450307871391_" class="st3" d="M31.7,173.5l9.1,27.9l-23.7-17.2h29.3
								l-23.7,17.2L31.7,173.5z"/>
						</g>
					</g>
					<g>
						<path id="s_00000152237473543095859800000015239223502511309462_" class="st3" d="M31.7,227.5l9.1,27.9l-23.7-17.2h29.3
							l-23.7,17.2L31.7,227.5z"/>
					</g>
				</g>
				<g>
					<g id="s4_00000085211127231986098400000010718723001436254610_">
						<path id="s_00000090274644076180453690000009339965662935778200_" class="st3" d="M63.5,38.6l9.1,27.9L48.8,49.2h29.3
							L54.4,66.4L63.5,38.6z"/>
						<g>
							<path id="s_00000121241730657867815370000009882948239181574809_" class="st3" d="M63.5,92.5l9.1,27.9l-23.7-17.2h29.3
								l-23.7,17.2L63.5,92.5z"/>
						</g>
						<g>
							<path id="s_00000026150149451561693820000018418630419621331604_" class="st3" d="M63.5,146.5l9.1,27.9l-23.7-17.2h29.3
								l-23.7,17.2L63.5,146.5z"/>
						</g>
						<g>
							<path id="s_00000165939036780273250940000017026239703042594724_" class="st3" d="M63.5,200.5l9.1,27.9l-23.7-17.2h29.3
								l-23.7,17.2L63.5,200.5z"/>
						</g>
					</g>
				</g>
			</g>
			<g>
				<g id="s9_00000175284614416888673560000001226532133645020844_">
					<g id="s5_00000161612735201863842140000010340158751241264291_">
						<g id="s4_00000178895857183156586560000018178745006950736030_">
							<path id="s_00000008839725319835592920000015257190834543315887_" class="st3" d="M95.2,11.6l9.1,27.9L80.6,22.2h29.3
								L86.2,39.5L95.2,11.6z"/>
							<g>
								<path id="s_00000014603556676776750750000000520627943582822826_" class="st3" d="M95.2,65.5l9.1,27.9L80.6,76.2h29.3
									L86.2,93.4L95.2,65.5z"/>
							</g>
							<g>
								<path id="s_00000165230032394573653250000015460507725281293989_" class="st3" d="M95.2,119.5l9.1,27.9l-23.7-17.2h29.3
									l-23.7,17.2L95.2,119.5z"/>
							</g>
							<g>
								<path id="s_00000033347090578222209680000003848295183844146620_" class="st3" d="M95.2,173.5l9.1,27.9l-23.7-17.2h29.3
									l-23.7,17.2L95.2,173.5z"/>
							</g>
						</g>
						<g>
							<path id="s_00000048472472097730226670000009498426839091091599_" class="st3" d="M95.2,227.5l9.1,27.9l-23.7-17.2h29.3
								l-23.7,17.2L95.2,227.5z"/>
						</g>
					</g>
					<g>
						<g id="s4_00000173144769229150083780000001078852274974781060_">
							<path id="s_00000121244995882784157630000002361198178010025651_" class="st3" d="M127,38.6l9.1,27.9l-23.7-17.2h29.3
								l-23.7,17.2L127,38.6z"/>
							<g>
								<path id="s_00000075860932644978395810000003944218455655014534_" class="st3" d="M127,92.5l9.1,27.9l-23.7-17.2h29.3
									l-23.7,17.2L127,92.5z"/>
							</g>
							<g>
								<path id="s_00000103980483964351825080000001768424515005114292_" class="st3" d="M127,146.5l9.1,27.9l-23.7-17.2h29.3
									l-23.7,17.2L127,146.5z"/>
							</g>
							<g>
								<path id="s_00000113351512324618441590000009601962327341057153_" class="st3" d="M127,200.5l9.1,27.9l-23.7-17.2h29.3
									l-23.7,17.2L127,200.5z"/>
							</g>
						</g>
					</g>
				</g>
			</g>
		</g>
		<g>
			<g id="s18_00000019679760697463106890000015894190850436014470_">
				<g id="s9_00000010305126459095821310000002393199897707301286_">
					<g id="s5_00000095301986470320436630000002649637008902647217_">
						<g id="s4_00000144319769953012418600000005604726455994080154_">
							<path id="s_00000140703016269270526300000010333125642049933482_" class="st3" d="M158.7,11.6l9.1,27.9L144,22.2h29.3
								l-23.7,17.2L158.7,11.6z"/>
							<g>
								<path id="s_00000049194896307182630410000014990429894585955473_" class="st3" d="M158.7,65.5l9.1,27.9L144,76.2h29.3
									l-23.7,17.2L158.7,65.5z"/>
							</g>
							<g>
								<path id="s_00000024680274069547345970000011184131197974358674_" class="st3" d="M158.7,119.5l9.1,27.9L144,130.2h29.3
									l-23.7,17.2L158.7,119.5z"/>
							</g>
							<g>
								<path id="s_00000106123542316427434880000000009707976835369122_" class="st3" d="M158.7,173.5l9.1,27.9L144,184.1h29.3
									l-23.7,17.2L158.7,173.5z"/>
							</g>
						</g>
						<g>
							<path id="s_00000072988598167721144800000015963126240304972699_" class="st3" d="M158.7,227.5l9.1,27.9L144,238.1h29.3
								l-23.7,17.2L158.7,227.5z"/>
						</g>
					</g>
					<g>
						<g id="s4_00000034078896818053655850000018203263915159670659_">
							<path id="s_00000124128331132098452670000010972552533102639232_" class="st3" d="M190.5,38.6l9.1,27.9l-23.7-17.2h29.3
								l-23.7,17.2L190.5,38.6z"/>
							<g>
								<path id="s_00000044881985058460822440000011372527698758271661_" class="st3" d="M190.5,92.5l9.1,27.9l-23.7-17.2h29.3
									l-23.7,17.2L190.5,92.5z"/>
							</g>
							<g>
								<path id="s_00000142169561213697282320000011272238978787608704_" class="st3" d="M190.5,146.5l9.1,27.9l-23.7-17.2h29.3
									l-23.7,17.2L190.5,146.5z"/>
							</g>
							<g>
								<path id="s_00000106842564657778673700000012576138359273329282_" class="st3" d="M190.5,200.5l9.1,27.9l-23.7-17.2h29.3
									l-23.7,17.2L190.5,200.5z"/>
							</g>
						</g>
					</g>
				</g>
				<g>
					<g id="s9_00000109025818973894758100000003609871647419474570_">
						<g id="s5_00000053509423739554689550000006216625483115871923_">
							<g id="s4_00000088847354332349296310000000550340857768508074_">
								<path id="s_00000165951534479550834020000002551752195286707613_" class="st3" d="M222.2,11.6l9.1,27.9l-23.7-17.2h29.3
									l-23.7,17.2L222.2,11.6z"/>
								<g>
									<path id="s_00000104669842888843569510000015795506973564498071_" class="st3" d="M222.2,65.5l9.1,27.9l-23.7-17.2h29.3
										l-23.7,17.2L222.2,65.5z"/>
								</g>
								<g>
									<path id="s_00000027568531617443352510000011141039333037957563_" class="st3" d="M222.2,119.5l9.1,27.9l-23.7-17.2h29.3
										l-23.7,17.2L222.2,119.5z"/>
								</g>
								<g>
									<path id="s_00000178893681745156235700000005595487022029950085_" class="st3" d="M222.2,173.5l9.1,27.9l-23.7-17.2h29.3
										l-23.7,17.2L222.2,173.5z"/>
								</g>
							</g>
							<g>
								<path id="s_00000108304659934683632220000006015912445005383844_" class="st3" d="M222.2,227.5l9.1,27.9l-23.7-17.2h29.3
									l-23.7,17.2L222.2,227.5z"/>
							</g>
						</g>
						<g>
							<g id="s4_00000033345983147371022800000001398197699241948347_">
								<path id="s_00000007423352833209550170000001086382292955646086_" class="st3" d="M253.9,38.6l9.1,27.9l-23.7-17.2h29.3
									l-23.7,17.2L253.9,38.6z"/>
								<g>
									<path id="s_00000124879155176730846630000011264609620540339882_" class="st3" d="M253.9,92.5l9.1,27.9l-23.7-17.2h29.3
										l-23.7,17.2L253.9,92.5z"/>
								</g>
								<g>
									<path id="s_00000048459543976559989690000004111104250040969142_" class="st3" d="M253.9,146.5l9.1,27.9l-23.7-17.2h29.3
										l-23.7,17.2L253.9,146.5z"/>
								</g>
								<g>
									<path id="s_00000008844305335405501840000016299946481454678952_" class="st3" d="M253.9,200.5l9.1,27.9l-23.7-17.2h29.3
										l-23.7,17.2L253.9,200.5z"/>
								</g>
							</g>
						</g>
					</g>
				</g>
			</g>
		</g>
		<g>
			<g id="s9_00000039819912651780298620000001635861187742805685_">
				<g id="s5_00000133510892304835072960000000282833011664545188_">
					<g id="s4_00000105403011118417006810000003733111313924298140_">
						<path id="s_00000070818655929223900400000011400302816522911672_" class="st3" d="M285.7,11.6l9.1,27.9L271,22.2h29.3
							l-23.7,17.2L285.7,11.6z"/>
						<g>
							<path id="s_00000111193775069837429620000017775603340880200881_" class="st3" d="M285.7,65.5l9.1,27.9L271,76.2h29.3
								l-23.7,17.2L285.7,65.5z"/>
						</g>
						<g>
							<path id="s_00000065043375819319998560000008269348370272543413_" class="st3" d="M285.7,119.5l9.1,27.9L271,130.2h29.3
								l-23.7,17.2L285.7,119.5z"/>
						</g>
						<g>
							<path id="s_00000001658834375822440430000007026106247183796108_" class="st3" d="M285.7,173.5l9.1,27.9L271,184.1h29.3
								l-23.7,17.2L285.7,173.5z"/>
						</g>
					</g>
					<g>
						<path id="s_00000013186663137769033010000008493999294647510448_" class="st3" d="M285.7,227.5l9.1,27.9L271,238.1h29.3
							l-23.7,17.2L285.7,227.5z"/>
					</g>
				</g>
				<g>
					<g id="s4_00000016049539982297778830000007516312932281358492_">
						<path id="s_00000101088001171630735370000009364866410277810334_" class="st3" d="M317.4,38.6l9.1,27.9l-23.7-17.2h29.3
							l-23.7,17.2L317.4,38.6z"/>
						<g>
							<path id="s_00000013193625179860313930000008094170793408211867_" class="st3" d="M317.4,92.5l9.1,27.9l-23.7-17.2h29.3
								l-23.7,17.2L317.4,92.5z"/>
						</g>
						<g>
							<path id="s_00000117678762217320723290000002897697924908371333_" class="st3" d="M317.4,146.5l9.1,27.9l-23.7-17.2h29.3
								l-23.7,17.2L317.4,146.5z"/>
						</g>
						<g>
							<path id="s_00000037677950231190661660000001605979062479370156_" class="st3" d="M317.4,200.5l9.1,27.9l-23.7-17.2h29.3
								l-23.7,17.2L317.4,200.5z"/>
						</g>
					</g>
				</g>
			</g>
		</g>
		<g>
			<g id="s5_00000063618386970578263180000015657589932073994929_">
				<g id="s4_00000113334614310632713700000001347031019107302575_">
					<path id="s_00000057134330759971872240000014400684038953464195_" class="st3" d="M349.2,11.6l9.1,27.9l-23.7-17.2h29.3
						l-23.7,17.2L349.2,11.6z"/>
					<g>
						<path id="s_00000019675204792426712150000002863990912388378754_" class="st3" d="M349.2,65.5l9.1,27.9l-23.7-17.2h29.3
							l-23.7,17.2L349.2,65.5z"/>
					</g>
					<g>
						<path id="s_00000049214030376073868520000010317167821004945838_" class="st3" d="M349.2,119.5l9.1,27.9l-23.7-17.2h29.3
							l-23.7,17.2L349.2,119.5z"/>
					</g>
					<g>
						<path id="s_00000096031490561267912670000013900379483798015882_" class="st3" d="M349.2,173.5l9.1,27.9l-23.7-17.2h29.3
							l-23.7,17.2L349.2,173.5z"/>
					</g>
				</g>
				<g>
					<path id="s_00000056395523985132994200000013200979784180038057_" class="st3" d="M349.2,227.5l9.1,27.9l-23.7-17.2h29.3
						l-23.7,17.2L349.2,227.5z"/>
				</g>
			</g>
		</g>
	</g>
</g>
</svg>
