<?xml version="1.0" encoding="UTF-8"?>
<svg id="Capa_2" data-name="Capa 2" xmlns="http://www.w3.org/2000/svg" viewBox="0 0 221.55 236.62">
  <defs>
    <style>
      .cls-1 {
        fill: #bababa;
        stroke-width: 0px;
      }
    </style>
  </defs>
  <g id="Capa_1-2" data-name="Capa 1">
    <g>
      <path class="cls-1" d="m218.5,37.32c-13.19-4.79-26.44-9.42-39.65-14.14-13.07-4.68-26.11-9.41-39.24-13.92-9.52-3.28-18.74-7.55-28.78-9.25h-.93c-2.36.85-4.92.76-7.31,1.61-28.23,10.12-56.46,20.24-84.7,30.35-5.08,1.82-10.17,3.61-15.24,5.47-1.99.73-2.81,1.99-2.65,4.03.05.69.06,1.38.14,2.07.77,6.19,1.43,12.4,2.1,18.6,1.55,14.4,3.19,28.79,4.82,43.18,1.5,13.24,2.95,26.49,4.45,39.74,1.37,12.09,2.82,24.18,3.95,36.3.33,3.53,1.99,5.29,4.84,6.83,10.37,5.62,20.64,11.42,30.96,17.14,18,9.98,35.95,20.07,54.01,29.93,2.29,1.25,4.73,1.75,7.44,1.03,2.09-.55,3.89-1.58,5.71-2.6,27-15.05,54.02-30.08,81.11-44.97,3.93-2.16,5.56-4.73,5.97-9.1,1.46-15.34,3.44-30.62,5.22-45.93,1.6-13.7,3.25-27.39,4.83-41.09,1.94-16.76,3.96-33.51,5.82-50.28.38-3.38.19-3.89-2.91-5.01Zm-41.57,143.58c-7.32-.09-14.65-.09-21.97,0-1.59.02-2.31-.54-2.87-1.95-4.12-10.32-8.36-20.59-12.42-30.93-.66-1.69-1.52-2.12-3.2-2.11-17.81.05-35.62.05-53.43,0-1.63,0-2.44.49-3.05,2.02-4.01,10.12-8.16,20.18-12.16,30.3-.74,1.87-1.55,2.76-3.79,2.69-6.93-.19-13.88-.06-20.81-.07-2.65,0-2.66-.02-1.63-2.32,12.52-27.84,25.05-55.67,37.57-83.51,9.97-22.17,19.93-44.35,29.9-66.52.34-.75.73-1.47,1.35-2.68,3.96,8.9,7.71,17.3,11.43,25.71,16.45,37.18,32.89,74.36,49.33,111.54,2.33,5.26,4.62,10.54,7.02,15.77.71,1.54.63,2.08-1.28,2.06Z"/>
      <path class="cls-1" d="m109.94,77.65c-6.35,15.22-12.66,30.45-19.06,45.65-.78,1.86.24,1.66,1.4,1.66,9.56,0,19.13,0,28.69,0,2.84,0,5.68,0,8.84,0-6.47-16.1-12.84-31.95-19.29-48-.4.46-.53.56-.58.69Z"/>
    </g>
  </g>
</svg>