<?xml version="1.0" encoding="UTF-8"?>
<svg id="Capa_2" data-name="Capa 2" xmlns="http://www.w3.org/2000/svg" viewBox="0 0 272.27 302.16">
  <defs>
    <style>
      .cls-1 {
        fill: #bababa;
        stroke-width: 0px;
      }
    </style>
  </defs>
  <g id="Capa_1-2" data-name="Capa 1">
    <path class="cls-1" d="m272.24,150.8c0-18.42-.1-36.84.03-55.26.11-15.86-7.07-27.16-20.69-34.95-31.57-18.06-63.07-36.24-94.52-54.5-13.92-8.08-27.65-8.12-41.55-.08-31.87,18.42-63.77,36.78-95.66,55.16C7.15,68.49.24,79.49.16,94.1c-.22,37.86-.2,75.72,0,113.58.08,14.42,6.73,25.46,19.29,32.72,32.63,18.86,65.24,37.75,97.96,56.44,12.38,7.07,25.2,7.09,37.58.03,32.73-18.67,65.36-37.53,97.98-56.41,12.83-7.42,19.34-18.6,19.29-33.53-.06-18.71-.01-37.42-.01-56.14Zm-69.55-55.58c-6.13,6.49-12.2,13.02-17.85,19.94-8.05,9.86-15.74,19.99-23,30.45-1.92,2.76-3.9,4.05-7.45,4.09-7.91.1-15.75,1.24-23.42,3.27-1.55.41-3.07.95-4.56,1.56-1.21.5-2.61,1.12-2.22,2.79.44,1.91,2.11,1.94,3.54,1.6,4.72-1.14,9.5-1.69,14.33-2.01,1.31-.09,2.64-.24,3.95-.17,1.66.09,3.78-.75,4.75,1.26.99,2.07-.95,3.13-2.09,4.37-15.58,16.95-34.84,27.29-57.34,31.8-1,.2-2,.42-3,.65-2.8.66-3.2,3.47-3,5.17.26,2.22,2.55.51,3.9.42,2.62-.19,5.22-.68,7.83-1.01.21-.03.45.22,1.3.68-4.71,3.15-9.05,6.25-13.6,9.02-2.81,1.71-4.64,3.79-5.17,7.09-.39,2.44-1.36,4.9-4.46,4.17-3.17-.75-2.85-3.37-1.9-5.67,1.57-3.79,1.01-7.28-.5-10.96-1.91-4.66-3.39-9.49-4.15-14.82,2.97,3.32,5.94,6.64,9.32,10.41,2.41-4.24,2.86-7.08.91-10.88-8.77-17.09-6.55-33.72,3.52-49.5,10.42-16.34,25.41-27.73,42.08-36.99,20.83-11.57,42.87-19.47,66.96-20.48,2.22-.09,5.7-1.25,6.34,1.15.75,2.79-3.04,2.86-4.95,3.74-30.83,14.25-59.2,31.98-82.02,57.59-9.3,10.44-17.02,21.93-22.97,34.59-.96,2.05-1.38,4.03,1.09,5.22,2.49,1.2,3.8-.4,4.76-2.42,14.33-30.28,37.89-51.9,65.56-69.64,12.84-8.23,26.37-15.18,40.4-21.15,1.46-.62,3.32-2.41,4.67-.38,1.24,1.86-.24,3.66-1.55,5.05Z"/>
  </g>
</svg>