<?xml version="1.0" encoding="UTF-8"?>
<svg id="Capa_2" data-name="Capa 2" xmlns="http://www.w3.org/2000/svg" viewBox="0 0 221.61 236.69">
  <defs>
    <style>
      .cls-1 {
        fill: #fff;
      }

      .cls-1, .cls-2 {
        stroke-width: 0px;
      }

      .cls-2 {
        fill: #dd0932;
      }
    </style>
  </defs>
  <g id="Capa_1-2" data-name="Capa 1">
    <g>
      <g>
        <path class="cls-2" d="m218.56,37.33c-13.19-4.79-26.44-9.42-39.66-14.15-13.07-4.68-26.12-9.41-39.25-13.93-9.53-3.28-18.75-7.55-28.78-9.25h-.93c-2.37.85-4.92.76-7.31,1.61-28.24,10.13-56.48,20.25-84.72,30.36-5.08,1.82-10.17,3.61-15.24,5.47-1.99.73-2.81,1.99-2.65,4.03.05.69.06,1.38.14,2.07.77,6.19,1.43,12.4,2.1,18.61,1.55,14.4,3.19,28.8,4.82,43.19,1.5,13.25,2.95,26.5,4.45,39.75,1.37,12.1,2.82,24.19,3.95,36.31.33,3.53,1.99,5.29,4.84,6.83,10.37,5.62,20.65,11.42,30.97,17.14,18.01,9.99,35.95,20.07,54.03,29.94,2.3,1.25,4.73,1.75,7.44,1.03,2.09-.55,3.9-1.59,5.71-2.6,27.01-15.06,54.04-30.09,81.13-44.98,3.93-2.16,5.56-4.73,5.97-9.1,1.46-15.34,3.44-30.63,5.23-45.94,1.6-13.7,3.25-27.4,4.84-41.1,1.94-16.77,3.96-33.52,5.82-50.29.38-3.39.19-3.89-2.91-5.01Zm-41.58,143.61c-7.32-.09-14.65-.09-21.98,0-1.59.02-2.31-.54-2.88-1.95-4.12-10.32-8.36-20.59-12.42-30.94-.66-1.69-1.52-2.12-3.2-2.11-17.81.05-35.63.05-53.44,0-1.63,0-2.44.49-3.05,2.02-4.01,10.12-8.16,20.19-12.16,30.31-.74,1.87-1.55,2.76-3.79,2.7-6.94-.19-13.88-.06-20.82-.07-2.65,0-2.66-.02-1.63-2.32,12.53-27.84,25.06-55.69,37.58-83.53,9.97-22.18,19.94-44.36,29.91-66.54.34-.75.74-1.47,1.35-2.69,3.96,8.9,7.71,17.3,11.43,25.71,16.45,37.19,32.9,74.38,49.35,111.57,2.33,5.26,4.62,10.54,7.02,15.77.71,1.54.63,2.08-1.28,2.06Z"/>
        <path class="cls-2" d="m109.97,77.67c-6.35,15.22-12.66,30.46-19.06,45.66-.78,1.86.24,1.66,1.4,1.66,9.57,0,19.13,0,28.7,0,2.84,0,5.68,0,8.84,0-6.47-16.1-12.84-31.96-19.29-48.01-.4.46-.53.56-.58.69Z"/>
      </g>
      <path class="cls-1" d="m171.24,163.11c-16.45-37.19-32.89-74.38-49.35-111.57-3.72-8.41-7.47-16.81-11.43-25.71-.62,1.22-1.01,1.94-1.35,2.69-9.97,22.18-19.94,44.36-29.91,66.54-12.52,27.85-25.06,55.69-37.58,83.53-1.04,2.3-1.02,2.32,1.63,2.32,6.94,0,13.88-.12,20.82.07,2.24.06,3.05-.83,3.79-2.69,4-10.12,8.15-20.19,12.16-30.31.61-1.53,1.42-2.03,3.05-2.02,17.81.06,35.63.06,53.44,0,1.69,0,2.54.42,3.2,2.11,4.06,10.34,8.3,20.62,12.42,30.94.56,1.41,1.28,1.97,2.88,1.95,7.32-.1,14.65-.09,21.98,0,1.91.02,1.98-.52,1.28-2.06-2.4-5.23-4.69-10.51-7.02-15.77Zm-50.23-38.13c-9.57,0-19.13,0-28.7,0-1.16,0-2.18.2-1.4-1.66,6.4-15.2,12.71-30.44,19.06-45.66.05-.13.19-.23.58-.69,6.45,16.05,12.82,31.91,19.29,48.01h-8.84Z"/>
    </g>
  </g>
</svg>