<?xml version="1.0" encoding="UTF-8"?>
<svg id="Capa_2" data-name="Capa 2" xmlns="http://www.w3.org/2000/svg" xmlns:xlink="http://www.w3.org/1999/xlink" viewBox="0 0 327.92 261.31">
  <defs>
    <style>
      .cls-1 {
        fill: url(#Degradado_sin_nombre_2);
        stroke: #fff;
      }

      .cls-2 {
        fill: url(#Degradado_sin_nombre_8);
      }
    </style>
    <linearGradient id="Degradado_sin_nombre_8" data-name="Degradado sin nombre 8" x1="33.02" y1="-96.74" x2="319.56" y2="-324.2" gradientTransform="translate(0 -70.04) scale(1 -1)" gradientUnits="userSpaceOnUse">
      <stop offset="0" stop-color="#9013fe"/>
      <stop offset="1" stop-color="#6610f2"/>
    </linearGradient>
    <linearGradient id="Degradado_sin_nombre_2" data-name="Degradado sin nombre 2" x1="121.14" y1="-141.97" x2="185.19" y2="-250.3" gradientTransform="translate(0 -70.04) scale(1 -1)" gradientUnits="userSpaceOnUse">
      <stop offset="0" stop-color="#fff"/>
      <stop offset="1" stop-color="#f1e5fc"/>
    </linearGradient>
  </defs>
  <g id="Capa_1-2" data-name="Capa 1">
    <g>
      <path class="cls-2" d="m36.17,34.15C35.56,16.38,49.4,0,68.11,0h191.73c18.71,0,32.55,16.38,31.93,34.15-.59,17.07.18,39.17,5.74,57.2,5.58,18.08,14.99,29.51,30.41,30.98v16.65c-15.42,1.47-24.83,12.9-30.41,30.98-5.56,18.03-6.34,40.13-5.74,57.2.62,17.77-13.22,34.15-31.93,34.15H68.11c-18.71,0-32.55-16.38-31.93-34.15.59-17.07-.18-39.17-5.74-57.2-5.58-18.08-15.02-29.51-30.43-30.98v-16.65c15.42-1.47,24.85-12.9,30.43-30.98,5.56-18.03,6.34-40.13,5.74-57.2Z"/>
      <path class="cls-1" d="m171.07,200.12c30.29,0,48.55-14.83,48.55-39.3,0-18.49-13.02-31.88-32.36-34v-.77c14.21-2.31,25.36-15.51,25.36-30.24,0-21-16.58-34.67-41.84-34.67h-56.83v138.98h57.13Zm-35.03-121.36h29.4c15.98,0,25.06,7.13,25.06,20.03,0,13.77-10.56,21.48-29.7,21.48h-24.77v-41.51Zm0,103.73v-45.75h29.21c20.92,0,31.77,7.7,31.77,22.73s-10.56,23.02-30.49,23.02h-30.49Z"/>
    </g>
  </g>
</svg>