<?xml version="1.0" encoding="UTF-8"?>
<svg id="Capa_2" data-name="Capa 2" xmlns="http://www.w3.org/2000/svg" viewBox="0 0 214.42 247.59">
  <defs>
    <style>
      .cls-1 {
        fill: #382781;
      }

      .cls-1, .cls-2 {
        stroke-width: 0px;
      }

      .cls-2 {
        fill: #fff;
      }
    </style>
  </defs>
  <g id="Capa_1-2" data-name="Capa 1">
    <g>
      <g>
        <path class="cls-1" d="m107.21,0L0,61.9v123.79l107.21,61.9,107.21-61.9V61.9L107.21,0Zm-55.29,135.36c4.86,19.74,17.94,32.22,37.8,36.17,20.33,4.04,37.04-3.12,49.34-19.8,2.25-3.05,3.64-3.69,6.92-1.52,5.82,3.85,11.9,7.33,18.05,10.64,3.13,1.68,3.44,3.09,1.42,6.03-16.08,23.36-38.25,35.27-59.24,35.88-47.94-.02-82.86-31.96-85.85-71.84-3.17-42.28,25.35-79.16,66.83-85.11,33.15-4.75,59.15,7.84,78.36,35.06,2.2,3.11,1.85,4.59-1.58,6.36-6.2,3.2-12.23,6.77-18.14,10.49-2.97,1.87-4.38,1.69-6.54-1.43-16.44-23.76-48.62-28.63-70.59-10.49-15.64,12.91-21.63,29.8-16.77,49.57Zm152-16.57h-6.2l-2.03,10h8.24v8h-9.71l-2.66,13h-7.52l2.6-13h-7.49l-2.66,13h-7.62l2.66-13h-4.59v-8h6.1l2.03-10h-8.14v-8h9.61l2.66-13h7.56l-2.66,13h7.45l2.6-13h7.82l-2.7,13h4.65v8Z"/>
        <polygon class="cls-1" points="180.15 128.79 187.68 128.79 189.65 118.79 182.15 118.79 180.15 128.79"/>
      </g>
      <g>
        <path class="cls-2" d="m87.18,45.81c-41.48,5.95-70.01,42.82-66.83,85.11,2.99,39.88,37.91,71.82,85.85,71.84,21-.61,43.17-12.52,59.24-35.88,2.02-2.94,1.71-4.35-1.42-6.03-6.15-3.31-12.23-6.79-18.05-10.64-3.28-2.17-4.67-1.52-6.92,1.52-12.31,16.69-29.02,23.84-49.34,19.8-19.85-3.95-32.94-16.43-37.8-36.17-4.86-19.76,1.13-36.65,16.77-49.57,21.97-18.14,54.15-13.27,70.59,10.49,2.16,3.12,3.57,3.3,6.54,1.43,5.91-3.72,11.94-7.29,18.14-10.49,3.42-1.77,3.77-3.25,1.58-6.36-19.21-27.22-45.21-39.81-78.36-35.06Z"/>
        <path class="cls-2" d="m168.84,149.79h7.62l2.66-13h7.49l-2.6,13h7.52l2.66-13h9.71v-8h-8.24l2.03-10h6.2v-8h-4.65l2.7-13h-7.82l-2.6,13h-7.45l2.66-13h-7.56l-2.66,13h-9.61v8h8.14l-2.03,10h-6.1v8h4.59l-2.66,13Zm13.32-31h7.49l-1.97,10h-7.53l2-10Z"/>
      </g>
    </g>
  </g>
</svg>