<?xml version="1.0" encoding="UTF-8"?>
<svg id="Capa_2" data-name="Capa 2" xmlns="http://www.w3.org/2000/svg" viewBox="0 0 337.32 236.17">
  <defs>
    <style>
      .cls-1 {
        fill: #3f90ce;
        stroke-width: 0px;
      }
    </style>
  </defs>
  <g id="Capa_1-2" data-name="Capa 1">
    <g>
      <path class="cls-1" d="m337.32,96.17c-1.66,3.18-3.25,6.4-4.98,9.54-6.78,12.28-17.3,19.23-30.95,21.76-4.87.9-9.79,1.23-14.72,1.12-1.56-.03-2.15.5-2.71,1.82-6.85,16.23-15.77,31.23-27.11,44.74-18.16,21.64-40.61,37.27-66.91,47.44-12.92,4.99-26.26,8.42-39.94,10.61-14.56,2.33-29.2,3.29-43.92,2.86-17.87-.51-35.21-3.66-51.45-11.53-20.39-9.88-34.95-25.43-44.33-45.95-5.34-11.67-8.57-23.94-9.8-36.7-.8-8.32-.67-16.65.58-24.94.12-.79.37-1.22,1.23-1.11.38.05.77,0,1.15,0,75.86,0,151.71,0,227.57,0,8.13,0,15.98-1.46,23.42-4.9,1.16-.54,1.28-.95.59-2.1-4.11-6.89-5.77-14.48-5.83-22.42-.08-10.31,2.19-20.08,7.46-29.02,1.72-2.92,3.71-5.68,5.54-8.53.37-.57.63-.7,1.25-.31,9.11,5.64,17.07,12.48,22.63,21.79,2.74,4.59,4.65,9.51,5.44,14.82.15,1.02.43,1.37,1.63,1.19,10.19-1.52,20.29-1.21,30.28,1.57,4.69,1.31,8.49,4.19,12.46,6.79.45.29.81.75,1.4.79v.66Z"/>
      <path class="cls-1" d="m166.98,32.07c-5.38,0-10.75-.03-16.13.02-.99,0-1.28-.23-1.28-1.26.04-9.87.04-19.75,0-29.62,0-.89.17-1.22,1.15-1.21,10.86.04,21.72.03,32.58,0,.91,0,1.21.22,1.2,1.17-.03,9.93-.04,19.86,0,29.78,0,1.02-.4,1.13-1.25,1.13-5.43-.03-10.86-.02-16.29-.02Z"/>
      <path class="cls-1" d="m84.83,38.27c5.27,0,10.53.03,15.8-.02,1.14-.01,1.6.16,1.59,1.48-.07,9.65-.06,19.31,0,28.96,0,1.15-.28,1.45-1.44,1.45-10.7-.05-21.39-.05-32.09,0-1.19,0-1.43-.36-1.43-1.48.04-9.65.04-19.31,0-28.96,0-1.15.3-1.47,1.45-1.45,5.37.06,10.75.03,16.12.03Z"/>
      <path class="cls-1" d="m125.89,38.27c5.32,0,10.64.03,15.96-.02,1.05,0,1.53.12,1.52,1.38-.06,9.71-.05,19.42,0,29.12,0,1.06-.25,1.38-1.35,1.38-10.75-.04-21.5-.04-32.25,0-1.1,0-1.35-.32-1.35-1.38.04-9.71.05-19.42,0-29.12,0-1.26.47-1.39,1.52-1.38,5.32.05,10.64.02,15.96.02Z"/>
      <path class="cls-1" d="m166.98,70.11c-5.32,0-10.64-.04-15.96.03-1.16.01-1.45-.29-1.44-1.45.05-9.65.06-19.31,0-28.96,0-1.31.43-1.49,1.58-1.48,10.59.04,21.17.05,31.76,0,1.29,0,1.64.31,1.63,1.62-.06,9.54-.05,19.09,0,28.63,0,1.24-.24,1.68-1.59,1.65-5.32-.09-10.64-.04-15.96-.04Z"/>
      <path class="cls-1" d="m43.73,76.33c5.32,0,10.65.03,15.97-.02,1.04,0,1.38.21,1.38,1.33-.05,9.6-.05,19.21,0,28.81,0,1.04-.29,1.26-1.28,1.26-10.76-.04-21.51-.05-32.27,0-1.22,0-1.41-.41-1.4-1.5.04-9.49.05-18.99,0-28.48,0-1.2.38-1.43,1.48-1.42,5.38.05,10.76.02,16.14.02Z"/>
      <path class="cls-1" d="m84.82,76.33c5.32,0,10.64.04,15.95-.03,1.17-.02,1.43.31,1.42,1.45-.05,9.54-.05,19.08,0,28.62,0,1.1-.31,1.34-1.36,1.34-10.75-.04-21.49-.04-32.24,0-1.09,0-1.35-.31-1.35-1.37.04-9.59.04-19.19,0-28.78,0-1.05.32-1.26,1.29-1.25,5.43.05,10.86.02,16.28.02Z"/>
      <path class="cls-1" d="m125.8,107.68c-5.32,0-10.64-.04-15.96.03-1.16.01-1.45-.28-1.44-1.44.05-9.54.05-19.08,0-28.62,0-1.09.3-1.35,1.36-1.34,10.75.04,21.49.04,32.24,0,1.06,0,1.36.25,1.36,1.34-.05,9.59-.04,19.19,0,28.78,0,1.02-.26,1.28-1.27,1.27-5.43-.05-10.86-.03-16.28-.03Z"/>
      <path class="cls-1" d="m167.05,107.7c-5.38,0-10.75-.03-16.13.03-1.07.01-1.35-.26-1.35-1.34.04-9.55.04-19.09,0-28.64,0-1.06.24-1.36,1.33-1.36,10.75.04,21.51.04,32.26,0,1.06,0,1.36.25,1.35,1.34-.05,9.55-.04,19.09,0,28.64,0,1.06-.25,1.37-1.34,1.36-5.38-.06-10.75-.03-16.13-.03Z"/>
      <path class="cls-1" d="m208.21,107.68c-5.32,0-10.64-.05-15.95.03-1.27.02-1.51-.35-1.51-1.55.05-9.43.05-18.86,0-28.29,0-1.14.15-1.59,1.47-1.58,10.69.06,21.38.06,32.07,0,1.2,0,1.41.35,1.4,1.46-.05,9.48-.05,18.97,0,28.45,0,1.27-.36,1.51-1.54,1.5-5.32-.07-10.63-.03-15.95-.03Z"/>
    </g>
  </g>
</svg>