<?xml version="1.0" encoding="UTF-8"?>
<svg id="Capa_2" data-name="Capa 2" xmlns="http://www.w3.org/2000/svg" viewBox="0 0 215.23 215.23">
  <defs>
    <style>
      .cls-1 {
        fill: #fff;
      }

      .cls-2 {
        fill: #593089;
      }
    </style>
  </defs>
  <g id="Capa_1-2" data-name="Capa 1">
    <g>
      <circle class="cls-2" cx="107.61" cy="107.62" r="107.61"/>
      <g>
        <path class="cls-1" d="m86.95,81.71c-1.41,0-2.54.48-3.37,1.45-.83.97-1.25,2.42-1.25,4.36v29.8l-19.52-29.53c-.55-.87-1.08-1.7-1.59-2.5-.51-.8-1.01-1.45-1.5-1.95-.49-.5-1.06-.9-1.71-1.2-.65-.3-1.43-.44-2.34-.44-1.16,0-2.24.33-3.25.97-1,.65-1.72,1.49-2.15,2.51-.36.93-.55,2.22-.55,3.86v38.66c0,1.89.43,3.33,1.3,4.32.87.99,2.02,1.49,3.45,1.49s2.53-.49,3.42-1.47,1.33-2.43,1.33-4.34v-29.36l19.04,29.19c.55.8,1.09,1.58,1.64,2.34s1.14,1.43,1.78,2c.64.57,1.32.99,2.05,1.25.73.26,1.55.39,2.46.39,3.65,0,5.47-2.2,5.47-6.6v-39.41c0-1.94-.42-3.39-1.26-4.36-.84-.97-1.99-1.45-3.45-1.45Z"/>
        <path class="cls-1" d="m33.12,123.24c-1.44,0-2.64.5-3.62,1.5-.98,1-1.47,2.2-1.47,3.59,0,1.64.51,2.92,1.54,3.83s2.24,1.37,3.66,1.37,2.56-.46,3.57-1.38c1.01-.92,1.52-2.19,1.52-3.81,0-1.41-.51-2.61-1.52-3.61-1.01-.99-2.24-1.49-3.67-1.49Z"/>
        <path class="cls-1" d="m182.01,82.56h-32.27c-1.66,0-2.93.38-3.81,1.13-.88.75-1.32,1.78-1.32,3.08s.42,2.26,1.26,3.02c.84.76,2.13,1.15,3.86,1.15h11.07v36.4c0,2.07.47,3.62,1.42,4.65.95,1.03,2.17,1.54,3.67,1.54s2.69-.51,3.62-1.52c.93-1.01,1.4-2.57,1.4-4.67v-36.4h11.07c1.73,0,3.03-.38,3.9-1.15.87-.76,1.3-1.77,1.3-3.02s-.43-2.27-1.28-3.04c-.85-.77-2.16-1.16-3.91-1.16Z"/>
        <path class="cls-1" d="m109,132.67h27.58c1.59,0,2.8-.37,3.61-1.11.81-.74,1.21-1.7,1.21-2.89s-.4-2.22-1.21-2.96c-.81-.74-2.01-1.11-3.61-1.11h-23.65v-14.25h21.05c1.57,0,2.73-.36,3.49-1.08.75-.72,1.13-1.65,1.13-2.79s-.38-2.06-1.15-2.75c-.76-.69-1.92-1.04-3.47-1.04h-21.05v-12.3h22.87c1.62,0,2.82-.36,3.61-1.08.79-.72,1.18-1.67,1.18-2.85s-.39-2.1-1.18-2.82c-.79-.72-1.99-1.08-3.61-1.08h-26.8c-1.44,0-2.61.21-3.54.63s-1.6,1.09-2.03,2.02c-.43.92-.65,2.11-.65,3.57v37.67c0,2.19.48,3.77,1.45,4.75.97.98,2.56,1.47,4.77,1.47Z"/>
      </g>
    </g>
  </g>
</svg>