<?xml version="1.0" encoding="UTF-8"?>
<svg id="Capa_2" data-name="Capa 2" xmlns="http://www.w3.org/2000/svg" viewBox="0 0 283.68 283.68">
  <defs>
    <style>
      .cls-1 {
        fill: #ef810f;
      }

      .cls-1, .cls-2, .cls-3, .cls-4, .cls-5, .cls-6, .cls-7 {
        stroke-width: 0px;
      }

      .cls-2 {
        fill: #ffe848;
      }

      .cls-3 {
        fill: #93c021;
      }

      .cls-4 {
        fill: #fff;
      }

      .cls-5 {
        fill: #fcc10c;
      }

      .cls-6 {
        fill: #4d4c4c;
      }

      .cls-7 {
        fill: #61b230;
      }
    </style>
  </defs>
  <g id="Capa_1-2" data-name="Capa 1">
    <g>
      <path class="cls-7" d="m0,141.95C0,63.08,63.36-.03,142.52,0c78.12.03,141.19,63.7,141.16,142.52-.03,78.5-63.71,141.23-143.3,141.16C63.34,283.61,0,219.67,0,141.95Z"/>
      <path class="cls-3" d="m121.37,184.34c-10.79,14.12-24.9,21.68-42.77,23.06-27.51,2.12-56.06-18.83-56.52-46.77-.2-12.34.4-24.71-.16-37.02-.8-17.63,7.09-30.93,20.09-41.47,4.38-3.55,6.99-7.35,8.63-12.52,3.74-11.8,6.33-12.27,14.97-3.15,1.06,1.12,2.09,2.28,3.84,4.21,1.33-5.45,2.06-10.21,3.68-14.64,2.43-6.62,6.19-7.52,11.13-2.36,10.7,11.15,21.47,22.29,31.36,34.14,12.52,14.99,39.91,15.01,52.41.01,9.72-11.66,20.3-22.62,30.79-33.6,5.79-6.06,9.56-4.95,12.25,3.27,1.26,3.88,1.76,8.01,3.01,13.97,2.99-3.43,5.06-5.97,7.3-8.35,4.38-4.66,8.65-3.59,9.94,2.04,2.15,9.37,8.21,15.23,14.9,21.27,10.64,9.6,15.97,21.71,15.5,36.36-.39,12.07-.04,24.16-.1,36.24-.12,23.27-20.35,44.78-43.32,47.57-23.02,2.8-41.71-3.81-55.99-22.26-.11-.35-.23-.71-.35-1.06,3.15-7.21,2.43-11.47-3.81-16.23-13.27-10.13-21.54-9.16-34.81,2.24-4.5,3.87-5.07,8.86-1.63,13.98-.11.36-.23.71-.34,1.07Z"/>
      <path class="cls-1" d="m162.32,184.35c-1.82,18.9-19.76,24.94-31.49,17.14-6.23-4.15-8.23-10.37-9.46-17.15.28-.09.5-.26.65-.52,2.21-3.77,6-2.99,9.07-2.42,7.25,1.35,14.32,1.31,21.57,0,3.06-.56,6.86-1.37,9.02,2.48.15.24.37.4.64.47Z"/>
      <path class="cls-4" d="m112.96,142.06c0,5.76.83,11.66-.15,17.25-3.19,18.24-18.36,30.43-36.66,30.24-17.99-.19-32.65-12.29-35.56-30.47-1.9-11.9-2.06-24.09.3-35.98,3.7-18.64,20.59-30.39,40.18-28.59,17.29,1.59,31.7,17.11,32.37,34.97.16,4.19.02,8.39.02,12.59-.17,0-.33,0-.5,0Z"/>
      <path class="cls-4" d="m169.94,140.64c.43-6-.87-13.62,1.65-21.07,5.81-17.17,22.31-27.41,40.64-24.96,16.78,2.25,30.2,17.06,30.89,34.56.34,8.64.39,17.31-.03,25.95-.96,20.04-17.24,34.82-37.5,34.43-19.66-.37-35.11-15.77-35.64-35.57-.1-3.93-.02-7.86-.02-13.33Z"/>
      <path class="cls-5" d="m161.68,183.88c-13.22,2.27-26.44,2.28-39.65-.05-8.12-3.25-8.79-5.1-4.45-12.43,10.39-17.54,37.41-17.89,48.15-.62,4.84,7.78,4.21,9.82-4.04,13.1Z"/>
      <path class="cls-6" d="m99.68,142.23c0,3.41.18,6.83-.04,10.23-.61,9.49-7.56,16.23-16.72,16.44-9.62.22-17.15-6.37-18.09-16.01-.28-2.86.13-5.79-.14-8.65-.42-4.58.04-7.42,5.87-8.48,7.02-1.28,10.34-8.2,7.18-14.62-2.6-5.28-.17-5.61,3.72-5.88,8.83-.6,17.06,6.16,18.02,15.17.41,3.89.07,7.86.07,11.79.04,0,.08,0,.12,0Z"/>
      <path class="cls-6" d="m218.78,141.94c-.32,4.6-.19,9.11-1.02,13.44-1.52,7.97-8.11,13.24-16.06,13.53-8.5.31-15.25-4.56-17.61-12.68-1.57-5.4-.55-10.94-.89-16.4-.19-3.03,2.19-2.99,4.03-3.79,7.77-3.37,9.96-7.29,7.09-15.44-1.52-4.31.87-4.39,3.32-4.99,8.64-2.13,18.09,3.92,20.06,13.22.91,4.3.76,8.83,1.08,13.11Z"/>
      <path class="cls-2" d="m141.52,173.42c-3.88-.34-8.98.83-8.76-5.11.2-5.44,4.7-6.05,9.18-6.04,4.51.01,9.05.77,8.96,6.22-.1,6.46-5.77,4.32-9.38,4.92Z"/>
    </g>
  </g>
</svg>