<?xml version="1.0" encoding="UTF-8"?>
<svg id="Capa_2" data-name="Capa 2" xmlns="http://www.w3.org/2000/svg" viewBox="0 0 250.86 252.39">
  <defs>
    <style>
      .cls-1 {
        fill: #fff;
      }

      .cls-1, .cls-2 {
        stroke-width: 0px;
      }

      .cls-2 {
        fill: #3062ac;
      }
    </style>
  </defs>
  <g id="Capa_1-2" data-name="Capa 1">
    <g>
      <path class="cls-1" d="m149.03,160.88c6.73-.09,13.47-.09,20.2,0,2.93.04,4.38-.95,4.82-4.06,1.21-8.63,2.67-17.23,3.93-25.86.58-3.96.29-4.25-3.63-4.27-8.24-.04-16.49.02-24.73-.03-5.04-.03-5.77-.66-5.7-5.58.1-7.78-.58-15.59.54-23.34,1.21-8.35,6.46-13.85,14.72-15.58,5.4-1.13,10.87-.79,16.32-.86,4.29-.06,4.6-.33,4.62-4.53.03-6.74-.07-13.49.04-20.23.05-2.94-.83-4.42-4.02-4.74-10.04-1.01-20-2.61-30.17-1.32-25.03,3.17-37.69,19.65-38.92,43.31-.47,9.05-.04,18.13-.1,27.2-.03,4.99-.67,5.63-5.65,5.66-7.43.05-14.86-.03-22.29.03-3.64.03-4.05.4-4.07,3.99-.06,8.72-.06,17.44,0,26.16.02,3.57.45,3.96,4.09,3.99,7.43.06,14.86-.02,22.29.03,4.93.04,5.62.71,5.63,5.7.04,26.16.03,52.32,0,78.48,0,4.65-.49,5.59-4.17,5.09-.26-.04-.54-.08-.83-.13-.11-.02-.23-.04-.34-.06,0,.07,0,.14,0,.2.1.02.2.04.3.06,7.63,1.43,15.51,2.18,23.56,2.18s15.86-.75,23.46-2.17c-.01-.07-.03-.14-.04-.21-4.56.75-4.98-.04-4.98-5.5-.02-19.3,0-38.6,0-57.9,0-6.86-.06-13.72.03-20.58.06-4.33.82-5.1,5.11-5.16Z"/>
      <path class="cls-2" d="m235.58,187.39c1.53-3.08,2.99-6.19,4.64-9.2.16-.29.32-.59.45-.9,1.49-3.13,2.53-6.46,4.02-9.59,2.04-6.6,4.09-13.19,5.15-20.05.66-4.31.29-8.68,1.03-12.98v-19.54c-.53-.59-.35-1.31-.35-1.99-.03-10.1-2.46-19.72-5.78-29.16-2.46-7.1-5.85-13.77-9.25-20.44-4.41-7.53-9.24-14.76-15.25-21.14-.42-.48-.76-1.02-1.12-1.54-2.87-3.18-5.92-6.18-9.06-9.08-.52-.36-1.05-.72-1.54-1.12-6.35-6.04-13.62-10.8-21.11-15.27-6.65-3.43-13.35-6.75-20.42-9.26-4.87-1.88-9.96-3.01-15.01-4.28-5.29-1.33-10.75-1.04-16.09-1.85h-19.51c-.28.21-.57.36-.94.35-11.11-.34-21.66,2.38-32.08,5.85-3.14,1.45-6.43,2.55-9.57,4.01-.31.15-.61.29-.9.47-3.04,1.59-6.1,3.14-9.19,4.63-7.95,4.35-15.12,9.82-22.03,15.64-3.78,3.4-7.34,7.02-10.77,10.77-5.81,6.72-10.88,13.97-15.4,21.61-1.58,3.24-3.13,6.49-4.86,9.66-.16.29-.32.59-.45.9-1.49,3.13-2.53,6.46-4.02,9.59-2.27,6.78-4.17,13.65-5.23,20.74-.61,4.07-.23,8.23-.94,12.29v20.24c.44.47.35,1.06.36,1.63.06,9.81,2.46,19.15,5.59,28.35,2.54,7.25,5.94,14.11,9.44,20.93,4.57,8.08,10.07,15.48,16.19,22.44,2.87,3.32,6.07,6.3,9.22,9.35.26.2.53.4.81.57,6.9,6.3,14.57,11.53,22.58,16.28,11.61,6.29,23.77,11.08,36.8,13.51,5.34.99,5.97.53,5.98-4.79.03-26.16.03-52.32,0-78.48,0-4.99-.7-5.66-5.63-5.7-7.43-.05-14.86.02-22.29-.03-3.63-.03-4.06-.43-4.09-3.99-.06-8.72-.06-17.44,0-26.16.03-3.59.43-3.97,4.07-3.99,7.43-.06,14.86.02,22.29-.03,4.98-.03,5.62-.67,5.65-5.66.05-9.07-.37-18.16.1-27.2,1.23-23.66,13.9-40.14,38.92-43.31,10.17-1.29,20.13.31,30.17,1.32,3.19.32,4.07,1.8,4.02,4.74-.11,6.74-.01,13.49-.04,20.23-.02,4.2-.33,4.47-4.62,4.53-5.45.07-10.92-.27-16.32.86-8.25,1.73-13.51,7.23-14.72,15.58-1.12,7.75-.44,15.56-.54,23.34-.07,4.92.66,5.55,5.7,5.58,8.24.05,16.49-.02,24.73.03,3.92.02,4.21.31,3.63,4.27-1.27,8.63-2.72,17.23-3.93,25.86-.44,3.12-1.89,4.1-4.82,4.06-6.73-.09-13.47-.09-20.2,0-4.29.06-5.05.83-5.11,5.16-.09,6.86-.03,13.72-.03,20.58,0,19.3-.01,38.6,0,57.9,0,6.01.5,6.36,6.48,5.23,5.72-1.08,11.26-2.81,16.79-4.6,3.27-1.45,6.63-2.65,9.88-4.13.31-.15.62-.3.92-.48,3.5-1.85,7.06-3.57,10.57-5.38,7.3-4.4,14.2-9.35,20.66-14.91,3.78-3.4,7.34-7.02,10.76-10.77,5.9-6.86,11.12-14.21,15.62-22.07Z"/>
    </g>
  </g>
</svg>