<?xml version="1.0" encoding="UTF-8"?>
<svg id="Capa_2" data-name="Capa 2" xmlns="http://www.w3.org/2000/svg" viewBox="0 0 208.83 261.35">
  <defs>
    <style>
      .cls-1 {
        fill: #dd2c00;
      }

      .cls-2 {
        fill: #ffc400;
        opacity: .73;
      }
    </style>
  </defs>
  <g id="Capa_1-2" data-name="Capa 1">
    <g>
      <g>
        <path class="cls-1" d="m204.97,188.05c-4.78,15.83-12.8,26.7-16.83,32.08-10.16,13.54-20.51,20.92-22.69,22.45-6.4,4.49-12.31,7.42-16.67,9.3-8.74,3.87-24.31,9.39-44.34,9.31-16.64-.07-29.91-3.98-38.24-7.17,5.18-2.29,12.11-6.01,19.19-12.02,8.15-6.92,13.36-14.19,16.5-19.41-9.32-8.92-15.27-17.19-19.05-22.52-5.31-7.48-15.71-21.52-21.71-42.26-3.92-13.54-9.63-40.15-3.1-72.51,5.08-25.2,15.55-43.77,22.88-54.67,3.32-4.95,7.57-10.54,12.93-16.28,5.51-5.91,10.95-10.63,15.77-14.35,14.35,16.67,28.69,33.34,43.04,50.02l28.3,34.9c6.68,8.05,18.35,24.3,24.04,48.08,2.52,10.56,7.25,31.05,0,55.06Z"/>
        <path class="cls-2" d="m147.97,251.85c-8.12,3.72-22.66,9.13-41.53,9.48-18,.33-32.15-4.08-40.32-7.32.35-.17-.37.18,0,0-7.84-2.52-18.63-7.98-30.45-17.89-17.22-14.43-24.8-31.45-27.92-39.94C4.31,187.79-.19,173.69,0,155.86c.26-23.79,8.75-41.52,13.56-50.02,7.52-1.81,22.27-4.3,39.94,0,21.02,5.11,34.39,16.95,39.93,22.49,4.83,5.6,19.54,24.09,20.16,51.38.43,18.79-6.03,32.81-9.06,38.58-1.24,2.35-2.55,4.56-3.92,6.64.51-.73.98-1.43,1.43-2.11,5.02,4.72,11.25,9.89,18.78,14.91,9.91,6.59,19.32,11.07,27.14,14.13Z"/>
      </g>
      <path class="cls-2" d="m82.83,200.07c-5.31-7.48-15.71-21.52-21.71-42.26-3.04-10.47-7.14-28.77-5.82-51.51-.59-.16-1.19-.31-1.8-.46-17.67-4.3-32.42-1.81-39.94,0C8.76,114.34.27,132.06,0,155.86c-.2,17.83,4.31,31.93,7.74,40.32,3.12,8.49,10.7,25.5,27.92,39.94,11.8,9.89,22.59,15.35,30.42,17.88.03,0,.07.02.1.03,5.18-2.29,12.11-6.01,19.19-12.02,8.15-6.92,13.36-14.19,16.5-19.41-9.32-8.92-15.27-17.19-19.05-22.52Z"/>
    </g>
  </g>
</svg>