<?xml version="1.0" encoding="UTF-8"?>
<svg id="Capa_2" data-name="Capa 2" xmlns="http://www.w3.org/2000/svg" viewBox="0 0 180.25 205.93">
  <defs>
    <style>
      .cls-1 {
        fill: #e44e26;
      }

      .cls-1, .cls-2 {
        stroke-width: 0px;
      }

      .cls-2 {
        fill: #fff;
      }
    </style>
  </defs>
  <g id="Capa_1-2" data-name="Capa 1">
    <g>
      <path class="cls-1" d="m174.37,0c-9.82.16-19.64.05-29.47.05-46.11,0-92.23,0-138.34.02C-.03.07-.3.26.14,6.85c.65,9.79,1.49,19.57,2.37,29.35,2.49,27.66,5.09,55.32,7.57,82.98,1.8,20.04,3.51,40.1,5.17,60.15.35,4.25,2.38,6.59,6.55,7.56,5.18,1.21,10.29,2.74,15.41,4.2,17.28,4.93,34.54,9.89,51.81,14.83h2c2.05-.68,4.07-1.46,6.15-2.03,17.63-4.91,35.31-9.67,52.9-14.72,17.35-4.98,13.73-1.08,15.72-20.1,2.6-24.81,4.32-49.71,6.48-74.57,2.57-29.5,5.11-59,7.89-88.47.47-4.93-1.42-6.12-5.81-6.04Zm-28.08,45.05c-.29,2.81-.25,5.66-.51,8.47-.59,6.48-1.58,7.41-7.98,7.42-23.64.03-47.29.03-70.93.05-1.5,0-3,.03-4.49.1-2.86.14-4.22,1.63-4,4.53.29,3.82.5,7.64.85,11.45.52,5.75,1.66,6.87,7.49,6.88,21.48.05,42.96.02,64.44.01,1.5,0,3-.04,4.5-.02,6.6.1,7.09.63,6.5,7.22-1.7,19.05-3.52,38.1-5.02,57.17-.33,4.25-2.17,6.15-6.09,7.17-12.57,3.26-25.08,6.73-37.6,10.16-2.5.68-4.93.57-7.38-.12-12.34-3.46-24.67-6.98-37.04-10.3-3.91-1.05-5.83-3.11-6.13-7.27-.64-8.62-1.66-17.22-2.53-25.83-.34-3.36,1.17-5.04,4.53-5.06,4.33-.03,8.66.01,12.99-.05,3.16-.04,5.06,1.29,5.39,4.56.25,2.48.88,4.98.73,7.43-.34,5.36,2.11,8.1,7.25,8.79.82.11,1.68.25,2.42.59,11.91,5.55,23.57,3.27,35.38-.62,4.48-1.47,6.68-3.81,6.92-8.42.28-5.32.81-10.62,1.21-15.93.45-6.02.1-6.45-6.19-6.47-16.98-.05-33.97-.03-50.95-.05-5.16,0-10.32-.06-15.48,0-3.39.04-5.25-1.34-5.58-4.89-1.22-13.42-2.58-26.83-3.84-40.24-.54-5.8-.88-11.61-1.43-17.41-.5-5.3.16-6.28,5.47-6.31,16.98-.07,33.97-.03,50.95-.03v.02c16.65,0,33.3-.03,49.95.01,6.43.01,6.87.62,6.22,6.96Z"/>
      <path class="cls-2" d="m140.07,38.09c-16.65-.04-33.3-.01-49.95-.01v-.02c-16.98,0-33.97-.04-50.95.03-5.32.02-5.98,1.01-5.47,6.31.55,5.8.89,11.61,1.43,17.41,1.25,13.42,2.61,26.82,3.84,40.24.32,3.55,2.18,4.93,5.58,4.89,5.16-.06,10.32,0,15.48,0,16.98.01,33.97,0,50.95.05,6.29.02,6.64.45,6.19,6.47-.4,5.31-.93,10.61-1.21,15.93-.24,4.61-2.44,6.95-6.92,8.42-11.81,3.89-23.47,6.16-35.38.62-.74-.34-1.6-.48-2.42-.59-5.15-.69-7.59-3.43-7.25-8.79.15-2.45-.48-4.95-.73-7.43-.33-3.27-2.23-4.6-5.39-4.56-4.33.06-8.66.02-12.99.05-3.35.02-4.87,1.71-4.53,5.06.87,8.61,1.89,17.2,2.53,25.83.31,4.16,2.23,6.22,6.13,7.27,12.38,3.33,24.7,6.85,37.04,10.3,2.46.69,4.88.81,7.38.12,12.52-3.43,25.03-6.9,37.6-10.16,3.92-1.02,5.76-2.92,6.09-7.17,1.5-19.07,3.33-38.11,5.02-57.17.59-6.59.09-7.13-6.5-7.22-1.5-.02-3,.02-4.5.02-21.48,0-42.96.03-64.44-.01-5.83-.01-6.97-1.13-7.49-6.88-.35-3.81-.55-7.63-.85-11.45-.22-2.9,1.14-4.39,4-4.53,1.5-.07,3-.1,4.49-.1,23.64-.02,47.29-.02,70.93-.05,6.4,0,7.39-.94,7.98-7.42.26-2.82.22-5.66.51-8.47.65-6.34.21-6.95-6.22-6.96Z"/>
    </g>
  </g>
</svg>