<?xml version="1.0" encoding="UTF-8"?>
<svg id="Capa_2" data-name="Capa 2" xmlns="http://www.w3.org/2000/svg" viewBox="0 0 261.35 261.35">
  <defs>
    <style>
      .cls-1 {
        fill: #0769ad;
      }

      .cls-2 {
        fill: #78cff5;
      }
    </style>
  </defs>
  <g id="Capa_1-2" data-name="Capa 1">
    <g>
      <circle class="cls-1" cx="130.67" cy="130.67" r="130.67"/>
      <path class="cls-2" d="m192.81,106.6c11.73,0,22.48-3.91,30.78-10.4-8.62,11.36-22.91,18.79-39.07,18.79-26.33,0-47.68-19.71-47.68-44.03,0-13.48,6.56-25.55,16.9-33.63-5.42,7.15-8.61,15.85-8.61,25.24,0,24.32,21.35,44.03,47.68,44.03Z"/>
      <path class="cls-2" d="m223.14,136.82c-12.65,9.92-29.02,15.91-46.91,15.91-40.07,0-72.56-30.04-72.56-67.09,0-14.37,4.89-27.69,13.21-38.6-15.69,12.31-25.65,30.67-25.65,51.18,0,37.05,32.48,67.09,72.56,67.09,24.53,0,46.22-11.26,59.35-28.49Z"/>
      <path class="cls-2" d="m224.01,175.2c-18.02,17.2-42.99,27.85-70.59,27.85-54.96,0-99.51-42.24-99.51-94.35,0-16.51,4.47-32.03,12.33-45.53-17.87,17.06-28.92,40.55-28.92,66.5,0,52.11,44.55,94.35,99.51,94.35,37.54,0,70.23-19.71,87.17-48.82Z"/>
    </g>
  </g>
</svg>