<?xml version="1.0" encoding="UTF-8"?>
<svg id="Capa_2" data-name="Capa 2" xmlns="http://www.w3.org/2000/svg" viewBox="0 0 196.24 196.24">
  <defs>
    <style>
      .cls-1, .cls-2 {
        stroke-width: 0px;
      }

      .cls-2 {
        fill: #f7e024;
      }
    </style>
  </defs>
  <g id="Capa_1-2" data-name="Capa 1">
    <g>
      <path class="cls-2" d="m175.06,0H21.18C9.48,0,0,9.48,0,21.18v153.88c0,11.7,9.48,21.18,21.18,21.18h153.88c11.7,0,21.18-9.48,21.18-21.18V21.18c0-11.7-9.48-21.18-21.18-21.18Zm-72.9,152.06c0,16.26-8.43,29.66-27.1,29.66-12.92,0-21.41-5.05-27.27-15.28l12.98-9.66c3.13,5.81,7.46,8.45,11.77,8.45,6.83,0,10.52-3.49,10.52-14.76v-54.79h19.1v56.37Zm45.33,29.66c-10.99,0-22.68-4.16-31.29-12.21l10.97-13.1c6.01,5.23,13.8,8.83,20.75,8.83,7.97,0,11.87-3.14,11.87-8.15,0-5.32-4.8-7.03-12.18-10.06l-10.98-4.68c-8.75-3.56-17.05-10.75-17.05-23.03,0-14,12.51-25.18,30.09-25.18,9.73,0,19.9,3.83,27.18,11.07l-9.64,12.04c-5.57-4.27-10.86-6.62-17.53-6.62s-10.78,2.74-10.78,7.57c0,5.18,5.53,7.06,12.9,10l10.76,4.36c10.32,4.17,16.76,11.04,16.76,22.98,0,14.03-11.7,26.18-31.83,26.18Z"/>
      <g>
        <path class="cls-1" d="m82.92,150.47c0,11.27-3.69,14.76-10.52,14.76-4.31,0-8.64-2.64-11.77-8.45l-12.98,9.66c5.86,10.23,14.35,15.28,27.27,15.28,18.67,0,27.1-13.41,27.1-29.66v-56.37h-19.1v54.79Z"/>
        <path class="cls-1" d="m162.42,132.56l-10.76-4.36c-7.37-2.94-12.9-4.82-12.9-10,0-4.83,4.19-7.57,10.78-7.57s11.97,2.35,17.53,6.62l9.64-12.04c-7.28-7.24-17.45-11.07-27.18-11.07-17.58,0-30.09,11.18-30.09,25.18,0,12.27,8.29,19.47,17.05,23.03l10.98,4.68c7.38,3.03,12.18,4.74,12.18,10.06,0,5.01-3.9,8.15-11.87,8.15-6.95,0-14.74-3.6-20.75-8.83l-10.97,13.1c8.62,8.05,20.3,12.21,31.29,12.21,20.13,0,31.83-12.15,31.83-26.18,0-11.94-6.44-18.81-16.76-22.98Z"/>
      </g>
    </g>
  </g>
</svg>