<?xml version="1.0" encoding="UTF-8"?>
<svg id="Capa_2" data-name="Capa 2" xmlns="http://www.w3.org/2000/svg" viewBox="0 0 269.24 261.35">
  <defs>
    <style>
      .cls-1 {
        fill: #2a68b1;
      }

      .cls-1, .cls-2 {
        stroke-width: 0px;
      }

      .cls-2 {
        fill: #fff;
      }
    </style>
  </defs>
  <g id="Capa_1-2" data-name="Capa 1">
    <g>
      <path class="cls-1" d="m248.61,0H20.63C9.24,0,0,9.24,0,20.63v220.09c0,11.39,9.24,20.63,20.63,20.63h227.98c11.39,0,20.63-9.24,20.63-20.63V20.63c0-11.39-9.24-20.63-20.63-20.63ZM83.48,219.33c-10.78-.11-21.55-.1-32.33,0-1.9.02-2.37-.46-2.37-2.37.06-39.88.06-79.76,0-119.64,0-2.01.61-2.3,2.41-2.29,10.86.08,21.72.09,32.58,0,1.89-.02,2.37.42,2.36,2.34-.08,19.94-.05,39.88-.05,59.82,0,19.86-.04,39.71.06,59.57.01,2.17-.59,2.6-2.65,2.58Zm-15.91-144.47c-12.57.13-23.15-10.24-23.34-22.91-.2-12.75,10.36-23.48,23.21-23.59,12.66-.1,23.28,10.47,23.3,23.23.03,12.75-10.31,23.13-23.17,23.27Zm165.01,144.47c-10.69-.12-21.38-.15-32.06.01-2.38.04-2.68-.73-2.67-2.82.08-19.17.11-38.34,0-57.51-.03-5.65-.47-11.26-2.24-16.76-4.11-12.82-13.89-18.53-26.9-15.38-11.11,2.69-17.56,10.09-19.59,22.45-.69,4.18-.97,8.4-.98,12.63-.03,18.32-.04,36.65.03,54.97,0,1.8-.28,2.43-2.3,2.41-10.94-.12-21.89-.11-32.83,0-1.85.02-2.17-.55-2.17-2.26.05-39.95.05-79.91,0-119.86,0-1.84.52-2.19,2.25-2.17,10.26.09,20.53.09,30.79,0,1.84-.02,2.22.52,2.18,2.25-.12,5.13-.04,10.27-.04,15.82,10.19-13.79,24.09-18.79,39.95-19.49,8.5-.38,16.89.67,24.87,3.85,11.53,4.59,17.96,13.56,21.15,25.17,2.48,9.04,3.08,18.33,3.1,27.65.05,22.14-.02,44.28.07,66.42,0,2.09-.45,2.67-2.61,2.65Z"/>
      <g>
        <path class="cls-2" d="m86.08,157.16c0-19.94-.03-39.88.05-59.82,0-1.92-.47-2.36-2.36-2.34-10.86.1-21.72.09-32.58,0-1.8-.01-2.41.28-2.41,2.29.07,39.88.07,79.76,0,119.64,0,1.91.46,2.38,2.37,2.37,10.78-.1,21.55-.11,32.33,0,2.06.02,2.66-.41,2.65-2.58-.1-19.86-.06-39.71-.06-59.57Z"/>
        <path class="cls-2" d="m67.44,28.35c-12.85.11-23.41,10.84-23.21,23.59.2,12.67,10.77,23.04,23.34,22.91,12.86-.14,23.19-10.52,23.17-23.27-.03-12.75-10.64-23.33-23.3-23.23Z"/>
        <path class="cls-2" d="m232.03,122.6c-3.19-11.61-9.62-20.58-21.15-25.17-7.98-3.18-16.38-4.22-24.87-3.85-15.86.7-29.75,5.7-39.95,19.49,0-5.55-.08-10.69.04-15.82.04-1.73-.34-2.27-2.18-2.25-10.26.1-20.53.09-30.79,0-1.73-.01-2.25.34-2.25,2.17.06,39.95.06,79.91,0,119.86,0,1.71.31,2.28,2.17,2.26,10.94-.1,21.89-.11,32.83,0,2.02.02,2.3-.61,2.3-2.41-.07-18.32-.06-36.65-.03-54.97,0-4.23.29-8.45.98-12.63,2.03-12.36,8.48-19.76,19.59-22.45,13.01-3.15,22.79,2.56,26.9,15.38,1.76,5.5,2.21,11.11,2.24,16.76.11,19.17.07,38.34,0,57.51,0,2.09.29,2.86,2.67,2.82,10.69-.16,21.38-.14,32.06-.01,2.15.02,2.61-.56,2.61-2.65-.08-22.14-.02-44.28-.07-66.42-.02-9.32-.61-18.6-3.1-27.65Z"/>
      </g>
    </g>
  </g>
</svg>