<?xml version="1.0" encoding="UTF-8"?>
<svg id="Capa_2" data-name="Capa 2" xmlns="http://www.w3.org/2000/svg" viewBox="0 0 283.69 283.69">
  <defs>
    <style>
      .cls-1 {
        fill: #061f2a;
      }

      .cls-1, .cls-2 {
        stroke-width: 0px;
      }

      .cls-2 {
        fill: #60b456;
      }
    </style>
  </defs>
  <g id="Capa_1-2" data-name="Capa 1">
    <g>
      <path class="cls-2" d="m193.38,96.98c-10.56-30.67-32.01-54.11-51.58-79.38-11,14.28-22.33,27.79-32.29,42.24-14.52,21.06-24.41,44.28-25.98,70.13-1.93,31.76,8.64,59.7,28.83,83.88,11.98,14.35,28.35,26.07,25.23,48.26-.42,3,1.59,3.92,4.54,3.98,3.33.07,4.08-1.69,4.32-4.36.35-3.98.36-8.04,1.21-11.91,1.14-5.24-.75-11.53,4.24-15.5,7.8-6.2,14.47-13.44,20.52-21.26,27.12-35.03,35.67-73.39,20.97-116.07Zm-51.37,136.07c-3.36.07-6.05-4.18-5.76-8.97.91-15.43,1.46-30.87,2.2-46.31,1.06-22.05,2.16-44.1,3.25-66.15,1.3,11.31,1.42,22.67,2.15,34,1.64,25.26,2.5,50.56,3.67,75.85.04.8-.09,1.62.05,2.4.85,4.79-2.22,9.12-5.55,9.19Z"/>
      <g>
        <path class="cls-1" d="m147.46,221.47c-1.17-25.29-2.04-50.59-3.67-75.85-.73-11.33-.85-22.69-2.15-34-1.08,22.05-2.19,44.1-3.25,66.15-.74,15.44-1.29,30.88-2.2,46.31-.28,4.79,2.4,9.05,5.76,8.97,3.33-.07,6.4-4.4,5.55-9.19-.14-.78,0-1.6-.05-2.4Z"/>
        <path class="cls-1" d="m141.84,0C63.51,0,0,63.51,0,141.84s63.51,141.84,141.84,141.84,141.84-63.51,141.84-141.84S220.18,0,141.84,0Zm30.5,213.05c-6.05,7.82-12.72,15.06-20.52,21.26-5,3.97-3.1,10.26-4.24,15.5-.84,3.88-.86,7.93-1.21,11.91-.23,2.67-.99,4.43-4.32,4.36-2.95-.06-4.96-.97-4.54-3.98,3.12-22.19-13.24-33.91-25.23-48.26-20.19-24.18-30.77-52.12-28.83-83.88,1.57-25.85,11.47-49.07,25.98-70.13,9.96-14.45,21.29-27.95,32.29-42.24,19.56,25.27,41.01,48.71,51.58,79.38,14.7,42.68,6.15,81.04-20.97,116.07Z"/>
      </g>
    </g>
  </g>
</svg>