<?xml version="1.0" encoding="UTF-8"?>
<svg id="Capa_2" data-name="Capa 2" xmlns="http://www.w3.org/2000/svg" viewBox="0 0 272.22 184.72">
  <defs>
    <style>
      .cls-1 {
        fill: #e48e02;
      }

      .cls-1, .cls-2 {
        stroke-width: 0px;
      }

      .cls-2 {
        fill: #05618a;
      }
    </style>
  </defs>
  <g id="Capa_1-2" data-name="Capa 1">
    <g>
      <path class="cls-2" d="m51.42,119.07c-.78,2.37-1.57,4.74-2.33,7.12-4.28,13.38-8.56,26.75-12.79,40.15-.45,1.43-1.09,1.99-2.65,1.98-5.78-.02-5.83.05-7.62-5.51-4.33-13.51-8.6-27.03-12.91-40.55-.34-1.06-.7-2.1-1.45-3.16-.18,1.8-.41,3.6-.52,5.4-.82,13.82-1.52,27.64-1.68,41.48-.02,1.84-.46,2.5-2.34,2.33-1.81-.17-3.65-.09-5.48-.01-1.3.05-1.72-.45-1.66-1.73.39-8.07.63-16.15,1.12-24.21.7-11.5,1.82-22.96,3.16-34.4.2-1.71.63-2.48,2.52-2.37,2.73.17,5.49.19,8.22-.01,2.03-.15,2.75.68,3.34,2.5,4.52,13.96,9.15,27.88,13.75,41.81.15.46.34.9.7,1.85,1.09-3.18,2.05-5.91,2.96-8.66,3.93-11.87,7.86-23.73,11.73-35.62.45-1.38,1.08-1.91,2.53-1.86,2.81.09,5.63.16,8.43-.03,1.91-.13,2.14.84,2.32,2.32,1.2,10.18,2.16,20.39,2.97,30.61.73,9.18,1.15,18.37,1.56,27.56.08,1.77-.39,2.37-2.18,2.25-2.17-.14-4.36-.08-6.53,0-1.26.05-1.7-.37-1.72-1.67-.15-8.78-.51-17.56-1.13-26.32-.5-7.07-1.14-14.13-1.71-21.19-.2-.02-.39-.04-.59-.06Z"/>
      <path class="cls-1" d="m210.72,168.64c-2.59-1.08-5.03-2.49-7.59-3.65-1.26-.58-1.43-1-.34-1.99,3.25-2.96,5.24-6.71,6.63-10.84,1.79-5.32,2.25-10.83,2.36-16.4-.06-4.65-.39-9.27-1.61-13.77-1.74-6.4-4.86-11.8-11.07-14.89-14.48-7.19-31.18-.04-35.7,15.43-2.9,9.92-2.86,19.98-.37,29.96,1.88,7.53,6.09,13.23,13.91,15.53,5.01,1.47,10.09,1.66,15.18.52,1.3-.29,2.38-.2,3.56.53,2.98,1.85,6.06,3.54,9.09,5.32q4.21,2.46,6.7-1.83c.11-.18.19-.39.32-.54,1.58-1.76.79-2.59-1.09-3.38Zm-24.45-8.76c-9.12,0-16.52-10.45-16.52-23.34s7.4-23.34,16.52-23.34,16.52,10.45,16.52,23.34-7.4,23.34-16.52,23.34Z"/>
      <path class="cls-2" d="m205.56,84.04c-2.88-2.16-5.47-4.62-7.88-7.28-2.39-2.64-3.5-6.03-5.46-9.28-.95,2.31-1.01,4.47-1.34,6.57-.33,2.08-.8,4.1-3.1,4.83-2.39.76-4.25-.3-5.77-2.07-4.03-4.67-5.17-10.33-5.54-16.24-.35-5.65,1.26-10.99,2.75-16.34.26-.95.52-1.7-.28-2.49-2.5-2.48-3.99-5.59-5.25-8.8-1.29-3.26-2.53-6.55-3.43-9.95-.86-3.23-3.27-5.53-5.18-8.12-1.42-1.92-3-3.72-3.82-6.02-1.78-5,1.38-9.29,6.66-8.8,4.89.45,9.16,2.62,12.99,5.59,1.39,1.08,2.7,1.78,4.53,1.78,7.97.03,14.54,3.72,20.83,8.15,8.93,6.29,16.29,14.05,21.63,23.56,2.5,4.45,4.21,9.34,6.37,13.98,1.86,4.01,3.85,7.97,5.78,11.95.67,1.4,1.7,2.27,3.2,2.83,8.02,2.99,14.92,7.77,21.22,13.47,1.24,1.12,2.19,2.55,3.3,3.82.67.77.48,1.21-.44,1.5-1.67.52-3.34,1.1-5.11,1.21-3.1.2-6.07,1.09-9.07,1.79-1.24.29-1.04.89-.45,1.61,1.04,1.26,2.31,2.31,3.76,3.02,5.8,2.8,9.96,7.47,14.12,12.15.23.26.44.55.6.86.19.36.31.76.69,1.7-1.15-.92-1.86-1.51-2.6-2.06-3.14-2.39-6.47-4.43-10.09-6.06-4.59-2.07-8.79-4.76-11.72-9.01-2.56-3.71-2.44-3.83,1.71-5.35,3.96-1.45,8.04-1.93,12.21-1.97.57,0,1.44.37,1.65-.43.17-.65-.55-1.11-1.07-1.44-6.1-3.96-11.62-8.99-19.02-10.57-3.86-.82-6.31-3.08-7.88-6.58-2.99-6.66-6.12-13.26-9.08-19.94-5.64-12.73-14.77-22.39-26.65-29.58-5.26-3.18-10.86-4.87-16.98-4.88-1.13,0-2.1-.36-2.88-1.1-3.09-2.94-6.99-4.39-10.85-5.87-1.33-.51-2.84-.8-3.93.46-1.08,1.25-.59,2.68.12,3.94.62,1.1,1.28,2.19,2.1,3.15,4.03,4.73,6.88,10.03,8.52,16.04,1.26,4.63,2.95,9.09,6.64,12.49.98.9,1.25,2.17.8,3.51-.55,1.66-1.13,3.32-1.64,5-2.42,7.89-2.25,15.64,1.33,23.19.46.96,1.02,1.85,1.89,2.49,1.09.8,1.78.63,1.96-.83.28-2.23.58-4.46.91-6.68.41-2.8,1.78-5.13,3.59-7.26.95-1.12,1.32-1.09,1.84.33,3.14,8.58,7.64,16.41,13.21,23.63.12.4-.04.52-.42.4Z"/>
      <path class="cls-1" d="m137.18,104.77c5.51,0,10.2,1.25,14.6,3.68,1.1.6,1.52,1.08.9,2.4-1.68,3.62-1.62,3.68-5.43,2.54-3.27-.97-6.59-1.42-9.99-1.18-3.89.28-6.94,1.97-8.3,5.77-1.33,3.72.26,6.7,2.98,9.21,1.46,1.34,3.13,2.36,4.86,3.32,3.62,2.02,7.21,4.09,10.85,6.06,6.15,3.33,9.7,8.18,9.23,15.45-.46,7.07-4.06,12.12-10.42,14.87-9.76,4.21-19.07,2.46-27.91-2.97-.78-.48-.89-1-.42-1.73.04-.06.06-.13.09-.19,1.74-3.97,1.75-3.98,5.68-2.43,4.6,1.81,9.3,2.74,14.21,1.62,5.03-1.14,8.18-4.91,7.91-9.47-.2-3.48-2.29-5.9-5.02-7.63-3.84-2.45-7.88-4.59-11.83-6.88-1.46-.84-2.97-1.62-4.33-2.6-5.57-4-7.37-9.55-6.24-16.12,1.16-6.73,5.51-10.68,11.77-12.75,2.35-.78,4.8-1.04,6.79-.96Z"/>
      <path class="cls-2" d="m91.78,160.64c1.93-4.78,3.25-9.21,4.45-13.67,1.98-7.33,3.49-14.76,4.39-22.3.23-1.94.75-2.9,2.93-2.64,1.87.22,3.79.08,5.69.04,1.03-.02,1.6.21,1.35,1.43-3.33,16.41-6.93,32.74-15.58,47.4-2.48,4.21-5.5,8.01-9.61,10.76-4.3,2.89-8.93,4.02-14,2.15-1.42-.52-2.48-4.62-1.47-5.73.45-.49,1.06-.25,1.59-.21,2.19.19,4.35.18,6.46-.51,4.79-1.56,7.58-6.14,6.5-11.04-1.74-7.9-4.63-15.46-7.04-23.16-2.01-6.43-4.1-12.84-6.23-19.23-.47-1.42-.19-1.91,1.33-1.86,2.25.07,4.5.08,6.74-.01,1.23-.05,1.74.47,2.07,1.57,3.02,10.23,6.46,20.34,9.2,30.66.5,1.89.75,3.84,1.23,6.36Z"/>
      <path class="cls-1" d="m220.93,136.95c0-9.56,0-19.12,0-28.67,0-3.1-.21-2.62,2.75-2.66,1.83-.02,3.66.08,5.48-.03,1.4-.08,1.79.43,1.77,1.8-.07,4.99-.03,9.98-.03,14.97,0,12.02.05,24.04-.04,36.05-.02,1.93.57,2.34,2.38,2.3,5.2-.12,10.4,0,15.6-.07,1.46-.02,2.05.38,1.88,1.88-.22,1.86.8,4.25-.45,5.45-1.14,1.1-3.49.32-5.3.33-7.24.03-14.48-.05-21.72.05-1.81.03-2.39-.38-2.37-2.3.1-9.7.05-19.4.05-29.09Z"/>
      <path class="cls-1" d="m270.25,163.31c-.63,1.7-1.08,2.86-1.5,4.05-.18.5-.41.94-1,.9-.49-.03-.64-.47-.79-.87-.5-1.31-1-2.61-1.97-3.92,0,1.24,0,2.48,0,3.72,0,.48.08,1.05-.65,1.07-.69.02-.77-.5-.77-1-.02-1.75-.01-3.5-.02-5.26,0-.65,0-1.29.93-1.3.73,0,1.38-.01,1.69.85.45,1.24.98,2.46,1.56,3.91,1.01-1.15,1.23-2.4,1.59-3.54.36-1.14,1.07-1.34,2.08-1.21,1.12.14.75,1.02.76,1.63.05,1.61.02,3.22,0,4.84,0,.47.07,1.05-.66,1.09-.79.04-.87-.49-.91-1.1-.07-1.09.18-2.21-.37-3.84Z"/>
      <path class="cls-2" d="m183.16,19.33c1.93-1.17,3.35-.55,4.58.83,1.19,1.33,1.49,2.82.56,4.42-.34.6-.92,1.47-1.45.31-.94-2.04-2.26-3.8-3.69-5.55Z"/>
      <path class="cls-1" d="m257.95,164.81c-.25-1.09.84-3.07-1.78-2.93-.27.01-.44-.31-.43-.62.01-.32.21-.54.51-.54,1.61-.02,3.22-.02,4.83-.01.3,0,.54.15.57.48.04.41-.16.74-.55.71-1.85-.13-1.5,1.18-1.52,2.25-.01.98,0,1.96-.01,2.94,0,.57.01,1.2-.82,1.16-.8-.03-.78-.65-.79-1.22,0-.7,0-1.4,0-2.23Z"/>
      <path class="cls-2" d="m205.56,84.04c.14-.13.28-.27.42-.4,1.44,1.38,2.88,2.76,4.32,4.14-2.15-.59-3.46-2.14-4.74-3.74Z"/>
    </g>
  </g>
</svg>