<?xml version="1.0" encoding="UTF-8"?>
<svg id="Capa_2" data-name="Capa 2" xmlns="http://www.w3.org/2000/svg" viewBox="0 0 215.23 215.23">
  <defs>
    <style>
      .cls-1 {
        fill: #fff;
      }

      .cls-1, .cls-2 {
        stroke-width: 0px;
      }

      .cls-2 {
        fill: #593089;
      }
    </style>
  </defs>
  <g id="Capa_1-2" data-name="Capa 1">
    <g>
      <g>
        <path class="cls-2" d="m101.37,133.11c-1.15,0-2.16.3-3.03.89-.87.59-1.55,1.47-2.02,2.63s-.71,2.51-.71,4.06.23,2.87.7,4.02c.47,1.15,1.13,2.02,2,2.63.87.61,1.89.91,3.06.91,1.78,0,3.19-.67,4.24-2.01,1.05-1.34,1.58-3.19,1.58-5.55s-.53-4.25-1.58-5.59-2.47-2-4.24-2Z"/>
        <path class="cls-2" d="m146.08,132.81c-1.46,0-2.66.5-3.6,1.51-.94,1.01-1.51,2.5-1.71,4.48h10.63c-.14-2-.68-3.5-1.62-4.5-.94-1-2.17-1.49-3.71-1.49Z"/>
        <path class="cls-2" d="m107.62,0C48.18,0,0,48.18,0,107.62s48.18,107.62,107.62,107.62,107.62-48.18,107.62-107.62S167.05,0,107.62,0Zm-8.24,66.39c0-1.46.22-2.65.65-3.57.43-.92,1.11-1.59,2.03-2.02s2.1-.63,3.54-.63h26.8c1.62,0,2.82.36,3.61,1.08.79.72,1.18,1.66,1.18,2.82s-.39,2.14-1.18,2.85c-.79.72-1.99,1.08-3.61,1.08h-22.87v12.3h21.05c1.55,0,2.71.35,3.47,1.04.76.7,1.15,1.61,1.15,2.75s-.38,2.07-1.13,2.79c-.75.72-1.91,1.08-3.49,1.08h-21.05v14.25h23.65c1.59,0,2.8.37,3.61,1.11.81.74,1.21,1.73,1.21,2.96s-.4,2.15-1.21,2.89c-.81.74-2.01,1.11-3.61,1.11h-27.58c-2.21,0-3.8-.49-4.77-1.47-.97-.98-1.45-2.56-1.45-4.75v-37.67Zm-65.98,43.36c-1.01.92-2.2,1.38-3.57,1.38s-2.63-.46-3.66-1.37-1.54-2.19-1.54-3.83c0-1.39.49-2.59,1.47-3.59.98-1,2.19-1.5,3.62-1.5s2.66.5,3.67,1.49c1.01.99,1.52,2.19,1.52,3.61,0,1.62-.51,2.89-1.52,3.81Zm51.66,35.64c-.49,1.17-1.27,2.31-2.33,3.44-1.06,1.12-2.41,2.04-4.06,2.74-1.65.7-3.57,1.05-5.76,1.05-1.66,0-3.17-.16-4.53-.47-1.36-.31-2.6-.81-3.71-1.47-1.11-.67-2.13-1.54-3.06-2.63-.83-.99-1.54-2.09-2.13-3.32-.59-1.22-1.03-2.53-1.32-3.92-.29-1.39-.44-2.86-.44-4.43,0-2.54.37-4.8,1.11-6.81.74-2,1.79-3.72,3.17-5.15,1.38-1.42,2.99-2.51,4.83-3.25,1.85-.74,3.82-1.12,5.91-1.12,2.55,0,4.82.51,6.81,1.53,1.99,1.02,3.52,2.27,4.58,3.77,1.06,1.5,1.59,2.91,1.59,4.24,0,.73-.26,1.38-.77,1.93s-1.14.84-1.87.84c-.82,0-1.43-.19-1.84-.58s-.86-1.05-1.36-2c-.83-1.56-1.81-2.73-2.93-3.5-1.12-.77-2.51-1.16-4.16-1.16-2.62,0-4.71,1-6.26,2.99-1.55,1.99-2.33,4.82-2.33,8.49,0,2.45.34,4.49,1.03,6.11.69,1.63,1.66,2.84,2.92,3.64,1.26.8,2.74,1.2,4.43,1.2,1.83,0,3.38-.45,4.65-1.36,1.27-.91,2.22-2.25,2.87-4.01.27-.83.61-1.51,1.01-2.03.4-.52,1.05-.78,1.93-.78.76,0,1.41.27,1.96.79.54.53.82,1.19.82,1.98,0,1-.25,2.09-.74,3.25Zm3.22-40.86c0,4.4-1.82,6.6-5.47,6.6-.91,0-1.73-.13-2.46-.39-.73-.26-1.41-.68-2.05-1.25-.64-.57-1.23-1.24-1.78-2s-1.09-1.54-1.64-2.34l-19.04-29.19v29.36c0,1.91-.44,3.36-1.33,4.34s-2.03,1.47-3.42,1.47-2.59-.5-3.45-1.49c-.87-.99-1.3-2.43-1.3-4.32v-38.66c0-1.64.18-2.93.55-3.86.43-1.03,1.15-1.86,2.15-2.51,1-.65,2.08-.97,3.25-.97.91,0,1.69.15,2.34.44.65.3,1.22.7,1.71,1.2.49.5.99,1.15,1.5,1.95.51.8,1.04,1.63,1.59,2.5l19.52,29.53v-29.8c0-1.94.42-3.39,1.25-4.36.83-.97,1.95-1.45,3.37-1.45s2.61.48,3.45,1.45c.84.97,1.26,2.42,1.26,4.36v39.41Zm23.99,40.99c-.54,1.48-1.33,2.74-2.36,3.8-1.03,1.06-2.26,1.87-3.7,2.44-1.43.57-3.04.85-4.83.85s-3.37-.29-4.79-.86-2.65-1.39-3.68-2.46c-1.04-1.07-1.83-2.33-2.36-3.78-.54-1.45-.81-3.06-.81-4.82s.27-3.4.82-4.88c.54-1.47,1.32-2.74,2.34-3.78,1.02-1.04,2.25-1.85,3.7-2.42,1.45-.57,3.04-.85,4.79-.85s3.39.29,4.83.86c1.45.57,2.69,1.39,3.72,2.45,1.03,1.06,1.82,2.32,2.35,3.78s.81,3.07.81,4.83-.27,3.36-.82,4.83Zm20.76-11.61c-.49.47-1.03.7-1.6.7-.21,0-.73-.13-1.56-.4-.82-.26-1.55-.4-2.18-.4-.86,0-1.56.23-2.11.68-.54.45-.97,1.12-1.27,2.01-.3.89-.51,1.94-.62,3.17-.11,1.22-.17,2.72-.17,4.48v4.9c0,1.19-.28,2.08-.84,2.67s-1.27.89-2.13.89-1.54-.3-2.08-.9c-.54-.6-.82-1.49-.82-2.66v-16.33c0-2.63.95-3.95,2.86-3.95.97,0,1.68.31,2.11.92.43.62.67,1.53.71,2.73.7-1.2,1.42-2.11,2.16-2.73.74-.62,1.72-.92,2.95-.92s2.43.31,3.59.92c1.16.62,1.74,1.43,1.74,2.45,0,.72-.25,1.31-.74,1.77Zm8.55,11.74c.52,1.02,1.22,1.78,2.08,2.3.87.52,1.82.77,2.87.77.7,0,1.34-.08,1.92-.25.58-.16,1.14-.42,1.69-.77.54-.35,1.05-.73,1.5-1.13.46-.4,1.05-.95,1.78-1.63.3-.26.73-.39,1.29-.39.6,0,1.09.17,1.46.49.37.33.56.79.56,1.4,0,.53-.21,1.15-.62,1.86-.42.71-1.04,1.39-1.88,2.04-.84.65-1.89,1.19-3.16,1.62s-2.73.64-4.37.64c-3.77,0-6.7-1.07-8.79-3.22-2.09-2.15-3.14-5.06-3.14-8.74,0-1.73.26-3.34.77-4.82s1.27-2.75,2.26-3.81c.99-1.06,2.21-1.87,3.65-2.44,1.45-.57,3.05-.85,4.81-.85,2.29,0,4.26.48,5.9,1.45,1.64.97,2.87,2.22,3.68,3.75.82,1.53,1.22,3.09,1.22,4.68,0,1.48-.42,2.43-1.27,2.87-.85.44-2.03.66-3.57.66h-11.47c.01,1.33.28,2.51.81,3.52Zm40.93-78.26c-.87.76-2.17,1.15-3.9,1.15h-11.07v36.4c0,2.1-.47,3.65-1.4,4.67-.93,1.01-2.14,1.52-3.62,1.52s-2.73-.51-3.67-1.54c-.95-1.03-1.42-2.57-1.42-4.65v-36.4h-11.07c-1.73,0-3.02-.38-3.86-1.15-.84-.76-1.26-1.77-1.26-3.02s.44-2.32,1.32-3.08c.88-.75,2.15-1.13,3.81-1.13h32.27c1.75,0,3.06.39,3.91,1.16.85.78,1.28,1.79,1.28,3.04s-.43,2.26-1.3,3.02Z"/>
      </g>
      <g>
        <path class="cls-1" d="m83.55,59.33c-1.41,0-2.54.48-3.37,1.45-.83.97-1.25,2.42-1.25,4.36v29.8l-19.52-29.53c-.55-.87-1.08-1.7-1.59-2.5-.51-.8-1.01-1.45-1.5-1.95-.49-.5-1.06-.9-1.71-1.2-.65-.3-1.43-.44-2.34-.44-1.16,0-2.24.33-3.25.97-1,.65-1.72,1.49-2.15,2.51-.36.93-.55,2.22-.55,3.86v38.66c0,1.89.43,3.33,1.3,4.32.87.99,2.02,1.49,3.45,1.49s2.53-.49,3.42-1.47,1.33-2.43,1.33-4.34v-29.36l19.04,29.19c.55.8,1.09,1.58,1.64,2.34s1.14,1.43,1.78,2c.64.57,1.32.99,2.05,1.25.73.26,1.55.39,2.46.39,3.65,0,5.47-2.2,5.47-6.6v-39.41c0-1.94-.42-3.39-1.26-4.36-.84-.97-1.99-1.45-3.45-1.45Z"/>
        <path class="cls-1" d="m109.92,132.1c-1.03-1.06-2.27-1.88-3.72-2.45-1.45-.57-3.06-.86-4.83-.86s-3.34.28-4.79.85c-1.45.57-2.68,1.37-3.7,2.42-1.02,1.05-1.8,2.31-2.34,3.78-.54,1.48-.82,3.1-.82,4.88s.27,3.37.81,4.82c.54,1.45,1.32,2.71,2.36,3.78,1.04,1.07,2.27,1.89,3.68,2.46s3.01.86,4.79.86,3.4-.28,4.83-.85c1.43-.57,2.66-1.38,3.7-2.44,1.03-1.06,1.82-2.33,2.36-3.8.54-1.47.82-3.09.82-4.83s-.27-3.37-.81-4.83-1.32-2.72-2.35-3.78Zm-4.31,14.17c-1.05,1.34-2.47,2.01-4.24,2.01-1.17,0-2.2-.3-3.06-.91-.87-.61-1.53-1.49-2-2.63-.47-1.15-.7-2.48-.7-4.02s.24-2.9.71-4.06,1.15-2.04,2.02-2.63c.87-.59,1.88-.89,3.03-.89,1.78,0,3.19.67,4.24,2s1.58,3.19,1.58,5.59-.53,4.21-1.58,5.55Z"/>
        <path class="cls-1" d="m132.02,129.71c-1.16-.62-2.36-.92-3.59-.92s-2.22.31-2.95.92c-.74.62-1.46,1.53-2.16,2.73-.04-1.2-.28-2.11-.71-2.73-.43-.62-1.13-.92-2.11-.92-1.91,0-2.86,1.32-2.86,3.95v16.33c0,1.17.27,2.06.82,2.66.54.6,1.24.9,2.08.9s1.57-.3,2.13-.89.84-1.49.84-2.67v-4.9c0-1.76.06-3.25.17-4.48.11-1.22.32-2.28.62-3.17.3-.89.72-1.56,1.27-2.01.54-.45,1.25-.68,2.11-.68.63,0,1.36.13,2.18.4.82.27,1.34.4,1.56.4.57,0,1.11-.23,1.6-.7.49-.46.74-1.06.74-1.77,0-1.02-.58-1.83-1.74-2.45Z"/>
        <path class="cls-1" d="m83.02,139.38c-.89,0-1.53.26-1.93.78-.4.52-.74,1.2-1.01,2.03-.64,1.76-1.6,3.1-2.87,4.01-1.27.91-2.82,1.36-4.65,1.36-1.69,0-3.17-.4-4.43-1.2-1.26-.8-2.23-2.02-2.92-3.64-.69-1.62-1.03-3.66-1.03-6.11,0-3.67.78-6.5,2.33-8.49,1.55-1.99,3.64-2.99,6.26-2.99,1.65,0,3.03.39,4.16,1.16,1.12.77,2.1,1.94,2.93,3.5.5.95.96,1.61,1.36,2s1.02.58,1.84.58c.73,0,1.35-.28,1.87-.84s.77-1.2.77-1.93c0-1.33-.53-2.75-1.59-4.24-1.06-1.5-2.59-2.75-4.58-3.77-1.99-1.02-4.26-1.53-6.81-1.53-2.09,0-4.06.37-5.91,1.12-1.85.75-3.46,1.83-4.83,3.25-1.38,1.43-2.43,3.14-3.17,5.15-.74,2.01-1.11,4.28-1.11,6.81,0,1.56.15,3.04.44,4.43.29,1.39.73,2.7,1.32,3.92.59,1.22,1.3,2.33,2.13,3.32.93,1.09,1.95,1.97,3.06,2.63,1.11.67,2.35,1.16,3.71,1.47,1.36.31,2.87.47,4.53.47,2.19,0,4.11-.35,5.76-1.05,1.65-.7,3-1.61,4.06-2.74,1.06-1.12,1.84-2.27,2.33-3.44.49-1.17.74-2.25.74-3.25,0-.79-.27-1.45-.82-1.98-.54-.53-1.2-.79-1.96-.79Z"/>
        <path class="cls-1" d="m29.72,100.86c-1.44,0-2.64.5-3.62,1.5-.98,1-1.47,2.2-1.47,3.59,0,1.64.51,2.92,1.54,3.83s2.24,1.37,3.66,1.37,2.56-.46,3.57-1.38c1.01-.92,1.52-2.19,1.52-3.81,0-1.41-.51-2.61-1.52-3.61-1.01-.99-2.24-1.49-3.67-1.49Z"/>
        <path class="cls-1" d="m178.6,60.19h-32.27c-1.66,0-2.93.38-3.81,1.13-.88.75-1.32,1.78-1.32,3.08s.42,2.26,1.26,3.02c.84.76,2.13,1.15,3.86,1.15h11.07v36.4c0,2.07.47,3.62,1.42,4.65.95,1.03,2.17,1.54,3.67,1.54s2.69-.51,3.62-1.52c.93-1.01,1.4-2.57,1.4-4.67v-36.4h11.07c1.73,0,3.03-.38,3.9-1.15.87-.76,1.3-1.77,1.3-3.02s-.43-2.27-1.28-3.04c-.85-.77-2.16-1.16-3.91-1.16Z"/>
        <path class="cls-1" d="m155.81,141.5c.84-.44,1.27-1.39,1.27-2.87,0-1.59-.41-3.15-1.22-4.68-.82-1.53-2.04-2.78-3.68-3.75-1.64-.97-3.61-1.45-5.9-1.45-1.76,0-3.37.28-4.81.85-1.45.57-2.66,1.38-3.65,2.44-.99,1.06-1.74,2.33-2.26,3.81s-.77,3.09-.77,4.82c0,3.68,1.05,6.6,3.14,8.74,2.09,2.15,5.02,3.22,8.79,3.22,1.65,0,3.1-.21,4.37-.64s2.32-.97,3.16-1.62c.84-.65,1.46-1.33,1.88-2.04.42-.71.62-1.33.62-1.86,0-.6-.19-1.07-.56-1.4-.37-.33-.86-.49-1.46-.49-.56,0-.99.13-1.29.39-.73.69-1.33,1.23-1.78,1.63-.46.4-.96.78-1.5,1.13-.54.35-1.11.61-1.69.77-.58.17-1.22.25-1.92.25-1.05,0-2-.26-2.87-.77-.87-.52-1.56-1.28-2.08-2.3-.52-1.02-.79-2.19-.81-3.52h11.47c1.53,0,2.72-.22,3.57-.66Zm-15.04-2.67c.2-1.98.77-3.47,1.71-4.48.94-1.01,2.14-1.51,3.6-1.51s2.77.5,3.71,1.49c.94,1,1.48,2.5,1.62,4.5h-10.63Z"/>
        <path class="cls-1" d="m105.6,110.29h27.58c1.59,0,2.8-.37,3.61-1.11.81-.74,1.21-1.7,1.21-2.89s-.4-2.22-1.21-2.96c-.81-.74-2.01-1.11-3.61-1.11h-23.65v-14.25h21.05c1.57,0,2.73-.36,3.49-1.08.75-.72,1.13-1.65,1.13-2.79s-.38-2.06-1.15-2.75c-.76-.69-1.92-1.04-3.47-1.04h-21.05v-12.3h22.87c1.62,0,2.82-.36,3.61-1.08.79-.72,1.18-1.67,1.18-2.85s-.39-2.1-1.18-2.82c-.79-.72-1.99-1.08-3.61-1.08h-26.8c-1.44,0-2.61.21-3.54.63s-1.6,1.09-2.03,2.02c-.43.92-.65,2.11-.65,3.57v37.67c0,2.19.48,3.77,1.45,4.75.97.98,2.56,1.47,4.77,1.47Z"/>
      </g>
    </g>
  </g>
</svg>