<?xml version="1.0" encoding="UTF-8"?>
<svg id="Capa_2" data-name="Capa 2" xmlns="http://www.w3.org/2000/svg" viewBox="0 0 241.8 274.7">
  <defs>
    <style>
      .cls-1 {
        fill: #fff;
      }

      .cls-1, .cls-2 {
        stroke-width: 0px;
      }

      .cls-2 {
        fill: #009639;
      }
    </style>
  </defs>
  <g id="Capa_1-2" data-name="Capa 1">
    <g>
      <path class="cls-2" d="m234.73,63.5L128.03,1.97c-4.43-2.63-9.84-2.63-14.13,0L7.21,63.5c-4.57,2.49-7.21,7.21-7.21,12.33v123.18c0,2.49.55,4.85,1.94,7.07,1.25,2.22,3.05,3.88,5.27,5.13l106.69,61.52c4.43,2.63,9.84,2.63,14.13,0l106.69-61.52c4.43-2.49,7.07-7.21,7.07-12.33v-123.05c0-5.13-2.63-9.84-7.07-12.33Zm-52.24,121.11c0,7.34-6.51,13.3-15.52,13.3-6.51,0-14.13-2.63-18.71-8.31l-61.52-73.44v68.17c0,7.62-6.1,13.72-13.72,13.72s-13.72-6.1-13.72-13.72v-94.09c0-7.34,6.51-13.3,15.52-13.3,6.51,0,14.13,2.63,18.71,8.31l4.16,4.99,57.37,68.59v-68.31c0-7.62,6.1-13.72,13.72-13.72s13.72,6.1,13.72,13.72v94.09Z"/>
      <path class="cls-1" d="m168.77,76.8c-7.62,0-13.72,6.1-13.72,13.72v68.31l-57.37-68.59-4.16-4.99c-4.57-5.68-12.19-8.31-18.71-8.31-9.01,0-15.52,5.96-15.52,13.3v94.09c0,7.62,6.1,13.72,13.72,13.72s13.72-6.1,13.72-13.72v-68.17l61.52,73.44c4.57,5.68,12.19,8.31,18.71,8.31,9.01,0,15.52-5.96,15.52-13.3v-94.09c0-7.62-6.1-13.72-13.72-13.72Z"/>
    </g>
  </g>
</svg>