<?xml version="1.0" encoding="UTF-8"?>
<svg id="Capa_2" data-name="Capa 2" xmlns="http://www.w3.org/2000/svg" viewBox="0 0 238.54 238.54">
  <defs>
    <style>
      .cls-1 {
        fill: #12253a;
      }

      .cls-1, .cls-2 {
        stroke-width: 0px;
      }

      .cls-2 {
        fill: #50a2da;
      }
    </style>
  </defs>
  <g id="Capa_1-2" data-name="Capa 1">
    <g>
      <g>
        <path class="cls-1" d="m238.54,37.6c-.24-.44-.09-.91-.12-1.37-.09-1.47-.06-2.95-.38-4.39-2.03-9.22-6.54-16.98-13.9-22.94C217.22,3.29,209.36,0,200.32,0,146.31,0,92.3,0,38.28.02c-1.81,0-3.65,0-5.44.36C22.63,2.37,14.25,7.4,7.95,15.7,3.07,22.12.02,29.3.02,37.5,0,91.9,0,146.3,0,200.71c0,3.52.51,6.97,1.65,10.29,3.3,9.66,9.24,17.24,18.09,22.41,4.56,2.66,9.41,4.58,14.76,4.97.8.06,1.63-.13,2.41.17h164.62c.12-.12.27-.12.43-.12,4.44.13,8.6-1.11,12.6-2.85,6.9-2.99,12.61-7.56,16.93-13.75,3.75-5.39,6.33-11.26,6.9-17.9.07-.8-.14-1.62.17-2.4V37.6Zm-118.66,76.4c-3.35,6.42-8.63,10.88-15.04,14.06-7.72,3.83-16,5.27-24.53,5.46-3.8.08-7.61.14-11.37-.51-.58-.1-.8.02-.76.61.02.27,0,.54,0,.81,0,13.39-.01,26.77.02,40.16,0,.98-.26,1.2-1.21,1.2-6.01-.05-12.03-.05-18.04,0-1.05.01-1.26-.29-1.26-1.29.03-18.31.02-36.63.02-54.94,0-18.24,0-36.47-.02-54.71,0-1.02.27-1.34,1.29-1.5,6.83-1.1,13.7-1.7,20.6-1.95,5.08-.18,10.16-.34,15.24-.02,7.83.48,15.5,1.72,22.53,5.42,8.88,4.68,14.2,12.08,16.02,21.89,1.63,8.79.67,17.32-3.5,25.32Zm58.75,58.74c-5.32,2.89-11.05,4.16-17.02,4.58-7.19.5-14.24-.29-21.14-2.34-2.42-.72-4.74-1.67-6.99-2.8-.7-.35-.8-.72-.6-1.44,1.17-4.21,2.32-8.43,3.41-12.67.26-1.02.47-1.22,1.51-.68,6.63,3.45,13.67,5.41,21.19,5.26,2.77-.05,5.49-.54,7.91-2,4.96-2.99,5.52-10,1.13-13.82-2.75-2.39-6.09-3.65-9.44-4.88-4.48-1.64-8.9-3.39-12.89-6.06-3.87-2.59-7.15-5.73-9.12-10.02-2.5-5.44-2.34-11.03-.36-16.54,3.1-8.62,9.67-13.63,18.2-16,10.6-2.96,21.03-1.77,31.17,2.34,2,.81,1.99.87,1.41,2.97-1.05,3.84-2.12,7.68-3.18,11.52-.09.33-.21.65-.35,1.05-3.56-1.98-7.3-3.35-11.24-4.07-4.35-.79-8.68-1.11-12.91.76-5.64,2.49-6.31,10.3-1.32,13.72,2.87,1.97,6.04,3.31,9.29,4.46,3.62,1.28,7.17,2.73,10.51,4.63,5.56,3.16,10.02,7.34,11.95,13.64,3.27,10.66-.24,22.46-11.13,28.38Z"/>
        <path class="cls-1" d="m89.69,78.2c-6.75-1.88-13.59-1.36-20.42-.41-.88.12-1.11.47-1.11,1.34.04,6.05.02,12.1.02,18.15,0,6.09.01,12.18-.02,18.26,0,.8.19,1.15,1.04,1.29,5.28.88,10.56.84,15.84.03,3.88-.6,7.52-1.87,10.71-4.18,4.92-3.57,7.24-8.59,7.6-14.52.6-10.12-4.01-17.26-13.67-19.96Z"/>
      </g>
      <g>
        <path class="cls-2" d="m177.77,130.66c-3.34-1.9-6.89-3.34-10.51-4.63-3.25-1.15-6.42-2.49-9.29-4.46-4.98-3.42-4.31-11.23,1.32-13.72,4.23-1.87,8.56-1.55,12.91-.76,3.94.72,7.68,2.09,11.24,4.07.13-.4.25-.72.34-1.05,1.06-3.84,2.13-7.68,3.18-11.52.57-2.1.58-2.16-1.41-2.97-10.14-4.1-20.56-5.3-31.17-2.34-8.53,2.38-15.09,7.38-18.2,16-1.98,5.5-2.14,11.1.36,16.54,1.97,4.29,5.25,7.43,9.12,10.02,3.99,2.67,8.41,4.42,12.89,6.06,3.35,1.22,6.69,2.48,9.44,4.88,4.39,3.82,3.84,10.83-1.13,13.82-2.42,1.46-5.14,1.94-7.91,2-7.53.15-14.56-1.81-21.19-5.26-1.05-.54-1.25-.34-1.51.68-1.09,4.23-2.24,8.45-3.41,12.67-.2.72-.11,1.09.6,1.44,2.26,1.13,4.58,2.09,6.99,2.8,6.9,2.05,13.95,2.84,21.14,2.34,5.97-.42,11.7-1.69,17.02-4.58,10.89-5.92,14.4-17.72,11.13-28.38-1.93-6.31-6.39-10.48-11.95-13.64Z"/>
        <path class="cls-2" d="m107.31,66.73c-7.04-3.71-14.71-4.94-22.53-5.42-5.08-.31-10.17-.16-15.24.02-6.9.25-13.77.85-20.6,1.95-1.02.16-1.29.49-1.29,1.5.03,18.24.02,36.47.02,54.71s0,36.63-.02,54.94c0,1,.21,1.3,1.26,1.29,6.01-.06,12.03-.05,18.04,0,.96,0,1.21-.21,1.21-1.2-.04-13.39-.02-26.77-.02-40.16,0-.27.02-.54,0-.81-.05-.59.18-.71.76-.61,3.77.65,7.57.59,11.37.51,8.53-.19,16.81-1.62,24.53-5.46,6.4-3.18,11.69-7.64,15.04-14.06,4.17-8,5.13-16.53,3.5-25.32-1.83-9.81-7.15-17.21-16.02-21.89Zm-3.99,31.36c-.35,5.93-2.67,10.95-7.6,14.52-3.2,2.32-6.83,3.58-10.71,4.18-5.28.81-10.56.85-15.84-.03-.85-.14-1.04-.49-1.04-1.29.03-6.09.02-12.18.02-18.26,0-6.05.02-12.1-.02-18.15,0-.87.23-1.22,1.11-1.34,6.83-.95,13.67-1.47,20.42.41,9.66,2.7,14.27,9.84,13.67,19.96Z"/>
      </g>
    </g>
  </g>
</svg>