<?xml version="1.0" encoding="UTF-8"?>
<svg id="Capa_2" data-name="Capa 2" xmlns="http://www.w3.org/2000/svg" viewBox="0 0 261.35 261.35">
  <defs>
    <style>
      .cls-1 {
        fill: #97c341;
      }

      .cls-2 {
        fill: #19213c;
      }
    </style>
  </defs>
  <g id="Capa_1-2" data-name="Capa 1">
    <g>
      <rect class="cls-2" x="0" y="0" width="261.35" height="261.35" rx="69.79" ry="69.79"/>
      <path class="cls-1" d="m185.79,206.91l-20.18,20.18c-13.67,13.67-35.83,13.67-49.5,0l-71.67-71.67c-13.67-13.67-13.67-35.83,0-49.5L116.1,34.25c13.67-13.67,35.83-13.67,49.5,0l47.44,47.44c13.67,13.67,13.67,35.83,0,49.5l-44.42,44.42c-1.95,1.95-5.12,1.95-7.07,0l-17.16-17.16c-1.95-1.95-1.95-5.12,0-7.07l32.15-32.15c7.06-7.06,7.06-18.51,0-25.57l-25.07-25.07c-5.86-5.86-15.36-5.86-21.21,0l-51.49,51.49c-5.86,5.86-5.86,15.36,0,21.21l51.49,51.49c5.86,5.86,15.36,5.86,21.21,0l10.09-10.09c1.95-1.95,5.12-1.95,7.07,0l17.16,17.16c1.95,1.95,1.95,5.12,0,7.07Z"/>
    </g>
  </g>
</svg>