<?xml version="1.0" encoding="UTF-8"?>
<svg id="Capa_2" data-name="Capa 2" xmlns="http://www.w3.org/2000/svg" viewBox="0 0 223.69 189.45">
  <defs>
    <style>
      .cls-1 {
        fill: #bababa;
      }

      .cls-1, .cls-2, .cls-3 {
        stroke-width: 0px;
      }

      .cls-2 {
        fill: #fff;
      }

      .cls-3 {
        fill: #b71e1d;
      }
    </style>
  </defs>
  <g id="Capa_1-2" data-name="Capa 1">
    <g>
      <g>
        <path class="cls-3" d="m107.98,41.07s0,0,0,0c-.05-1.2.08-2.44-.19-3.59-.43-1.84.3-1.84,1.71-1.45,2.78.77,5.57,1.53,8.24,2.64,1.83.01,3.6.17,4.79,1.83,2.28,1.16,4.54,2.36,6.86,3.45,1.45.68.35,1.02-.1,1.48,1.01,1.69.48,4.05,2.34,5.37.09-.13.17-.27.27-.39,2.85-3.42,2.87-3.44,6.64-.63,2.38,1.77,4.78,3.52,6.7,5.81l.14.11c.41-.66.82-1.32,1.23-1.98-2.18-3.56-5.24-6.3-8.56-9.1,2.26-1.64,5.03-2.05,7.3-3.44h0c-.2-.74-.39-1.47-.59-2.21-2.17.75-4.34,1.51-6.91,2.4,1.06-3.37,2.63-6.26,3-9.49-1.27.81-1.36-.04-1.37-.99h0c-1.33,3.27-2.69,6.53-4.44,9.61-.61,1.07-1.03,1.48-2.33.72-2.55-1.48-5.26-2.67-8.23-4.14,3.51-2.3,6.84-4.48,10.17-6.66h0c-.88.03-1.03-.78-1.45-1.28-3.65,1.62-7.01,3.76-10.57,6.1-.24-3.82-.46-7.39-2.09-10.65-.38.19-.76.38-1.14.56h0c.65,2.91.98,5.85.93,8.83-.02,1.2-.29,1.74-1.69,1.27-3.27-1.07-6.59-1.98-10.05-3.01,2.2-2.89,5.19-4.78,7.72-7.14-.35-.3-.7-.59-1.06-.89-3.16,1.59-5.87,3.8-8.44,6.21-1.02-.54-.55-1.81-1.28-2.45-.67.07-1.28-.1-1.84-.48h0c-.43,1.24-.68-.18-1.03-.07-.04.68-.4,1.03-1.08,1.07h0c1.45,2.58,2.85,5.16,3.75,8.02.73,2.33.37,4.76,1.02,7.06h0c2,.09,1.44-1.47,1.64-2.54Z"/>
        <path class="cls-2" d="m134.66,86.73h0c-.34,4.52-.35,4.54-4.54,3.07-3.48-1.23-6.66-3.05-9.82-5.07,1.03-1.26,2.42-1.71,3.65-2.39-.36-.89-1.12-1-1.94-.97,0,0,0,0,0,0-2.54.64-2.52.64-2.02-1.94.83-4.3,1.52-8.61,1.66-13l-.16-.11h0c-1.03.1-1.97.47-2.85.99,0,0,0,0,0,0,1.23,2.77.15,5.53-.15,8.26-.18,1.66-.92,3.24-1.24,4.9-.25,1.27-.56,1.61-1.62.62-2.97-2.79-5.51-5.86-6.73-9.85l-1.97.85h0c1.25,4.89,4.77,8.23,8.1,11.78-2.81,1.87-6.31,1.94-9.07,3.78,0,0,0,0,0,0,0,0,0,0,0,0,.86.37,1.09,1.21,1.45,1.95,2.52-.1,4.52-1.94,7.19-2.26-.68,2.88-2.18,5.18-3.24,7.66.82.32,1.63.63,2.45.95,0,0,0,0,0,0,0,0,0,0,0,0,1.87-2.66,2.64-5.81,3.89-8.75.25-.59.27-1.46,1.44-.79,4.31,2.48,8.99,4.12,14.16,5.47-2.63,2.08-5.51,2.81-8.13,4.05-2.16,1.02-4.56,1.51-6.58,2.87,0,0,0,0,0,0h0c.17.51.34,1.01.5,1.52,0,0,0,0,0,0,0,0,0,0,0,0,4.85-1.88,9.53-4.11,14.36-6.99-.45,4.03-1.92,7.38-2.68,10.89h0s0,0,0,0c1.08.01,2.12.1,2.41,1.44h0s0,0,0,0c2.69-6.03,3.69-12.44,4.34-18.93t0,0c-.96,0-1.92,0-2.89,0,0,0,0,0,0,0Z"/>
        <path class="cls-2" d="m107.95,121.67h0c-1.93.12-3.5-1.29-5.96-.98,1.5-1.32,2.96-.81,4-1.52h0c.01-.63-.37-.85-.93-.9,0,0,0,0,0,0-1.98.48-3.96.96-6.46,1.56.83-1.3,1.43-2.23,2.03-3.15,0,0,0,0,0,0,0-.86-.77-.95-1.31-1.27-.11.12-.22.23-.32.36-2.51,3.33-2.52,3.37-6.48,1.94-3.36-1.21-6.71-2.47-9.88-4.94,3-.86,5.65-1.61,8.29-2.37-.16-.47-.31-.94-.47-1.41,0,0,0,0,0,0h0c-3.11.99-6.21,1.99-9.84,3.15,1.48-3.36,3.87-5.45,5.43-8.08,0,0,0,0,0,0,.03-.63-.28-1.03-.84-1.27-1.56,2.15-3.21,4.25-4.66,6.47-.75,1.15-1.22,1.44-2.33.38-2.54-2.42-4.74-5.02-5.87-8.43-.48-1.45-.41-2.22,1.33-2.51,1.73-.29,3.42-.88,5.12-1.35h0c0-.45,0-.91,0-1.36-2.16.53-4.32,1.05-6.68,1.63.24-2.62,1.66-4.58,2.73-6.68-.32-.29-.64-.59-.97-.88,0,0,0,0,0,0,0,0,0,0,0,0-7.78,7.48-7.47,15.35,1.02,21.86,10.01,7.66,21.84,10.19,34,11.66.07-.84-.68-1.26-.97-1.91h0Z"/>
        <path class="cls-3" d="m182.96,50.27c-7.08-11.89-17.58-18.51-30.16-22.35h0c-1.42.93.2,2.05-.2,3.05,2.48,1.05,4.97,2.1,8.05,3.4-1.96.52-3.33.89-4.7,1.25,0,0,0,0,0,0,0,0,0,0,0,0,.08.59-.03,1.24.59,1.64h0c1.74-.45,3.48-.89,5.4-1.39-.78,1.37-1.43,2.52-2.09,3.67.07.87.42,1.49,1.39,1.57q2.61-5.42,7.63-2.01c4.18,2.85,8.07,6.04,11.55,10.2-7.73.88-15.19,1.58-22.46,3.49,0,.83.02,1.66.02,2.5h0c8.24-1.69,16.4-3.76,24.98-5.01Z"/>
        <path class="cls-3" d="m120.56,20.79s0,0,0,0c-2.6-.38-5.19-.76-7.79-1.14-1.29-.28-2.59-.57-3.88-.85h0c-.99.08-1.95.05-2.84-.47,0,0,0,0,0,0,0,0,0,0,0,0-.82-.02-1.64-.05-2.45-.07-.14,1.4-1.56,1.3-2.31,1.98.78,2.38,1.56,4.75,2.34,7.13.09-.01.18-.03.27-.06.55.03,1.07.16,1.56.4-.49-2.39-1.71-4.56-2.48-7.19,4.32.8,8.43,1.43,12.47,2.35,1.49.34.44.76-.02,1.16.46.24.8.57.93,1.07,1.01-.45,2.06-3.1,3.02-.04.28-.4.63-.64,1.13-.61-.15-.52-.14-.88.71-.73,5.25.98,10.51,1.93,15.86,3.4-1.19.62-2.38,1.24-3.56,1.87.54.32.9.84,1.24,1.38,1.64-1.04,3.3-2.04,5.16-2.66-.15-1.23-1.32-1.46-2.05-2.13-.77-.7-.96-1.31.36-1.54h0c-4.19-1.27-8.56-1.59-12.83-2.45h0c-1.6-.32-3.28-.18-4.83-.81,0,0,0,0,0,0Z"/>
        <path class="cls-3" d="m106.09,55.32h0c.45-1.04.96-1.8,2.19-.78.73.61,1.57,1.08,2.53,1.73-1.21.99-2.28,1.87-3.35,2.74.32.47.65.94.97,1.42.29.06.45.23.43.54.63.24,1,.68,1.01,1.38.65-.69,1.42-1.3,1.94-2.08,1.16-1.75,1.86-1.14,2.54.34.7,1.52,1.51,3,1.35,4.76.68-.27,1.37-.54,2.05-.82,0,0,0,0,0,0,0,0,0,0,0,0-.04-.07-.09-.15-.14-.21-.74-2.02-.48-4.29-1.59-6.21-3.69-.86-4.7-2.14-4.66-5.89-.89-.67-1.78-1.33-2.78-2.08,3.25-3.18,6.65-6.04,10.28-8.79.56,1.17-.46,2.05-.3,3.05.13,1.24,1.06,1.08,1.9,1.07.89-1.4.59-3.3,1.7-4.61-1.29-1.3-2.99-1.53-4.69-1.71-.06-.02-.13-.04-.19-.06-2.98,2.83-5.97,5.66-9.16,8.68-.16-1.63.15-3.13.15-4.57-.27.57-.8.85-1.94.41.17,3.81-.74,7.46-1.74,11.09.59,0,1.17,0,1.49.62Z"/>
        <path class="cls-2" d="m133.6,62.41s0,0,0,0c2.07,1.34.92,3.6,1.43,5.39.35,1.24.83,3.32-.38,4.02-1.18.68-2.51-.94-3.68-1.67-2.37-1.48-4.65-3.1-6.97-4.67-.94-.18-1.61.42-2.36.78.08.08.15.17.21.26,3.93,2.19,7.86,4.39,11.79,6.58,1.52.85.43,1.43-.28,1.85-2.42,1.44-4.9,2.78-7.34,4.18-1.09.63-2.32,1-3.36,1.72.65.11,1.2.4,1.47,1.16-.02.09-.04.18-.07.26,3.82-1.75,7.07-4.5,10.97-6.63.22,3.83.21,7.34-.33,10.83.08-.06.17-.12.26-.16.93-.3,1.82-.34,2.59.38h0c.15-.37.42-.74.44-1.11.14-4.88,1.05-9.76.46-14.62-.39-3.22-.17-6.56-1.45-9.65h0c-1.17.25-2.36.41-3.4,1.07Z"/>
        <path class="cls-3" d="m136.59,58.2c-4.25,1.3-8.59,2.37-12.62,4.32h0,0c-1.61,2.01-3.7,2.53-6.12,2.04,0,.03,0,.06-.01.09-.54.8-1.28,1.05-2.2.77,0,0-.01-.02-.02-.03-4.36,1.78-8.72,3.54-13.06,5.34-.75.31-1.48.55-2.29.42,0,0,0,0-.01.01h0s0,0,0,0c0,0-.02,0-.02-.01-.35,1.37.9,1.96,1.41,2.92h0s0,0,0,0c.17.01.35.02.52.03,1.17-.75,2.45-1.25,3.78-1.61h0c.24-.09.47-.19.71-.28.02-.09.03-.17.05-.26.5-.84,1.2-1.22,2.18-.96.06.06.11.13.17.19,3.07-1.4,6.18-2.73,9.38-3.79,0-.06,0-.12-.01-.18.66-1.21,1.72-1.4,2.95-1.13.06.03.11.08.17.12.33-1.21,1.37-1.12,2.33-1.15.18.08.35.17.53.26,2.95-1.32,6.05-2.15,9.19-2.89h0s0,0,0,0c0,0,0,0,0,0-.02-.07-.03-.14-.04-.21.92-1.19,2.07-1.5,3.44-.86,0-.11.04-.22.08-.33-1.87-.64.13-1.95-.49-2.8Z"/>
        <path class="cls-1" d="m121.51,66.32s.08-.04.12-.06c-.03-.02-.06-.04-.09-.07-.01.04-.02.08-.03.12h0Z"/>
        <path class="cls-2" d="m115.77,5.67h0s0,0,0,0c.39,1.47.74,2.96,1.18,4.41.35,1.15-.07,1.56-1.15,1.36-1.18-.21-2.35-.53-3.52-.8,0,.66.24,1.38-.46,1.87,0,0,0,0,0,0,0,0,0,0,0,0,1.63.35,3.27.7,5.04,1.07.04-.03.04-.08.01-.13-.12-.23.11,0,.06.15.15.03.3.06.45.1-2.69,1.71-5.53,2.87-7.95,4.7,1.07.23,2.15.46,3.24.63.04-.12.15-.23.33-.35.96-.57,1.82-1.32,2.8-1.83,1.03-.53,1.92-2.56,2.82-1.68,1.41,1.38,2.08,3.51,3.06,5.32-.02,0-.03,0-.05.01,1.31.16,2.67.13,3.75,1.12,0,0,0,0,0,0-.35-.53-.72-1.05-1.06-1.58-2.91-4.51-4.72-9.57-7.14-14.32h0s0,0,0,0c-.47-.01-.94-.02-1.41-.04Z"/>
        <path class="cls-2" d="m129.68,107.9c-.45,2.13-1.74,2.43-3.58,1.93-3.94-1.08-7.9-2.13-11.85-3.18,0,.55.06,1.12-.52,1.46,0,0,0,0,0,0,0,0,0,0,0,0,4.34,1.83,8.98,2.28,14.06,3.06-3.02,1.02-5.62,1.89-8.22,2.77,0,.46,0,.92,0,1.37,2.3-.14,4.16-1.52,6.28-2.16.57-.17,1.13-.94,1.72-.42.61.53-.06,1.17-.19,1.76-.14.62-.32,1.23-.47,1.84.69-.09,1.3.12,1.87.48,1.76-3.61,3.36-7.27,4.42-11.15-.82-.43-1.71-.75-2.44-1.33-.37,1.19-.83,2.36-1.08,3.58Z"/>
        <path class="cls-3" d="m157.57,53.06c.05-.08.09-.16.14-.23-2.26.43-4.53.85-7.01,1.32,1.69-1.85,3.26-3.56,4.83-5.27-.88-.34-1.06-1.22-1.46-1.93-1.89,2.3-3.8,4.58-5.66,6.9-.61.76-1.12,1.14-1.58.35-.19.65-.55,1.2-1.18,1.59-.07.01-.14.01-.21.01.56.95-.31,1.88-.11,2.82h0c4.21-1.12,8.42-2.23,12.63-3.35h0c-.69-.64-.64-1.42-.41-2.22Z"/>
        <path class="cls-3" d="m92.91,77.95c3.02-.8,5.67-2.44,8.46-3.75-1-.8-2.06-1.58-1.19-3.08-.48-.3-.96-.59-1.44-.89-1,.61-2,1.22-3.48,2.13,1.07-1.42,1.83-2.43,2.59-3.43h0c-.18-.49-.48-.87-.95-1.1h0c-2.15,2.41-4.3,4.82-6.45,7.22,1.06.77,2.21,1.46,2.47,2.9Z"/>
        <path class="cls-3" d="m140.1,27.66c-.07.06-.14.12-.21.18-.13,1.02-.26,2.04-.39,3.06.46.3.96.54,1.38.89.4-4.09.44-4.09,4.59-2.91,2.22.63,4.44,1.3,6.66,1.95-.02-.04-.04-.08-.06-.12-.01-1-1.32-2.34.73-2.78-4.71-1.85-9.59-3.08-14.59-3.87h0c-.37,1.72,2.25,1.88,1.89,3.6Z"/>
        <path class="cls-3" d="m97.27,21.27h0c-.86-.91-1.71-1.82-2.95-3.14,2.55.77,4.66,1.41,6.75,2.05.55-.93,1.53-1.37,2.36-1.97-.44-.15-.87-.3-1.31-.45,0,0,0,0,0,0,0,0,0,0,0,0-3.63-.4-7.14-1.31-10.58-2.53,0,0,0,0,0,0,0,0,0,0,0,0-1.28-.42-2.49-.93-3.08-2.27,0,0,0,0,0,0-.84,1.13-.1,1.96.6,2.71,2.3,2.45,4.62,4.87,7.23,7.01.62-.26.97-.72.97-1.41Z"/>
        <path class="cls-3" d="m98.07,68.65c2.79-3.35,6.54-5.48,10.02-7.97-.01-.01-.02-.02-.03-.04-.39-.45-.81-.9-.85-1.52-1.32.53-2.15,1.83-3.73,2.61.81-2.39,2.25-4.17,2.6-6.36-.59-.01-1.09-.21-1.49-.66-1.98,4.72-4.7,9.01-7.71,13.13h0c.7-.13,1,.28,1.19.82Z"/>
        <path class="cls-3" d="m88.42,80.77s.08-.05.13-.07c0,0,0,0,0,0,1.05-.72,2.13-1.36,3.37-1.71,0,0,0,0,0,0h0c.31-.32.61-.64.92-.96-.98-.84-1.89-1.74-2.4-2.98-3.54,3.23-7.07,6.45-10.61,9.68h0c2.12-.89,3.95-2.31,5.99-3.34.82-.41,1.65-1.16,2.61-.63Z"/>
        <path class="cls-2" d="m98.69,13.01c.56-.03.97-.24.97-.89-.42-.56-.84-1.12-1.51-2,1.38.19,2.42.34,3.45.48h0s0,0,0,0c.75-.17,1.65-.24.99-1.4-1.19-.11-2.38-.2-3.82-.88,2.93-1.32,5.33-3.16,8.18-4.14,0-.43-.16-.77-.55-.99,0,0,0,0,0,0,0,0,0,0,0,0-3.17,1.01-6.28,2.17-9.15,3.89-.32,1.02-.64,2.03-.96,3.05.8.96,1.6,1.92,2.39,2.88Z"/>
        <path class="cls-3" d="m145.35,55.8c-.12-.01-.25-.05-.36-.1,0,0-.01,0-.02-.01-2.76.83-5.52,1.66-8.28,2.49.72.81.17,1.91.39,2.83,2.82-.56,5.58-1.34,8.26-2.38h0c-.73-.96-.44-1.89,0-2.83Z"/>
        <path class="cls-1" d="m145.35,55.8s.07,0,.1,0c-.02-.03-.04-.07-.06-.1-.01.03-.03.06-.04.09Z"/>
        <path class="cls-2" d="m96.01,10.27c-.03-.07-.06-.13-.09-.2-.13-1.26.61-2.12,1.34-3-3.24,1.49-6.61,2.8-8.79,5.88,0,0,0,0,0,0,1.25.3,2.01,1.51,3.25,1.84.81-2.09,2.3-3.54,4.29-4.53Z"/>
        <path class="cls-2" d="m124.07,123.61s0,0,0,0c0,0,0,0,0,0-.86.65-1.72.36-2.69.19-4.28-.76-8.58-1.38-12.87-2.05.52.45.89.97.42,1.82,4.98.86,9.96,1.66,15.04,1.38.17-.44.74-.84.11-1.34Z"/>
        <path class="cls-2" d="m107.2,4.04s-.05.04-.07.06c1.93-.77,3.87-1.49,5.77-2.33,1.52-.67,2.41-.67,2.38,1.36-.01.81.29,1.62.46,2.43.02-.02.03-.05.06-.07.5-.23.96-.16,1.37.21-.44-1.53-.92-3.05-1.31-4.59-.24-.94-.56-1.37-1.66-.95-2.6,1-5.33,1.67-7.8,3.02.77-.18.79.33.8.86Z"/>
        <path class="cls-3" d="m102.5,27.45s.08-.02.12-.03c-1.35-2.28-2.89-4.4-5.08-5.95-.02.76-.25,1.34-1.25,1.21,1.76,1.95,3.51,3.9,5.27,5.85h0c.19-.47.55-.78.94-1.08Z"/>
        <path class="cls-2" d="m126.87,116.46c-.91,2.33-1.82,4.66-2.73,7,.84.41.69.92-.17,1.5,1.31.07,1.47-1.11,1.87-1.87,1.07-2.05,1.98-4.18,2.95-6.28,0,0,0,0,0,0,0,0,0,0,0,0-.71.24-1.35.11-1.92-.34Z"/>
        <path class="cls-2" d="m75.01,90.56c.5-1.23,1.49-2.08,2.44-2.98.58-.55,1.37-.93,1.73-1.69.05-.13.1-.27.14-.41-1.95,1.36-4.03,2.56-5.42,4.57.6-.15.92.09,1.11.5Z"/>
        <path class="cls-1" d="m75.07,90.7s-.04-.1-.06-.14c-.05.12-.1.25-.14.38h0s0,0,0,0c.06-.08.13-.16.2-.24Z"/>
        <path class="cls-1" d="m161.26,36.26c.11-.15-.25-.29-.04-.09.03.03.04.06.04.09Z"/>
        <path class="cls-1" d="m146.62,53.73h0c.07.19.14.35.22.47.05-.16.08-.32.11-.48-.1,0-.21.01-.32,0Z"/>
        <path class="cls-1" d="m144.86,55.59s.07.06.11.09c.09-.03.19-.06.28-.08-.13,0-.26,0-.39,0Z"/>
        <path class="cls-1" d="m136.59,58.2s.07-.02.1-.03c0,0-.02-.02-.02-.03-.02.02-.05.04-.07.06Z"/>
        <path class="cls-1" d="m140.87,31.79s0,.07-.01.11c.03-.02.05-.04.07-.05-.02-.02-.04-.04-.06-.05Z"/>
        <path class="cls-1" d="m152.12,30.83c.05.12.11.23.18.33.1-.05.2-.11.3-.19h0s0,0,0,0c-.16-.05-.32-.09-.48-.14Z"/>
        <path class="cls-1" d="m134.73,30.39s-.06.04-.09.06c.04,0,.07-.01.11-.02,0-.01-.02-.02-.02-.04Z"/>
        <path class="cls-1" d="m139.49,30.9s-.01,0-.02-.01c0,0,0,.02.02.02h0s0,0,0-.01Z"/>
        <path class="cls-1" d="m139.88,27.83s0-.07.01-.11c-.03.06-.06.11-.09.17.02-.02.05-.04.08-.06Z"/>
        <path class="cls-1" d="m120.56,24.47s-.04,0-.06,0c.01.05.03.1.04.15.06,0,.12.01.17.01-.05-.05-.1-.11-.15-.16Z"/>
        <path class="cls-1" d="m133.3,28.9c-.04.08-.08.16-.1.26.1-.05.2-.1.3-.16-.06-.04-.13-.07-.19-.11Z"/>
        <path class="cls-1" d="m119.34,25.12s0,0,0,0c.02.02.04.03.06.05h0s-.02-.06-.03-.1c0,.01-.02.02-.03.04Z"/>
        <path class="cls-1" d="m116.34,25.12s-.03.01-.04.02c.01,0,.03,0,.04,0,0,0,0,0,0-.01Z"/>
        <path class="cls-3" d="m124.47,50.87c1.47-.8,2.93-1.65,5.12-2.15-.27-.95-.33-2-.6-2.96.04-.07.05-.14.08-.21-1.85.99-3.71,1.99-5.56,2.98.32.78.65,1.56.97,2.34Z"/>
        <path class="cls-3" d="m120.8,63.39s-.05-.08-.08-.12c-.1.02-.2.05-.3.07.07-.07.15-.14.22-.22-.46-.98.99-1.84,1.74-2.51,3.26-2.94,5.79-6.56,8.99-9.55-1.02-.56-1.48-1.36-1.75-2.26-3.66,5.66-7.72,10.42-11.73,15.21.02.17,0,.34-.02.51,1.11-.31,2.3-.46,3.4-.81-.16-.05-.31-.15-.45-.32Z"/>
        <path class="cls-1" d="m117.75,64.54s.07.01.1.02c0-.02,0-.03,0-.05-.04.01-.07.02-.11.03Z"/>
        <path class="cls-1" d="m131.42,51.09s.02,0,.02,0c.06-.1.13-.19.19-.28-.09.08-.18.17-.27.26.02.01.03.02.05.03Z"/>
        <path class="cls-1" d="m121.25,63.71c.8.26,1.85-.78,2.72-1.19-.26.06-.52.12-.78.18-.58.48-1.24.79-1.93,1.01Z"/>
        <path class="cls-1" d="m105.45,27.72c.02.1.05.19.06.29.02-.08.04-.15.06-.23-.04-.02-.08-.04-.12-.06Z"/>
        <path class="cls-1" d="m115.41,24.05s-.06-.03-.09-.05c-.03.08-.06.16-.08.25.03-.07.09-.13.17-.2Z"/>
        <path class="cls-3" d="m108.61,41.37c-.15-.12-.36-.23-.63-.3h0c.24.7.31,1.41.3,2.13.2-.42.26-1,.32-1.57,0-.08,0-.17,0-.25Z"/>
        <path class="cls-1" d="m117.13,39.05c.05.01.1.03.15.04.15-.14.3-.28.45-.43-.21.12-.4.25-.6.38Z"/>
        <path class="cls-1" d="m122.42,41.02c.03-.17.07-.35.1-.52-.14.11-.25.24-.36.36,0,0,.02.01.02.02.08.05.16.09.23.14Z"/>
        <path class="cls-1" d="m129.06,45.55c.07-.04.15-.08.22-.12-.06,0-.12,0-.18,0-.01.04-.03.08-.05.13Z"/>
        <path class="cls-3" d="m144.85,39.01s.02,0,.03.01c.5.51.69,1.13.74,1.81.27-.33.61-.58,1.02-.69,3.15-.81,6-2.67,9.33-2.87-.36-.34-.44-.8-.38-1.33.01-.04.03-.07.04-.1-2.28,1.63-5.16,1.61-7.64,2.69-.98.42-2.02.88-3.15.48Z"/>
        <path class="cls-1" d="m145.63,40.95s0-.08,0-.12c-.09.11-.18.24-.26.37.07-.02.13-.05.2-.07.02-.06.05-.11.07-.17Z"/>
        <path class="cls-1" d="m156.13,37.4c.13-.05.27-.1.4-.14h0c-.19,0-.37,0-.55.02.05.04.09.08.15.12Z"/>
        <path class="cls-1" d="m144.78,38.98s0,0,0,0c.02,0,.05.01.07.02-.02,0-.04-.01-.07-.02Z"/>
        <path class="cls-1" d="m155.64,35.85c.1-.07.21-.15.31-.23-.08.02-.16.04-.24.06-.02.05-.04.11-.06.17Z"/>
        <path class="cls-1" d="m103.62,27.38s-.05,0-.07,0c.04.05.08.1.12.14h0c-.02-.05-.03-.1-.05-.15Z"/>
        <path class="cls-1" d="m101.29,20.25c-.07-.02-.14-.04-.22-.07-.01.02-.03.05-.04.07.09,0,.17,0,.26,0Z"/>
        <path class="cls-1" d="m102.62,27.43s.01.02.02.03c0-.01,0-.02,0-.04,0,0-.01,0-.02,0Z"/>
        <path class="cls-1" d="m97.27,21.27c.1.07.19.14.28.2,0-.04,0-.08,0-.12-.09-.03-.19-.06-.28-.08Z"/>
        <path class="cls-2" d="m130.77,104.32s.02-.07.04-.11c-.03.02-.06.04-.09.06.02.02.04.03.06.05Z"/>
        <path class="cls-1" d="m106.95,72.09c-.1.04-.2.08-.3.12-.02.1-.03.2-.04.29.12-.13.23-.27.34-.41Z"/>
        <path class="cls-2" d="m134.66,86.73c.01-.07.02-.15.03-.22-.05.03-.08.07-.12.11.03.04.05.07.09.11Z"/>
        <path class="cls-1" d="m124.03,82.36s.02-.04.02-.06c-.03.01-.06.03-.09.04.02,0,.04.01.07.02Z"/>
        <path class="cls-1" d="m121.92,66.75s-.01-.1-.02-.15c-.02-.03-.04-.05-.06-.08-.06-.03-.12-.07-.18-.1.08.11.16.22.25.32Z"/>
        <path class="cls-1" d="m122.02,81.37h0c.2-.19.41-.35.63-.5-.18-.03-.36-.05-.55-.05-.06.16-.09.33-.08.55Z"/>
        <path class="cls-1" d="m109.08,71.21s-.02-.02-.03-.03c-.04.02-.09.04-.13.06.05,0,.1-.02.15-.03Z"/>
        <path class="cls-1" d="m118.66,67.31h0c-.08.02-.15.05-.23.08,0,.02,0,.04,0,.06.07-.05.15-.09.22-.13Z"/>
        <path class="cls-2" d="m98.18,88.04c.47-1.37,1.19-2.63,1.96-3.85.02-.03.04-.06.05-.09-.66-.27-1.33-.54-1.99-.8-1.53,1.94-2.97,3.95-3.85,6.29.59,1.09,1.71,1.81,2.24,2.95.07-.02.13-.05.2-.07,2.78-.52,5.41-1.51,8.08-2.39.69-.23,1.37-.6,2.12-.55-.54-.48-.9-1.09-1.12-1.8-1.77,1.44-3.98,1.81-6.1,2.3-1.49.34-2.1-.5-1.6-1.98Z"/>
        <path class="cls-2" d="m107,89.52c.07.06.14.12.21.18.08-.03.15-.07.23-.1,0,0,0,0,0,0h0c-.15-.05-.29-.07-.43-.08Z"/>
        <path class="cls-2" d="m105.88,87.72s.07-.05.1-.07c-.04.01-.07.02-.11.03,0,.01,0,.03.01.04Z"/>
        <path class="cls-2" d="m110.17,104.64c.04-.31.13-.63.4-.78,2.66-1.5,5.31-3.04,8.4-3.52-.38-.36-.57-.81-.6-1.33-1.64,1.35-3.74,1.69-5.66,2.39-1.17.43-1.78-.16-1.31-1.36.54-1.37,1.01-2.82,2.16-3.85-.86-.05-1.57-.45-2.21-1.03-.58,3.02-2.09,5.53-4.25,7.68.91.79,1.85,1.55,3.07,1.81Z"/>
        <path class="cls-2" d="m119.01,100.38s.08-.05.12-.07c-.05,0-.1.02-.16.03.01.01.02.03.04.04Z"/>
        <path class="cls-2" d="m113.72,96.19c.04-.08.07-.16.11-.25-.1.08-.19.16-.28.24.06,0,.11,0,.17,0Z"/>
        <path class="cls-2" d="m118.37,99.01c.09-.07.17-.14.25-.22-.09.03-.18.06-.27.09,0,.05,0,.09.01.13Z"/>
        <path class="cls-2" d="m111.31,95.12s.02.02.04.03c.01-.05.03-.11.04-.16,0,0,0,0,0,0,0,0,0,0,0,0-.02.04-.05.09-.07.13Z"/>
        <path class="cls-2" d="m107.95,121.67c.19.03.37.06.56.09-.11-.09-.22-.18-.34-.27-.07.06-.15.12-.22.19Z"/>
        <path class="cls-2" d="m126.87,116.46s.03-.09.05-.13c-.03.03-.06.07-.1.1.01.01.03.02.04.03Z"/>
        <path class="cls-1" d="m124.07,123.61l.06-.16s-.03-.02-.05-.02c0,.06,0,.12-.01.18Z"/>
        <path class="cls-2" d="m105.98,118.16c.2.2.29.46.25.81,1.4-1.06,3.17-1.11,4.77-1.45,2.85-.61,5.46-2.14,8.44-2.22-.02-.02-.04-.03-.06-.05-.16-.34-.2-.67-.14-1-.3.27-.63.49-1.03.61-4.05,1.19-8.01,2.75-12.22,3.3Z"/>
        <path class="cls-2" d="m105.79,118.01c-.24.09-.49.17-.73.26,0,0,0,0,0,0,.31-.03.61-.06.92-.1-.06-.06-.12-.11-.19-.15Z"/>
        <path class="cls-2" d="m119.31,114c-.03.08-.05.17-.07.25.12-.1.23-.21.34-.33h0c-.09.03-.18.05-.27.08Z"/>
        <path class="cls-2" d="m106.21,119.13c.01-.06.02-.1.02-.16-.08.06-.16.12-.24.19h0c.07-.01.14-.03.22-.04Z"/>
        <path class="cls-2" d="m119.48,115.34s.07-.03.11-.04c-.05,0-.1,0-.15,0,.01.01.03.03.04.04Z"/>
        <path class="cls-2" d="m104.9,110.31c-.2-.48-.58-.82-1.02-1.11-1.59,1.86-2.29,4.39-4.26,5.98.65.08,1.11.37,1.28,1.02,1.15-1.99,2.56-3.81,3.87-5.69.04-.06.08-.12.13-.19Z"/>
        <path class="cls-2" d="m100.94,116.39c-.01-.07-.02-.14-.04-.2-.09.16-.19.32-.28.49h0c.11-.09.21-.19.31-.28Z"/>
        <path class="cls-2" d="m99.46,115.16c-.05.08-.09.16-.14.24.1-.07.2-.15.3-.23-.05,0-.11,0-.16-.01Z"/>
        <path class="cls-2" d="m99.57,107.4c-.1-.36-.27-.69-.52-.98-.11.04-.22.08-.34.12-2.71.61-5.09,2.38-7.96,2.44.37.34.56.75.46,1.25,2.52-1.63,5.5-1.95,8.29-2.81.02,0,.05-.01.07-.01Z"/>
        <path class="cls-1" d="m90.66,108.9c-.06.03-.13.05-.19.08.09,0,.18,0,.28,0-.03-.03-.05-.05-.08-.08Z"/>
        <path class="cls-1" d="m91.18,110.33s.02-.07.03-.11c-.09.06-.18.11-.26.17h0c.08-.02.16-.04.24-.07Z"/>
        <path class="cls-2" d="m90.12,96.53c-1.51,2.06-2.63,4.43-4.69,6.06.52.12.81.43.93.88,1.27-2.33,3.27-4.11,4.76-6.27-.33-.22-.62-.53-1-.67Z"/>
        <path class="cls-1" d="m86.41,103.72c0-.08-.02-.16-.04-.24-.1.19-.21.38-.3.57h0c.12-.11.23-.22.35-.34Z"/>
        <path class="cls-1" d="m85.36,102.58c-.05.07-.09.13-.14.2.08-.06.14-.12.22-.18-.03,0-.05-.01-.08-.02Z"/>
        <path class="cls-2" d="m86.36,94.38s-.02,0-.04.01c-2.45.44-4.7,1.86-7.3,1.61.22.39.23.79.08,1.21,2.42-1.19,5.06-1.61,7.65-2.24-.13-.2-.26-.39-.39-.59Z"/>
        <path class="cls-1" d="m79.03,96s-.02-.04-.03-.06c-.01,0-.02,0-.03-.01-.05.02-.1.04-.15.06h0c.07,0,.14.01.21.02Z"/>
        <path class="cls-1" d="m79.05,97.32s.03-.03.04-.05c0-.02.01-.05.02-.07-.1.05-.2.09-.29.14h0c.08,0,.15-.02.23-.02Z"/>
        <path class="cls-1" d="m157.71,52.83c.08-.01.16-.03.24-.04-.05-.03-.1-.05-.15-.07-.03.04-.06.08-.09.12Z"/>
        <path class="cls-3" d="m154.18,46.86c.73.44,1.16,1.1,1.44,1.88,1.52-2.67,3.26-5.17,5.39-7.39-.83.05-1.25-.42-1.48-1.14-1.27,2.61-3.14,4.76-5.34,6.65Z"/>
        <path class="cls-1" d="m159.52,40.21c.11-.22.22-.44.32-.67-.12.16-.25.32-.37.48.02.06.03.13.05.19Z"/>
        <path class="cls-1" d="m154.15,46.85s-.06.07-.08.11c.04-.03.07-.06.11-.09,0,0-.01,0-.02-.01Z"/>
        <path class="cls-1" d="m161.1,41.34c.04-.08.08-.15.12-.23-.08.08-.15.16-.22.24.03,0,.07,0,.1-.01Z"/>
        <path class="cls-1" d="m155.62,48.74s-.06.1-.09.15c.03-.03.07-.07.1-.1,0-.02-.01-.03-.02-.05Z"/>
        <path class="cls-2" d="m89.24,85.55c.13,1.45.52,2.82,1.05,4.16.99,2.53.77,3.01-1.7,3.92-.55.2-1.1.37-1.65.55.15.17.19.42.17.71.61-.14,1.21-.31,1.83-.35,1.49-.09,1.92.5,1.34,1.71.48-.04.79.27,1.04.69,1.26-1.46,2.38-1.59,3.83.06,1.92,2.17,4.35,3.8,6.72,5.46,1.81,1.26,1.74,2.11-.22,3.03-.71.34-1.47.56-2.22.8.41.22.54.58.44,1.05.81-.17,1.59-.45,2.39-.68.75-.22,1.64-.72,2.25-.03.73.83-.07,1.62-.46,2.37,0,0,0,0,0,0,.64.1,1,.42,1.09.95.1-.15.2-.3.3-.45,2.65-3.95,4.12-4.24,8.16-1.49-.01-.51.15-.96.45-1.37-1.59-.01-2.95-.52-3.88-1.93-1.6.36-2.6-.33-3.13-1.81-.03.02-.05.05-.07.08-2.13.03-3.39-1.6-4.94-2.63-2.22-1.46-3.98-3.45-5.76-5.38-.8-.87-1.09-1.76.04-2.31-.99-.78-1.82-1.69-2.25-2.91-.91.41-.98-.49-1.26-1.14-1.28-2.94-1.41-5.98-.96-9.08-1.03.57-1.97,1.39-3.29,1.18h0c0,.05,0,.1,0,.15.09.06.17.12.26.2.66,1.45.29,2.99.43,4.49Z"/>
        <path class="cls-2" d="m114.11,106.57s-.04.05-.05.07c.07,0,.13,0,.2,0h0s-.1-.05-.15-.07Z"/>
        <path class="cls-2" d="m96.77,93c-.05-.17-.11-.32-.18-.47-.1.04-.2.08-.29.12.15.12.31.24.46.35h0Z"/>
        <path class="cls-2" d="m110.31,104.68s-.1-.02-.14-.03c0,.02,0,.03,0,.05,0,0,0,0,.01.02.05-.01.09-.02.14-.03,0,0,0,0,0,0Z"/>
        <path class="cls-2" d="m106.99,102.74h0c.02.05.04.1.05.15.02-.02.04-.04.06-.06-.04-.03-.07-.06-.11-.1Z"/>
        <path class="cls-2" d="m113.6,108.1s.09,0,.13,0c-.05-.03-.09-.06-.13-.09,0,.03,0,.06,0,.09Z"/>
        <path class="cls-2" d="m105.05,110.99s0,0,0,0c.12-.41.14-.76.09-1.04-.08.12-.16.24-.24.36.08.2.14.43.15.68Z"/>
        <path class="cls-2" d="m103.5,108.96c.13.08.26.16.38.24.06-.06.11-.13.17-.19-.17-.03-.35-.04-.55-.04,0,0,0,0,0,0Z"/>
        <path class="cls-2" d="m98.7,106.08c.13.11.24.22.35.34.13-.05.26-.1.39-.14-.19-.1-.43-.17-.74-.2,0,0,0,0,0,0Z"/>
        <path class="cls-2" d="m99.66,107.97c.11-.23.18-.44.22-.63-.1.02-.21.05-.31.06.05.18.08.37.09.57Z"/>
        <path class="cls-1" d="m91.12,97.2c.15.1.3.18.47.22,0,0,0,0,0,0-.08-.17-.17-.34-.26-.49-.02.03-.05.05-.07.08-.04.07-.09.13-.14.19Z"/>
        <path class="cls-1" d="m90.12,96.53s.02-.03.03-.04c.05-.09.09-.17.13-.25-.19.01-.41.08-.66.22.19-.02.35.02.5.08Z"/>
        <path class="cls-1" d="m86.36,94.38c.19-.07.38-.14.58-.2-.16-.18-.43-.28-.88-.25,0,0,0,0,0,0,.1.15.2.3.3.45Z"/>
        <path class="cls-1" d="m86.76,94.97c.09.14.19.28.28.41.04-.17.06-.34.07-.5-.07.02-.15.03-.22.05-.04.01-.09.02-.13.03Z"/>
        <path class="cls-1" d="m108.92,18.28c-.04.15-.06.32-.03.52,0,0,0,0,0,0,.18-.15.36-.28.54-.42-.16-.03-.31-.07-.47-.1-.02,0-.03,0-.05,0Z"/>
        <path class="cls-1" d="m120.56,20.79c.36-.1.72-.2,1.08-.31-.09-.01-.19-.02-.28-.04-.14.21-1.18-.04-.8.34Z"/>
        <path class="cls-1" d="m112.77,19.66c.2-.19.42-.37.64-.54-.11-.01-.22-.02-.33-.03-.14-.02-.27-.04-.41-.07-.07.19,0,.4.1.63Z"/>
        <path class="cls-2" d="m105.16,17.73c-2.02-1.46-3.67-3.28-5.2-5.23-.11.54-.49.79-1.04.82.93,1.28,1.85,2.56,2.78,3.84.16.02.31.04.47.06.58.15,1.27.14,1.4.88.05-.04.1-.07.15-.11.47-.2.96-.27,1.45-.26Z"/>
        <path class="cls-1" d="m103.6,18.27h0c0-.06-.02-.11-.03-.16-.05.03-.09.07-.14.1.05.02.11.04.16.06h0Z"/>
        <path class="cls-1" d="m105.16,17.73c.29.21.58.41.89.6-.18-.2-.35-.39-.53-.59-.12,0-.24-.02-.36-.02Z"/>
        <path class="cls-1" d="m99.98,12.36c-.11-.08-.21-.16-.33-.24.1.13.2.26.3.39,0-.05.02-.09.02-.14Z"/>
        <path class="cls-1" d="m129.69,48.69s-.06.02-.1.02c0,.03.02.06.03.08.02-.04.05-.07.07-.11Z"/>
        <path class="cls-1" d="m117.88,63.92c-.01-.15-.03-.31-.04-.46-.1.27-.19.55-.23.87.09-.11.18-.21.27-.32,0-.03,0-.06,0-.08Z"/>
        <path class="cls-3" d="m115.67,55.52c2.71-1.82,5.42-3.71,8.63-4.6,0,0,0,0,0,0-.7-.54-1.13-1.19-1.1-2.02-.97,1.11-2.31,1.7-3.57,2.4-.42.23-.92.4-1.36.08-.02-.01-.03-.03-.04-.04h0s0,0,0,0c-.42-.33-.4-.84-.19-1.26.7-1.39.95-3.02,2.03-4.22-.74.17-1.37,0-1.79-.82-.93,2.04-1.83,4.1-2.81,6.12-1.4,2.85-1.51,2.98-3.69,1.36.04,2.69,1.64,4.12,3.78,5.1-.57-.68-.84-1.46.12-2.1Z"/>
        <path class="cls-1" d="m120.06,45.87c.09-.02.19-.05.28-.08.04-.11.08-.21.12-.32-.15.13-.28.26-.41.4Z"/>
        <path class="cls-1" d="m123.5,48.53h0c-.1.05-.19.1-.29.15,0,.07-.01.14-.02.21.1-.12.21-.24.3-.37h0Z"/>
        <path class="cls-1" d="m115.56,57.62c.14.17.3.34.47.49-.08-.13-.15-.26-.21-.38-.09-.04-.17-.08-.26-.12Z"/>
        <path class="cls-1" d="m124.36,50.93s.07-.04.11-.06c-.06.01-.11.04-.17.05.02,0,.04,0,.06.01Z"/>
        <path class="cls-1" d="m115.57,65.32s.03.05.04.08c.03-.01.05-.02.08-.03-.04-.02-.08-.03-.12-.04Z"/>
        <path class="cls-1" d="m118.26,45.01s.01.02.02.03c.1-.22.19-.43.29-.65-.16.02-.3.08-.41.14.02.16.05.32.1.48Z"/>
        <path class="cls-1" d="m111.77,52.35c-.13-.04-.26-.08-.4-.13.14.11.27.21.4.3,0-.06,0-.11,0-.17Z"/>
        <path class="cls-3" d="m103.49,67.89c1.96-1.94,3.98-3.84,6.25-5.45-.43-.25-.64-.76-1.01-1.09-.04-.04-.08-.08-.12-.13-2.99,3.14-6.19,6.05-9.59,8.75.47.12.82.41,1.1.83.03.09.06.18.09.26.02-.01.05-.02.07-.03.36-1.74,2.15-2.11,3.21-3.16Z"/>
        <path class="cls-1" d="m100.2,71.08s-.02,0-.02.01c0,0,0,.02-.01.03l.06.04s0,0,0,0c0-.02-.02-.05-.02-.07Z"/>
        <path class="cls-1" d="m109.77,62.46s.06-.07.09-.11c-.04.03-.08.06-.12.09.01,0,.02.01.03.02Z"/>
        <path class="cls-1" d="m100.23,71.15s.02.02.02.02c0,0,0,0,0,0t0,0s0,0,0-.01c0,0-.02,0-.03,0Z"/>
        <path class="cls-1" d="m100.28,71.05s-.02.07-.02.11c0,0,0,0,.01,0,.1-.08.2-.16.3-.24-.1.04-.19.09-.29.13Z"/>
        <path class="cls-1" d="m108.43,60.44c-.11.08-.23.16-.34.24.05.05.1.1.14.15.07-.13.14-.25.2-.39Z"/>
        <path class="cls-1" d="m98.11,68.76s-.03-.07-.04-.11c-.08.09-.16.18-.23.28h0c.09-.05.18-.11.27-.16,0,0,0,0,0,0Z"/>
        <path class="cls-1" d="m108.61,61.23c.08-.09.17-.17.25-.25-.1.06-.2.13-.31.19.02.02.04.04.06.06Z"/>
        <path class="cls-1" d="m99.02,69.98c-.09-.02-.18-.05-.27-.06-.03.02-.05.05-.08.07-.03.03.03.15.05.23h0c.1-.08.2-.16.3-.24Z"/>
        <path class="cls-1" d="m106.09,55.33h0s0,.03,0,.04c0,0,.02,0,.02,0,0-.01,0-.03-.02-.04Z"/>
        <path class="cls-1" d="m107.2,58.95c0,.06,0,.12,0,.17.08-.03.16-.07.25-.1-.09-.03-.17-.06-.25-.07Z"/>
        <path class="cls-1" d="m124.58,65.39c-.06-.03-.11-.06-.17-.08-.14.06-.28.12-.41.18.19-.03.39-.07.58-.1Z"/>
        <path class="cls-1" d="m101.37,74.21s.06.02.08.03c.06-.06.12-.11.18-.17-.09.04-.18.09-.28.13h0Z"/>
        <path class="cls-1" d="m92.91,77.95h0s-.05.05-.07.08c.02.02.05.04.07.06,0-.05,0-.09,0-.14Z"/>
        <path class="cls-1" d="m92.15,79.36s.02-.02.03-.03c-.07-.11-.16-.23-.27-.34-.03.18-.06.35-.08.53.1-.06.21-.11.32-.16Z"/>
        <path class="cls-2" d="m94.06,89.2c-.03.1-.06.19-.09.29.03.08.06.16.09.24.09-.04.19-.09.3-.16-.1-.12-.2-.25-.29-.38Z"/>
        <path class="cls-2" d="m102.64,75.69c-1.21,2.53-2.37,5.09-4.18,7.27.77.01,1.39.33,1.88.88,1.67-2.66,2.76-5.6,3.99-8.46.33-.77.7-1.52,1.14-2.22-.94.36-1.84.82-2.82,1.08.62.33.19,1.03,0,1.45Z"/>
        <path class="cls-1" d="m105.75,73.07c.06-.19.13-.38.19-.58h0c-.16.22-.32.45-.46.68.09-.03.19-.07.28-.1Z"/>
        <path class="cls-2" d="m100.68,84.29h0c-.1-.16-.22-.31-.34-.44-.05.08-.1.16-.15.25.16.07.32.13.49.2Z"/>
        <path class="cls-1" d="m102.33,74.31c.11-.02.22-.04.32-.07-.12-.06-.28-.11-.49-.14h0s0,0,0,0c.07.07.12.14.17.21Z"/>
        <path class="cls-1" d="m98.47,82.96c-.05,0-.11,0-.17,0-.03.11-.07.21-.1.32.09-.11.18-.22.27-.33Z"/>
        <path class="cls-1" d="m115.77,5.67s-.02-.07-.02-.1c-.02.02-.04.04-.05.06.03.01.05.03.08.04Z"/>
        <path class="cls-1" d="m107.13,4.1c-.06.02-.12.05-.17.07.02,0,.04.01.07.02.04-.03.07-.06.11-.09Z"/>
        <path class="cls-2" d="m112.07,10.69c-3.2.85-6.13-.1-9.02-1.31.32.58.11.97-.36,1.27,3.06.2,6.08.61,8.95,1.79-.02-.63.1-1.22.43-1.75Z"/>
        <path class="cls-1" d="m111.64,12.5c.06,0,.11,0,.17.01-.06-.02-.12-.04-.18-.07,0,.02,0,.04,0,.05Z"/>
        <path class="cls-1" d="m102.69,10.66c-.36-.02-.73-.05-1.09-.06.26.09.51.16.77.24.12-.06.22-.12.32-.18Z"/>
        <path class="cls-1" d="m112.12,10.62s-.03.05-.05.08c.07-.02.14-.03.2-.05,0,0,0,0,0,0,0,0,0,0,0,0-.05,0-.1-.02-.16-.02Z"/>
        <path class="cls-1" d="m102.97,9.25l-.38-.06c.15.07.31.13.46.19-.02-.04-.05-.09-.08-.14Z"/>
        <path class="cls-1" d="m91.71,14.8c-.06.14-.12.28-.17.43.11-.13.23-.26.35-.39-.06-.01-.12-.03-.18-.04Z"/>
        <path class="cls-1" d="m96.29,10.13h0c-.1.05-.19.1-.29.15.02.03.03.07.05.1.08-.08.16-.17.24-.25Z"/>
        <path class="cls-1" d="m101.4,17.13c.25.21.49.41.72.63-.14-.2-.29-.4-.43-.59-.1-.01-.2-.02-.29-.03Z"/>
        <path class="cls-1" d="m98.79,13.33s.08,0,.13,0c-.08-.11-.15-.21-.23-.32,0,.1.01.2.02.29.03.01.05.02.08.03Z"/>
      </g>
      <path class="cls-2" d="m16.78,134.37c-.1-1.83-.21-4.03-.19-5.66h-.06c-.45,1.54-.99,3.17-1.65,4.98l-2.32,6.36h-1.28l-2.12-6.25c-.62-1.85-1.15-3.54-1.52-5.1h-.04c-.04,1.63-.14,3.83-.25,5.8l-.35,5.62h-1.62l.91-13.12h2.16l2.24,6.34c.54,1.62.99,3.06,1.32,4.42h.06c.33-1.32.8-2.76,1.38-4.42l2.34-6.34h2.16l.82,13.12h-1.65l-.33-5.76Z"/>
      <path class="cls-2" d="m22.97,128.06c.02.58-.41,1.05-1.09,1.05-.6,0-1.03-.47-1.03-1.05s.45-1.07,1.07-1.07,1.05.47,1.05,1.07Zm-1.91,12.07v-9.42h1.71v9.42h-1.71Z"/>
      <path class="cls-2" d="m31.85,139.78c-.45.23-1.44.55-2.71.55-2.84,0-4.69-1.93-4.69-4.81s1.99-5,5.06-5c1.01,0,1.91.25,2.37.49l-.39,1.32c-.41-.23-1.05-.45-1.98-.45-2.16,0-3.33,1.6-3.33,3.56,0,2.18,1.4,3.52,3.27,3.52.97,0,1.62-.25,2.1-.47l.29,1.28Z"/>
      <path class="cls-2" d="m33.37,133.65c0-1.11-.02-2.06-.08-2.94h1.5l.06,1.85h.08c.43-1.27,1.46-2.06,2.61-2.06.19,0,.33.02.49.06v1.62c-.18-.04-.35-.06-.58-.06-1.21,0-2.06.91-2.3,2.2-.04.23-.08.51-.08.8v5.02h-1.69v-6.48Z"/>
      <path class="cls-2" d="m47.58,135.34c0,3.48-2.41,5-4.69,5-2.55,0-4.52-1.87-4.52-4.85,0-3.15,2.06-5,4.67-5s4.53,1.97,4.53,4.85Zm-7.47.1c0,2.06,1.19,3.62,2.86,3.62s2.86-1.54,2.86-3.66c0-1.6-.8-3.62-2.82-3.62s-2.9,1.87-2.9,3.66Z"/>
      <path class="cls-2" d="m49.02,138.38c.51.33,1.4.68,2.26.68,1.25,0,1.83-.62,1.83-1.4,0-.82-.49-1.27-1.75-1.73-1.69-.6-2.49-1.54-2.49-2.67,0-1.52,1.23-2.76,3.25-2.76.95,0,1.79.27,2.32.58l-.43,1.25c-.37-.23-1.05-.55-1.93-.55-1.01,0-1.58.58-1.58,1.28,0,.78.56,1.13,1.79,1.6,1.63.62,2.47,1.44,2.47,2.84,0,1.65-1.28,2.82-3.52,2.82-1.03,0-1.99-.25-2.65-.64l.43-1.3Z"/>
      <path class="cls-2" d="m65,135.34c0,3.48-2.41,5-4.69,5-2.55,0-4.52-1.87-4.52-4.85,0-3.15,2.06-5,4.67-5s4.53,1.97,4.53,4.85Zm-7.47.1c0,2.06,1.19,3.62,2.86,3.62s2.86-1.54,2.86-3.66c0-1.6-.8-3.62-2.82-3.62s-2.9,1.87-2.9,3.66Z"/>
      <path class="cls-2" d="m66.85,140.13v-8.12h-1.32v-1.3h1.32v-.45c0-1.32.29-2.53,1.09-3.29.64-.62,1.5-.88,2.3-.88.6,0,1.13.14,1.46.27l-.23,1.32c-.25-.12-.6-.21-1.09-.21-1.46,0-1.83,1.28-1.83,2.72v.51h2.28v1.3h-2.28v8.12h-1.69Z"/>
      <path class="cls-2" d="m74.63,128v2.71h2.45v1.3h-2.45v5.08c0,1.17.33,1.83,1.28,1.83.45,0,.78-.06.99-.12l.08,1.28c-.33.14-.86.23-1.52.23-.8,0-1.44-.25-1.85-.72-.49-.51-.66-1.34-.66-2.45v-5.14h-1.46v-1.3h1.46v-2.26l1.67-.45Z"/>
      <path class="cls-2" d="m1.16,178.67c2.05,1.26,5.05,2.31,8.2,2.31,4.68,0,7.41-2.47,7.41-6.04,0-3.31-1.89-5.2-6.67-7.04-5.78-2.05-9.36-5.05-9.36-10.04,0-5.52,4.57-9.62,11.46-9.62,3.63,0,6.25.84,7.83,1.73l-1.26,3.73c-1.16-.63-3.52-1.68-6.73-1.68-4.84,0-6.67,2.89-6.67,5.31,0,3.31,2.15,4.94,7.04,6.83,5.99,2.31,9.04,5.2,9.04,10.41,0,5.47-4.05,10.2-12.4,10.2-3.42,0-7.15-1-9.04-2.26l1.16-3.84Z"/>
      <path class="cls-2" d="m54.97,189.45c-4.78-1.26-9.46-2.68-13.56-4.1-.74-.26-1.47-.53-2.15-.53-8.41-.32-15.61-6.52-15.61-17.92s6.94-18.66,16.5-18.66,15.87,7.46,15.87,17.92c0,9.09-4.2,14.93-10.09,16.98v.21c3.52.89,7.36,1.73,10.35,2.26l-1.31,3.84Zm-3.78-23.07c0-7.1-3.68-14.4-11.19-14.4s-11.51,7.15-11.46,14.82c-.05,7.52,4.1,14.3,11.25,14.3s11.4-6.62,11.4-14.72Z"/>
      <path class="cls-2" d="m60.01,148.82h4.57v31.59h15.14v3.84h-19.71v-35.42Z"/>
      <path class="cls-2" d="m99.22,178.67c2.05,1.26,5.05,2.31,8.2,2.31,4.68,0,7.41-2.47,7.41-6.04,0-3.31-1.89-5.2-6.67-7.04-5.78-2.05-9.35-5.05-9.35-10.04,0-5.52,4.57-9.62,11.46-9.62,3.63,0,6.25.84,7.83,1.73l-1.26,3.73c-1.16-.63-3.52-1.68-6.73-1.68-4.84,0-6.67,2.89-6.67,5.31,0,3.31,2.15,4.94,7.04,6.83,5.99,2.31,9.04,5.2,9.04,10.41,0,5.47-4.05,10.2-12.4,10.2-3.42,0-7.15-1-9.04-2.26l1.16-3.84Z"/>
      <path class="cls-2" d="m125.58,172.37c.11,6.25,4.1,8.83,8.72,8.83,3.31,0,5.31-.58,7.04-1.31l.79,3.31c-1.63.74-4.41,1.58-8.46,1.58-7.83,0-12.51-5.15-12.51-12.82s4.52-13.72,11.93-13.72c8.3,0,10.51,7.31,10.51,11.98,0,.95-.11,1.68-.16,2.16h-17.87Zm13.56-3.31c.05-2.94-1.21-7.52-6.41-7.52-4.68,0-6.73,4.31-7.1,7.52h13.51Z"/>
      <path class="cls-2" d="m147.38,166.74c0-3-.05-5.57-.21-7.94h4.05l.16,4.99h.21c1.16-3.42,3.94-5.57,7.04-5.57.53,0,.89.05,1.31.16v4.36c-.47-.11-.95-.16-1.58-.16-3.26,0-5.57,2.47-6.2,5.94-.11.63-.21,1.37-.21,2.16v13.56h-4.57v-17.5Z"/>
      <path class="cls-2" d="m166.7,158.81l4.99,14.3c.84,2.31,1.52,4.41,2.05,6.52h.16c.58-2.1,1.31-4.2,2.15-6.52l4.94-14.3h4.84l-9.99,25.44h-4.41l-9.67-25.44h4.94Z"/>
      <path class="cls-2" d="m190.29,172.37c.11,6.25,4.1,8.83,8.72,8.83,3.31,0,5.31-.58,7.04-1.31l.79,3.31c-1.63.74-4.41,1.58-8.46,1.58-7.83,0-12.51-5.15-12.51-12.82s4.52-13.72,11.93-13.72c8.3,0,10.51,7.31,10.51,11.98,0,.95-.11,1.68-.16,2.16h-17.87Zm13.56-3.31c.05-2.94-1.21-7.52-6.41-7.52-4.68,0-6.73,4.31-7.1,7.52h13.51Z"/>
      <path class="cls-2" d="m211.13,166.74c0-3-.05-5.57-.21-7.94h4.05l.16,4.99h.21c1.16-3.42,3.94-5.57,7.04-5.57.53,0,.89.05,1.31.16v4.36c-.47-.11-.95-.16-1.58-.16-3.26,0-5.57,2.47-6.2,5.94-.11.63-.21,1.37-.21,2.16v13.56h-4.57v-17.5Z"/>
    </g>
  </g>
</svg>