<?xml version="1.0" encoding="UTF-8"?>
<svg id="Capa_2" data-name="Capa 2" xmlns="http://www.w3.org/2000/svg" viewBox="0 0 203.26 200.04">
  <defs>
    <style>
      .cls-1 {
        fill: #fff;
      }

      .cls-1, .cls-2 {
        stroke-width: 0px;
      }

      .cls-2 {
        fill: #1d78bd;
      }
    </style>
  </defs>
  <g id="Capa_1-2" data-name="Capa 1">
    <g>
      <path class="cls-2" d="m181.3,0H21.96C9.83,0,0,9.83,0,21.96v156.12c0,12.13,9.83,21.96,21.96,21.96h159.34c12.13,0,21.96-9.83,21.96-21.96V21.96c0-12.13-9.83-21.96-21.96-21.96Zm-56.85,114.81h-24.41v70.2h-18.64v-70.2h-24.29v-15.18h67.34v15.18Zm56.68,64.21c-5.64,4.98-13.79,7.47-24.47,7.47-4.8,0-9.73-.64-14.8-1.91s-9.6-3.06-13.6-5.36l7.68-14.53c4.29,2.58,8.04,4.34,11.25,5.27,3.22.93,6.59,1.4,10.12,1.4,4.56,0,7.99-.9,10.27-2.71,2.28-1.81,3.42-4.32,3.42-7.53,0-2.98-.91-5.29-2.74-6.94-1.83-1.65-5.14-3.05-9.94-4.2-9.45-2.22-16.31-5.33-20.6-9.32s-6.43-9.54-6.43-16.64,2.77-13.29,8.31-18.31c5.54-5.02,13.31-7.53,23.31-7.53,4.17,0,8.27.48,12.29,1.43,4.03.95,7.89,2.36,11.58,4.23l-7.09,14.65c-3.26-1.82-6.34-3.15-9.26-3.96-2.92-.81-5.65-1.22-8.19-1.22-3.93,0-7,.78-9.2,2.35-2.2,1.57-3.3,3.82-3.3,6.76,0,2.66,1,4.7,3.01,6.13,2,1.43,5.61,2.78,10.81,4.05,9.17,2.14,15.8,5.29,19.89,9.44,4.09,4.15,6.13,9.97,6.13,17.47,0,8.02-2.82,14.52-8.45,19.5Z"/>
      <g>
        <path class="cls-1" d="m163.67,132.31c-5.2-1.27-8.8-2.62-10.81-4.05-2-1.43-3.01-3.47-3.01-6.13,0-2.94,1.1-5.19,3.3-6.76,2.2-1.57,5.27-2.35,9.2-2.35,2.54,0,5.27.41,8.19,1.22,2.92.81,6,2.13,9.26,3.96l7.09-14.65c-3.69-1.87-7.55-3.27-11.58-4.23-4.03-.95-8.13-1.43-12.29-1.43-10,0-17.77,2.51-23.31,7.53-5.54,5.02-8.31,11.12-8.31,18.31s2.14,12.65,6.43,16.64c4.29,3.99,11.15,7.09,20.6,9.32,4.8,1.15,8.12,2.55,9.94,4.2,1.83,1.65,2.74,3.96,2.74,6.94,0,3.22-1.14,5.73-3.42,7.53-2.28,1.81-5.71,2.71-10.27,2.71-3.53,0-6.91-.47-10.12-1.4-3.22-.93-6.97-2.69-11.25-5.27l-7.68,14.53c4.01,2.3,8.54,4.09,13.6,5.36,5.06,1.27,9.99,1.91,14.8,1.91,10.68,0,18.83-2.49,24.47-7.47,5.64-4.98,8.45-11.48,8.45-19.5,0-7.5-2.04-13.33-6.13-17.47-4.09-4.15-10.72-7.29-19.89-9.44Z"/>
        <polygon class="cls-1" points="57.22 114.51 81.51 114.51 81.51 184.7 100.15 184.7 100.15 114.51 124.56 114.51 124.56 99.33 57.22 99.33 57.22 114.51"/>
      </g>
    </g>
  </g>
</svg>