<?xml version="1.0" encoding="UTF-8"?>
<svg id="Capa_2" data-name="Capa 2" xmlns="http://www.w3.org/2000/svg" viewBox="0 0 226.45 223.68">
  <defs>
    <style>
      .cls-1 {
        fill: #0c76bc;
        stroke-width: 0px;
      }
    </style>
  </defs>
  <g id="Capa_1-2" data-name="Capa 1">
    <path class="cls-1" d="m226.38,111.89c0-28.97-.03-57.94.06-86.9,0-2.49-.72-3.63-3.07-4.55-16.5-6.47-32.94-13.06-49.36-19.73-2.75-1.12-4.5-1.07-6.84,1.29-28.16,28.4-56.49,56.62-84.72,84.95-1.75,1.76-2.75,2.2-4.99.42-17.41-13.86-35-27.49-52.44-41.32-1.87-1.48-3.2-1.49-5.18-.45-5.78,3.04-11.64,5.94-17.53,8.76C.6,55.19,0,56.18.01,58.12.08,93.89.09,129.66,0,165.43c0,2.16.83,3.09,2.58,3.94,5.89,2.83,11.79,5.65,17.53,8.76,2.04,1.11,3.23.69,4.86-.59,17.47-13.78,35.04-27.44,52.47-41.29,2.15-1.71,3.17-1.51,5.01.32,28.72,28.5,57.56,56.88,86.24,85.42,2.07,2.06,3.58,2.02,5.95,1.05,16.27-6.72,32.57-13.36,48.91-19.92,2.14-.86,2.92-1.88,2.91-4.31-.11-28.97-.07-57.94-.07-86.9Zm-170.9,2.04c-10.28,10.09-20.42,20.33-30.61,30.51-.56.56-1.18,1.08-2.3,2.11.39-23.44.76-46.13,1.14-68.85,1.26-.3,1.59.82,2.15,1.39,9.89,10.15,19.7,20.38,29.64,30.47,1.7,1.73,1.76,2.63-.01,4.37Zm114.54,43.52c-1.8-.5-2.95-1.84-4.26-2.85-17.69-13.65-35.36-27.33-53.05-40.98-1.44-1.11-2.59-1.72-.36-3.46,19.12-15.01,38.15-30.15,57.67-45.61v92.91Z"/>
  </g>
</svg>