<?xml version="1.0" encoding="UTF-8"?>
<svg id="Capa_2" data-name="Capa 2" xmlns="http://www.w3.org/2000/svg" viewBox="0 0 246.96 240.59">
  <defs>
    <style>
      .cls-1 {
        fill: #431238;
      }

      .cls-1, .cls-2 {
        stroke-width: 0px;
      }

      .cls-2 {
        fill: #bf73ad;
      }
    </style>
  </defs>
  <g id="Capa_1-2" data-name="Capa 1">
    <g>
      <g>
        <path class="cls-1" d="m246.92,40.3c-.02-21.93-17.08-39.94-39.01-40.07-56.23-.32-112.46-.29-168.69,0C17.26.34.07,18.28.05,40.13c-.06,53.42-.07,106.84,0,160.26.03,23,17.22,40.08,40.31,40.15,27.59.09,55.18.02,82.76.02,27.76,0,55.53.05,83.29-.01,23.34-.05,40.47-17.16,40.5-40.52.06-53.24.05-106.49,0-159.73Zm-122.74,140.83c-.7-.07-1.43-.17-2.1-.02-12.48,2.74-18.92-2.91-23.07-14.51-4.03-11.26-10.08-21.79-15.59-33.38-7,15.11-13.62,29.22-20.06,43.4-1.41,3.1-3.19,4.58-6.79,4.37-5.37-.31-10.77-.08-16.34-.08.41-3.22,1.96-5.18,3.07-7.3,8.73-16.79,17.46-33.57,26.34-50.28,1.4-2.64,1.32-4.7-.01-7.29-8.86-17.31-17.59-34.68-26.31-52.05-.75-1.5-2.14-2.83-1.72-5.3,6.41,0,12.86.04,19.32-.02,2.84-.03,3.31,2.26,4.16,4.07,5.59,11.89,11.11,23.81,16.66,35.71.95,2.04,1.94,4.06,3.1,6.47,6.67-14.33,13.18-28.1,19.47-41.97,1.33-2.94,2.88-4.36,6.27-4.18,5.24.28,10.5.07,15.7.07.62,2.33-.8,3.65-1.57,5.13-8.54,16.49-17.05,33-25.76,49.4-1.63,3.06-1.88,5.35-.14,8.63,9.6,18.11,18.77,36.45,28.28,54.6,2.06,3.92,1.09,4.96-2.92,4.53Zm80-4.64c-13.19,5.45-26.75,7.45-40.67,3.69-11.33-3.07-19.61-10.28-23.97-21.21-5.97-14.98-6.34-30.27.48-45.04,7.91-17.13,22.12-24.81,40.64-24.55,4.51.06,5.58-1.19,5.34-5.49-.39-7.01,0-14.06-.2-21.08-.08-3.04,1-4.04,3.96-3.9,4.03.19,8.1.26,12.12-.02,3.64-.26,4.76.88,4.72,4.65-.21,17.92-.09,35.85-.09,53.77.1,0,.19,0,.29,0,0,18.27-.05,36.55.06,54.82.01,2.27-.52,3.47-2.69,4.36Z"/>
        <path class="cls-1" d="m180.79,106.08c-10.74-.58-19.78,5.5-23.14,16.14-2.83,8.93-2.75,18.05-.06,26.97,3.31,10.96,13.11,16.86,23.97,15.06,2.98-.49,4.45-1.5,4.32-4.98-.31-7.89-.1-15.79-.1-23.69,0-8.07-.25-16.16.11-24.22.18-4.11-1.55-5.09-5.09-5.28Z"/>
      </g>
      <g>
        <path class="cls-2" d="m206.74,117.39c-.1,0-.19,0-.29,0,0-17.92-.11-35.85.09-53.77.04-3.77-1.08-4.91-4.72-4.65-4.02.29-8.09.21-12.12.02-2.96-.14-4.04.86-3.96,3.9.19,7.02-.2,14.07.2,21.08.24,4.31-.84,5.56-5.34,5.49-18.52-.26-32.73,7.43-40.64,24.55-6.83,14.78-6.46,30.06-.48,45.04,4.36,10.93,12.63,18.14,23.97,21.21,13.91,3.76,27.47,1.77,40.67-3.69,2.17-.9,2.7-2.1,2.69-4.36-.11-18.27-.06-36.55-.06-54.82Zm-20.91-5.94c-.36,8.06-.11,16.14-.11,24.22,0,7.9-.21,15.8.1,23.69.14,3.48-1.33,4.49-4.32,4.98-10.86,1.8-20.66-4.1-23.97-15.06-2.69-8.92-2.77-18.04.06-26.97,3.37-10.64,12.4-16.71,23.14-16.14,3.55.19,5.28,1.17,5.09,5.28Z"/>
        <path class="cls-2" d="m98.75,122.09c-1.74-3.27-1.49-5.56.14-8.63,8.71-16.4,17.22-32.91,25.76-49.4.77-1.49,2.19-2.8,1.57-5.13-5.2,0-10.46.21-15.7-.07-3.39-.18-4.94,1.24-6.27,4.18-6.29,13.87-12.8,27.64-19.47,41.97-1.16-2.41-2.15-4.43-3.1-6.47-5.55-11.91-11.07-23.83-16.66-35.71-.85-1.81-1.32-4.1-4.16-4.07-6.46.07-12.92.02-19.32.02-.42,2.48.96,3.8,1.72,5.3,8.72,17.38,17.45,34.75,26.31,52.05,1.33,2.6,1.41,4.66.01,7.29-8.88,16.7-17.61,33.49-26.34,50.28-1.11,2.13-2.66,4.09-3.07,7.3,5.57,0,10.97-.23,16.34.08,3.59.21,5.38-1.28,6.79-4.37,6.45-14.18,13.06-28.29,20.06-43.4,5.51,11.59,11.56,22.12,15.59,33.38,4.15,11.6,10.59,17.25,23.07,14.51.67-.15,1.41-.06,2.1.02,4.01.43,4.98-.6,2.92-4.53-9.52-18.15-18.69-36.49-28.28-54.6Z"/>
      </g>
    </g>
  </g>
</svg>