<?xml version="1.0" encoding="UTF-8"?>
<svg id="Capa_2" data-name="Capa 2" xmlns="http://www.w3.org/2000/svg" viewBox="0 0 214.42 247.59">
  <defs>
    <style>
      .cls-1 {
        fill: #bababa;
        stroke-width: 0px;
      }
    </style>
  </defs>
  <g id="Capa_1-2" data-name="Capa 1">
    <g>
      <path class="cls-1" d="m107.21,0L0,61.9v123.79l107.21,61.9,107.21-61.9V61.9L107.21,0Zm-55.29,135.36c4.86,19.74,17.94,32.22,37.8,36.17,20.33,4.04,37.04-3.12,49.34-19.8,2.25-3.05,3.64-3.69,6.92-1.52,5.82,3.85,11.9,7.33,18.05,10.64,3.13,1.68,3.44,3.09,1.42,6.03-16.08,23.36-38.25,35.27-59.24,35.88-47.94-.02-82.86-31.96-85.85-71.84-3.17-42.28,25.35-79.16,66.83-85.11,33.15-4.75,59.15,7.84,78.36,35.06,2.2,3.11,1.85,4.59-1.58,6.36-6.2,3.2-12.23,6.77-18.14,10.49-2.97,1.87-4.38,1.69-6.54-1.43-16.44-23.76-48.62-28.63-70.59-10.49-15.64,12.91-21.63,29.8-16.77,49.57Zm152-16.57h-6.2l-2.03,10h8.24v8h-9.71l-2.66,13h-7.52l2.6-13h-7.49l-2.66,13h-7.62l2.66-13h-4.59v-8h6.1l2.03-10h-8.14v-8h9.61l2.66-13h7.56l-2.66,13h7.45l2.6-13h7.82l-2.7,13h4.65v8Z"/>
      <polygon class="cls-1" points="180.15 128.79 187.68 128.79 189.65 118.79 182.15 118.79 180.15 128.79"/>
    </g>
  </g>
</svg>