<?xml version="1.0" encoding="UTF-8"?>
<svg id="Capa_2" data-name="Capa 2" xmlns="http://www.w3.org/2000/svg" viewBox="0 0 182.58 205.93">
  <defs>
    <style>
      .cls-1 {
        fill: #bababa;
        stroke-width: 0px;
      }
    </style>
  </defs>
  <g id="Capa_1-2" data-name="Capa 1">
    <path class="cls-1" d="m179.94,0C127.6.05,75.26.04,22.92.04,15.99.04,9.06.08,2.13,0,.54,0-.18.08.04,2.09c.97,8.95,1.73,17.92,2.54,26.88,1.39,15.44,2.73,30.89,4.16,46.33,1.75,18.92,3.61,37.84,5.36,56.76,1.59,17.18,3.12,34.37,4.6,51.56.14,1.59.74,2.32,2.24,2.71,18.76,5,37.51,10,56.24,15.1,5.22,1.42,10.58,2.4,15.61,4.5h1c.09-.58.59-.45.96-.54,23.47-6.33,46.93-12.69,70.41-18.94,1.94-.52,2.63-1.36,2.76-3.33.45-6.49,1.07-12.96,1.67-19.43.92-10.04,1.9-20.08,2.82-30.12.9-9.79,1.75-19.59,2.66-29.39,1.09-11.79,2.24-23.57,3.33-35.35.91-9.88,1.76-19.76,2.67-29.64,1.11-12.2,2.17-24.41,3.46-36.59C182.79.11,181.94,0,179.94,0Zm-32.03,39.84c-.73,6.46-1.39,12.93-1.99,19.4-.14,1.55-1.43,1.5-2.3,1.87-16.76,7.21-33.54,14.37-50.32,21.55-.5.21-.99.44-1.42,1.03h2.37c15.78,0,31.55.04,47.33-.05,2.08-.01,2.32.53,2.12,2.48-.89,8.62-1.55,17.27-2.31,25.91-.93,10.63-1.86,21.26-2.79,31.89-.22,2.49-.6,4.98-.62,7.47,0,1.52-.68,1.94-1.92,2.3-14.42,4.18-28.82,8.39-43.23,12.6-1.07.31-2.11.3-3.17-.01-14.46-4.3-28.93-8.61-43.4-12.87-1.15-.34-1.92-.67-2.03-2.06-.82-10.3-1.66-20.61-2.59-30.9-.18-1.96.29-2.55,2.33-2.51,6.17.14,12.35.11,18.53.01,1.73-.03,2.23.49,2.31,2.23.21,4.75.72,9.48,1.02,14.22.08,1.32.64,1.83,1.88,2.13,7.41,1.83,14.8,3.73,22.19,5.61.83.21,1.62.15,2.46-.08,7.58-2.15,15.16-4.29,22.76-6.38,1.46-.4,2.11-1.07,2.19-2.71.39-8.25.86-16.5,1.49-24.73.17-2.22-.53-2.54-2.54-2.54-24.54-.01-49.08-.15-73.62-.16-2.26,0-2.91-.6-3.01-2.88-.24-5.49-.73-10.98-1.34-16.45-.22-1.93.3-2.77,2.07-3.5,17.1-7.03,34.17-14.16,51.25-21.27.65-.27,1.28-.6,1.91-.9-.03-.13-.06-.26-.09-.39-.79,0-1.57,0-2.36,0-17.53,0-35.06-.03-52.59.04-1.73,0-2.48-.35-2.67-2.18-.62-5.96-1.37-11.91-2.15-17.86-.22-1.66.07-2.27,1.96-2.26,36.81.06,73.63.05,110.44.01,1.53,0,2.05.33,1.87,1.92Z"/>
  </g>
</svg>