<?xml version="1.0" encoding="UTF-8"?>
<svg id="Capa_2" data-name="Capa 2" xmlns="http://www.w3.org/2000/svg" viewBox="0 0 215.23 215.23">
  <defs>
    <style>
      .cls-1 {
        fill: #bababa;
      }
    </style>
  </defs>
  <g id="Capa_1-2" data-name="Capa 1">
    <path class="cls-1" d="m107.61,0C48.18,0,0,48.18,0,107.61s48.18,107.61,107.61,107.61,107.61-48.18,107.61-107.61S167.05,0,107.61,0ZM36.79,132.14c-1.01.92-2.2,1.38-3.57,1.38s-2.63-.46-3.66-1.37-1.54-2.19-1.54-3.83c0-1.39.49-2.59,1.47-3.59.98-1,2.19-1.5,3.62-1.5s2.66.5,3.67,1.49c1.01.99,1.52,2.19,1.52,3.61,0,1.62-.51,2.89-1.52,3.81Zm54.88-5.21c0,4.4-1.82,6.6-5.47,6.6-.91,0-1.73-.13-2.46-.39-.73-.26-1.41-.68-2.05-1.25-.64-.57-1.23-1.24-1.78-2s-1.09-1.54-1.64-2.34l-19.04-29.19v29.36c0,1.91-.44,3.36-1.33,4.34s-2.03,1.47-3.42,1.47-2.59-.5-3.45-1.49c-.87-.99-1.3-2.43-1.3-4.32v-38.66c0-1.64.18-2.93.55-3.86.43-1.03,1.15-1.86,2.15-2.51,1-.65,2.08-.97,3.25-.97.91,0,1.69.15,2.34.44.65.3,1.22.7,1.71,1.2.49.5.99,1.15,1.5,1.95.51.8,1.04,1.63,1.59,2.5l19.52,29.53v-29.8c0-1.94.42-3.39,1.25-4.36.83-.97,1.95-1.45,3.37-1.45s2.61.48,3.45,1.45c.84.97,1.26,2.42,1.26,4.36v39.41Zm48.52,4.63c-.81.74-2.01,1.11-3.61,1.11h-27.58c-2.21,0-3.8-.49-4.77-1.47-.97-.98-1.45-2.56-1.45-4.75v-37.67c0-1.46.22-2.65.65-3.57.43-.92,1.11-1.59,2.03-2.02s2.1-.63,3.54-.63h26.8c1.62,0,2.82.36,3.61,1.08.79.72,1.18,1.66,1.18,2.82s-.39,2.14-1.18,2.85c-.79.72-1.99,1.08-3.61,1.08h-22.87v12.3h21.05c1.55,0,2.71.35,3.47,1.04.76.7,1.15,1.61,1.15,2.75s-.38,2.07-1.13,2.79c-.75.72-1.91,1.08-3.49,1.08h-21.05v14.25h23.65c1.59,0,2.8.37,3.61,1.11.81.74,1.21,1.73,1.21,2.96s-.4,2.15-1.21,2.89Zm41.82-40.62h-11.07v36.4c0,2.1-.47,3.65-1.4,4.67-.93,1.01-2.14,1.52-3.62,1.52s-2.73-.51-3.67-1.54c-.95-1.03-1.42-2.57-1.42-4.65v-36.4h-11.07c-1.73,0-3.02-.38-3.86-1.15-.84-.76-1.26-1.77-1.26-3.02s.44-2.32,1.32-3.08c.88-.75,2.15-1.13,3.81-1.13h32.27c1.75,0,3.06.39,3.91,1.16.85.78,1.28,1.79,1.28,3.04s-.43,2.26-1.3,3.02c-.87.76-2.17,1.15-3.9,1.15Z"/>
  </g>
</svg>