<?xml version="1.0" encoding="UTF-8"?>
<svg id="Capa_2" data-name="Capa 2" xmlns="http://www.w3.org/2000/svg" viewBox="0 0 283.68 283.68">
  <defs>
    <style>
      .cls-1 {
        fill: #bababa;
        stroke-width: 0px;
      }
    </style>
  </defs>
  <g id="Capa_1-2" data-name="Capa 1">
    <g>
      <path class="cls-1" d="m142.52,0C63.36-.03,0,63.08,0,141.95c0,77.72,63.34,141.67,140.38,141.73,79.58.07,143.27-62.67,143.3-141.16C283.71,63.7,220.64.03,142.52,0Zm119.1,159.04c-.12,23.27-20.35,44.78-43.32,47.57-23.02,2.8-41.71-3.81-55.99-22.26-1.82,18.9-19.76,24.94-31.49,17.14-6.24-4.15-8.23-10.37-9.46-17.15.28-.09.5-.26.65-.52,2.21-3.77,6-2.99,9.07-2.42,7.25,1.35,14.32,1.31,21.57,0,3.06-.56,6.86-1.37,9.02,2.48.15.24.37.4.64.47-.11-.35-.23-.71-.35-1.06,3.15-7.21,2.43-11.47-3.81-16.23-13.27-10.13-21.54-9.16-34.81,2.24-4.5,3.87-5.07,8.86-1.63,13.98-.11.36-.23.71-.34,1.07-10.79,14.12-24.9,21.68-42.77,23.06-27.51,2.12-56.06-18.83-56.52-46.77-.2-12.34.4-24.71-.16-37.02-.8-17.63,7.09-30.93,20.09-41.47,4.38-3.55,6.99-7.35,8.63-12.52,3.74-11.8,6.33-12.27,14.97-3.15,1.06,1.12,2.09,2.28,3.84,4.21,1.33-5.45,2.06-10.21,3.68-14.64,2.43-6.62,6.19-7.52,11.13-2.36,10.7,11.15,21.47,22.29,31.36,34.14,12.52,14.99,39.91,15.01,52.41.01,9.72-11.66,20.3-22.62,30.79-33.6,5.79-6.06,9.56-4.95,12.25,3.27,1.26,3.88,1.76,8.01,3.01,13.97,2.99-3.43,5.06-5.97,7.3-8.35,4.38-4.66,8.65-3.59,9.94,2.04,2.15,9.37,8.21,15.23,14.9,21.27,10.64,9.6,15.97,21.71,15.5,36.36-.39,12.07-.04,24.16-.1,36.24Z"/>
      <path class="cls-1" d="m161.68,183.88c-13.22,2.27-26.44,2.28-39.65-.05-8.12-3.25-8.79-5.1-4.45-12.43,10.39-17.54,37.41-17.89,48.15-.62,4.84,7.78,4.21,9.82-4.04,13.1Z"/>
      <g>
        <path class="cls-1" d="m81.07,94.51c-19.59-1.8-36.48,9.95-40.18,28.59-2.36,11.89-2.2,24.08-.3,35.98,2.91,18.19,17.57,30.28,35.56,30.47,18.3.19,33.47-12,36.66-30.24.98-5.59.15-11.49.15-17.25.17,0,.33,0,.5,0,0-4.2.13-8.4-.02-12.59-.67-17.85-15.08-33.38-32.37-34.97Zm18.58,57.96c-.61,9.49-7.56,16.23-16.72,16.44-9.62.22-17.15-6.37-18.09-16.01-.28-2.86.13-5.79-.14-8.65-.42-4.58.04-7.42,5.87-8.48,7.02-1.28,10.34-8.2,7.18-14.62-2.6-5.28-.17-5.61,3.72-5.88,8.83-.6,17.06,6.16,18.02,15.17.41,3.89.07,7.86.07,11.79.04,0,.08,0,.12,0,0,3.41.18,6.83-.04,10.23Z"/>
        <path class="cls-1" d="m243.13,129.17c-.69-17.5-14.11-32.31-30.89-34.56-18.34-2.45-34.83,7.79-40.64,24.96-2.52,7.46-1.23,15.07-1.65,21.07,0,5.47-.09,9.4.02,13.33.53,19.8,15.98,35.19,35.64,35.57,20.27.39,36.55-14.39,37.5-34.43.41-8.63.37-17.31.03-25.95Zm-25.37,26.21c-1.52,7.97-8.11,13.24-16.06,13.53-8.5.31-15.25-4.56-17.61-12.68-1.57-5.4-.55-10.94-.89-16.4-.19-3.03,2.19-2.99,4.03-3.79,7.77-3.37,9.96-7.29,7.09-15.44-1.52-4.31.87-4.39,3.32-4.99,8.64-2.13,18.09,3.92,20.06,13.22.91,4.3.76,8.83,1.08,13.11-.32,4.6-.19,9.11-1.02,13.44Z"/>
      </g>
    </g>
  </g>
</svg>