<?xml version="1.0" encoding="UTF-8"?>
<svg id="Capa_2" data-name="Capa 2" xmlns="http://www.w3.org/2000/svg" viewBox="0 0 208.8 261.25">
  <defs>
    <style>
      .cls-1 {
        opacity: .73;
      }

      .cls-1, .cls-2 {
        fill: #b9b9b9;
      }
    </style>
  </defs>
  <g id="Capa_1-2" data-name="Capa 1">
    <g>
      <path class="cls-2" d="m102.02,222.87c-.45.68-.92,1.38-1.43,2.11,1.37-2.08,2.68-4.29,3.92-6.64,3.03-5.77,9.49-19.79,9.06-38.58-.62-27.29-15.33-45.77-20.16-51.37-5.38-5.37-18.15-16.69-38.13-22.03-1.32,22.73,2.78,41.03,5.82,51.5,6.01,20.74,16.4,34.78,21.71,42.26,3.79,5.33,9.73,13.6,19.05,22.52-3.15,5.22-8.35,12.49-16.5,19.41-7.08,6.01-14.01,9.73-19.19,12.02,8.33,3.19,21.6,7.1,38.24,7.17,7.89.03,15.07-.8,21.43-2.06,9.52-2,17.06-4.96,22.11-7.28-7.83-3.06-17.23-7.54-27.14-14.13-7.53-5.01-13.76-10.18-18.78-14.9Z"/>
      <path class="cls-1" d="m204.94,132.98c-5.69-23.78-17.36-40.02-24.04-48.07l-28.3-34.89c-14.34-16.67-28.69-33.34-43.03-50.01-4.82,3.71-10.25,8.44-15.77,14.34-5.36,5.74-9.6,11.34-12.92,16.28-7.33,10.9-17.79,29.47-22.87,54.67-1.48,7.32-2.33,14.35-2.71,21,19.98,5.33,32.75,16.65,38.13,22.03,4.83,5.6,19.54,24.08,20.16,51.37.43,18.79-6.03,32.81-9.06,38.58-.81,1.54-1.66,3.02-2.54,4.45.02.03.03.05.04.08,0,0,0,0,0,0,5.02,4.72,11.25,9.89,18.78,14.9,9.91,6.59,19.31,11.06,27.14,14.13,0,0,0,0,0,0,.09.03.16.07.24.11.11,0,.21.02.3.04.09-.04.18-.08.26-.12,4.37-1.88,10.27-4.82,16.67-9.3,2.18-1.53,12.53-8.91,22.69-22.45,4.04-5.38,12.05-16.26,16.83-32.08,7.25-24,2.52-44.5,0-55.05Z"/>
      <path class="cls-1" d="m82.82,200.16c-5.31-7.48-15.7-21.52-21.71-42.26-3.04-10.47-7.14-28.77-5.82-51.5-.59-.16-1.19-.31-1.8-.46-17.67-4.3-32.41-1.81-39.93,0C8.76,114.43.27,132.16,0,155.95c-.2,17.83,4.3,31.92,7.74,40.32,3.12,8.49,10.7,25.5,27.91,39.93,11.8,9.89,22.59,15.35,30.42,17.88.03,0,.07.02.1.03,5.18-2.29,12.11-6.01,19.19-12.02,8.15-6.92,13.36-14.19,16.5-19.41-9.32-8.92-15.27-17.18-19.05-22.52Z"/>
    </g>
  </g>
</svg>