<?xml version="1.0" encoding="UTF-8"?>
<svg id="Capa_2" data-name="Capa 2" xmlns="http://www.w3.org/2000/svg" viewBox="0 0 298.17 298.17">
  <defs>
    <style>
      .cls-1 {
        fill: #bababa;
        stroke-width: 0px;
      }
    </style>
  </defs>
  <g id="Capa_1-2" data-name="Capa 1">
    <path class="cls-1" d="m144.81,0h8.56c4.53.71,7.99,3.1,11.2,6.32,42.18,42.29,84.42,84.52,126.69,126.72,3.56,3.55,6.46,7.34,6.91,12.54v7.79c-.52,5.34-3.62,9.21-7.23,12.83-41.59,41.58-83.17,83.16-124.75,124.75-3.61,3.61-7.48,6.71-12.83,7.23h-7.79c-5.2-.45-8.99-3.35-12.54-6.91-42.2-42.27-84.43-84.51-126.72-126.69-3.22-3.21-5.61-6.68-6.32-11.2v-8.56c.41-5.22,3.28-9.04,6.85-12.6,27.74-27.67,55.43-55.4,83.14-83.1.64-.64,1.31-1.26,1.94-1.91,2.01-2.07,3.97-2.1,6.05-.05,2.86,2.83,5.7,5.68,8.55,8.52,6.52,6.51,12.97,13.09,19.57,19.51,2.59,2.51,3.47,5.04,2.57,8.68-2.21,8.96,1.51,17.99,9.42,22.83,2.82,1.72,3.87,3.73,3.86,6.92-.07,24.52-.08,49.05,0,73.57.01,3.38-1.35,5.43-4.03,7.36-11.24,8.06-13.36,21.81-4.88,31.94,5.9,7.06,13.76,9.27,22.48,6.92,8.46-2.28,13.87-8.09,15.44-16.79,1.53-8.44-.97-15.81-8.02-20.93-3.22-2.34-4.46-4.84-4.44-8.74.13-23.35.05-46.71.09-70.07,0-1.88-.76-4.51,1.21-5.34,1.98-.83,3.32,1.57,4.65,2.89,8.02,7.94,15.94,15.99,23.99,23.9,2.25,2.22,2.96,4.35,2.22,7.61-2.74,12,4.6,23,16.99,26,10.49,2.54,22.04-4.77,25.07-15.86,3.04-11.15-3.64-22.76-15.07-26.22-3.28-.99-6.57-1.58-9.94-.51-2.48.79-4.5.21-6.35-1.65-9.52-9.56-19.07-19.1-28.62-28.63-1.84-1.83-2.41-3.8-1.82-6.34,3.27-14.14-10.05-28.51-24.95-25.43-2.99.62-5.21-.16-7.33-2.31-9.4-9.5-18.9-18.9-28.31-28.39-3.37-3.4-3.38-4.39-.1-7.7,7.76-7.84,15.6-15.59,23.37-23.42,3.13-3.15,6.8-5.03,11.21-5.48Z"/>
  </g>
</svg>