<?xml version="1.0" encoding="UTF-8"?>
<svg id="Capa_2" data-name="Capa 2" xmlns="http://www.w3.org/2000/svg" viewBox="0 0 227.85 227.85">
  <defs>
    <style>
      .cls-1 {
        fill: #bababa;
        stroke-width: 0px;
      }
    </style>
  </defs>
  <g id="Capa_1-2" data-name="Capa 1">
    <g>
      <path class="cls-1" d="m128.96,226.86c-1.21.16-2.42.3-3.64.42,1.22-.12,2.43-.26,3.64-.42Z"/>
      <path class="cls-1" d="m132.52,226.33c-1.09.18-2.19.35-3.3.49,1.11-.15,2.2-.31,3.3-.49Z"/>
      <path class="cls-1" d="m109.44,227.75c-.89-.03-1.77-.08-2.65-.13.88.05,1.77.1,2.65.13Z"/>
      <path class="cls-1" d="m105.87,227.56c-2.38-.17-4.74-.4-7.08-.71,2.34.31,4.7.55,7.08.71Z"/>
      <path class="cls-1" d="m94.8,226.24c-3.65-.62-7.24-1.41-10.76-2.36,3.52.96,7.11,1.75,10.76,2.36Z"/>
      <path class="cls-1" d="m125.25,227.29c-1.1.11-2.21.2-3.32.28,1.11-.08,2.22-.17,3.32-.28Z"/>
      <path class="cls-1" d="m120.99,227.62c-.87.05-1.74.1-2.61.13.87-.03,1.74-.08,2.61-.13Z"/>
      <path class="cls-1" d="m85.11,207.79c-.04-2.43-.17-4.85-.27-7.28-2.39.29-4.78.6-7.17.85-14.33,1.5-27.3-4.55-32.15-18.37-2.28-6.51-6.18-12.11-12.16-16.04-1.93-1.27-5.18-2.72-4.12-5.27,1.17-2.82,4.65-1.76,7.28-1.54.36.03.69.22,1.05.32,6.78,1.89,11.18,6.56,14.73,12.35,7.05,11.52,18.45,15.12,30.96,9.92.89-.37,1.99-.51,2.18-1.67.91-5.56,3.13-10.56,6.82-14.99-2.1-.35-3.79-.63-5.47-.92-1.68-.29-3.37-.53-5.04-.89-18.07-3.96-31.79-13.19-37.97-31.49-1.45-4.28-2.38-8.69-2.92-13.17-1.85-15.22-.56-29.75,9.83-42.11,1.01-1.2,1.12-2.27.7-3.66-2.48-8.19-2.02-16.38.18-24.53,1.48-5.47,2.02-5.76,7.62-4.73,8.44,1.55,15.8,5.57,22.82,10.25,1.98,1.33,3.67,1.71,6.02,1.1,12.89-3.36,25.98-3.97,39.19-2.34,5.09.63,10.3,3.18,14.98,2.54,4.79-.66,9.09-4.78,13.65-7.31,1.48-.82,3.08-1.45,4.68-2.05,3.54-1.34,7.16-2.33,10.98-2.56,2.03-.12,3.09.58,3.71,2.55,2.74,8.8,3.64,17.66,1.02,26.62-.54,1.86-.23,3.12.99,4.61,4.78,5.86,7.84,12.54,9.19,20.01,1.48,8.16,1.06,16.31-.22,24.4-3.17,20.08-13.86,33.89-33.73,39.96-5.6,1.71-11.33,2.7-17.55,3.64,5.56,6.12,7.45,13.05,7.48,20.57.04,10.86-.06,21.72-.06,32.59,0,2.01.42,3.61,1.19,4.79-3.48.94-7.03,1.71-10.64,2.32,53.88-9.04,94.94-55.89,94.94-112.34C227.85,51,176.84,0,113.92,0S0,51,0,113.92c0,52.57,35.61,96.82,84.03,109.95.75-1.22,1.15-2.92,1.15-5.1,0-3.66-.01-7.32-.07-10.98Z"/>
      <path class="cls-1" d="m117.4,227.79c-1.16.03-2.31.06-3.48.06,1.16,0,2.32-.02,3.48-.06Z"/>
      <path class="cls-1" d="m98.42,226.79c-1.1-.15-2.19-.31-3.27-.49,1.09.18,2.18.35,3.27.49Z"/>
      <path class="cls-1" d="m113.92,227.85c-1.17,0-2.34-.02-3.51-.06,1.16.04,2.33.06,3.51.06Z"/>
      <path class="cls-1" d="m98.79,226.84c-.12-.02-.25-.04-.37-.05.12.02.25.04.37.05Z"/>
      <path class="cls-1" d="m110.42,227.79c-.33,0-.66-.02-.98-.04.33.01.65.03.98.04Z"/>
      <path class="cls-1" d="m106.78,227.62c-.3-.02-.61-.04-.91-.06.3.02.61.04.91.06Z"/>
      <path class="cls-1" d="m117.4,227.79c.33,0,.66-.02.98-.04-.33.01-.65.03-.98.04Z"/>
      <path class="cls-1" d="m95.15,226.3c-.12-.02-.24-.04-.35-.06.12.02.24.04.35.06Z"/>
      <path class="cls-1" d="m129.22,226.82c-.09.01-.18.03-.27.04.09-.01.18-.03.27-.04Z"/>
      <path class="cls-1" d="m121.93,227.56c-.31.02-.62.04-.93.06.31-.02.62-.04.93-.06Z"/>
      <path class="cls-1" d="m125.32,227.28s-.05,0-.08,0c.03,0,.05,0,.08,0Z"/>
      <path class="cls-1" d="m132.91,226.26c-.13.02-.25.04-.38.06.13-.02.25-.04.38-.06Z"/>
      <polygon class="cls-1" points="84.03 223.87 84.03 223.88 84.03 223.87 84.03 223.87"/>
    </g>
  </g>
</svg>