<?xml version="1.0" encoding="UTF-8"?>
<svg id="Capa_2" data-name="Capa 2" xmlns="http://www.w3.org/2000/svg" viewBox="0 0 244.58 244.58">
  <defs>
    <style>
      .cls-1 {
        fill: #bababa;
        stroke-width: 0px;
      }
    </style>
  </defs>
  <g id="Capa_1-2" data-name="Capa 1">
    <g>
      <path class="cls-1" d="m98,84.79h-.65c-2.57,11.22-5.41,23.65-8.36,34.28l-2.55,9.83h22.74l-2.54-9.83c-2.95-10.63-5.79-23.19-8.63-34.28Z"/>
      <path class="cls-1" d="m199.67,0H44.91C20.11,0,0,20.11,0,44.91v154.76c0,24.8,20.11,44.91,44.91,44.91h154.76c24.8,0,44.91-20.11,44.91-44.91V44.91c0-24.8-20.11-44.91-44.91-44.91Zm-79.14,172.89l-6.54-25.32h-32.4l-6.57,25.32h-24.56l33.38-106.28h28.75l33.38,106.28h-25.43Zm58.93,0h-23.97v-80.9h23.97v80.9Zm-11.96-92.73c-8.04,0-13.87-5.24-13.87-12.53s5.83-12.53,13.87-12.53,13.87,5.18,13.87,12.53-5.83,12.53-13.87,12.53Z"/>
    </g>
  </g>
</svg>