<?xml version="1.0" encoding="UTF-8"?>
<svg id="Capa_2" data-name="Capa 2" xmlns="http://www.w3.org/2000/svg" viewBox="0 0 261.35 261.35">
  <defs>
    <style>
      .cls-1 {
        fill: #b9b9b9;
      }
    </style>
  </defs>
  <g id="Capa_1-2" data-name="Capa 1">
    <path class="cls-1" d="m130.68,0C58.51,0,0,58.51,0,130.67s58.51,130.67,130.68,130.67,130.68-58.51,130.68-130.67S202.84,0,130.68,0Zm23.07,37.34c-5.42,7.15-8.61,15.85-8.61,25.24,0,24.32,21.35,44.03,47.68,44.03,11.73,0,22.48-3.91,30.78-10.4-8.62,11.36-22.91,18.79-39.07,18.79-26.33,0-47.68-19.71-47.68-44.03,0-13.48,6.56-25.55,16.9-33.63Zm-36.86,9.7c-8.32,10.92-13.21,24.23-13.21,38.6,0,37.05,32.48,67.09,72.56,67.09,17.89,0,34.26-5.98,46.91-15.91-13.13,17.23-34.82,28.49-59.35,28.49-40.07,0-72.56-30.04-72.56-67.09,0-20.51,9.96-38.88,25.65-51.18Zm19.96,176.98c-54.96,0-99.51-42.24-99.51-94.35,0-25.94,11.04-49.44,28.92-66.5-7.86,13.5-12.33,29.02-12.33,45.53,0,52.11,44.55,94.35,99.51,94.35,27.59,0,52.56-10.65,70.59-27.85-16.94,29.1-49.63,48.82-87.17,48.82Z"/>
  </g>
</svg>