<?xml version="1.0" encoding="UTF-8"?>
<svg id="Capa_2" data-name="Capa 2" xmlns="http://www.w3.org/2000/svg" viewBox="0 0 218.84 256.97">
  <defs>
    <style>
      .cls-1 {
        fill: #bababa;
        stroke-width: 0px;
      }
    </style>
  </defs>
  <g id="Capa_1-2" data-name="Capa 1">
    <path class="cls-1" d="m25.12,243.14c13.55,1.62,28.78,10.4,41.52,11.95,12.81,1.62,16.78-8.72,16.78-8.72,0,0,14.42-3.22,29.57-3.59,15.17-.43,29.53,3.16,29.53,3.16,0,0,2.79,6.38,7.98,9.16,5.2,2.84,16.39,3.22,23.57-4.33,7.19-7.61,26.36-17.2,37.13-23.2,10.84-6.01,8.85-15.17,2.04-17.96-6.8-2.78-12.37-7.17-11.95-15.6.37-8.35-6.01-13.92-6.01-13.92,0,0,5.58-18.38.38-33.61-5.2-15.16-22.35-39.53-35.53-57.86-13.18-18.38-1.99-39.6-13.99-66.72-12-27.16-43.13-25.55-59.9-13.98-16.78,11.58-11.63,40.29-10.82,53.91.81,13.55.37,23.25-1.18,26.74-1.55,3.54-12.37,16.39-19.56,27.16-7.17,10.82-12.37,33.17-17.63,42.39-5.14,9.16-1.55,17.52-1.55,17.52,0,0-3.59,1.23-6.43,7.24-2.79,5.94-8.35,8.78-18.38,10.71-9.96,2.04-9.96,8.46-7.56,15.65,2.41,7.17,0,11.19-2.79,20.36-2.78,9.16,11.15,11.95,24.76,13.55Zm140.88-41.8c7.12,3.11,17.35-1.22,20.47-4.33,3.1-3.1,5.3-7.71,5.3-7.71,0,0,3.11,1.55,2.8,6.47-.33,4.99,2.14,12.11,6.8,14.58,4.66,2.46,11.78,5.88,8.09,9.31-3.76,3.43-24.55,11.8-30.77,18.33-6.16,6.49-14.25,11.8-19.18,10.23-4.98-1.55-9.33-8.35-7.19-18.31,2.21-9.92,4.07-20.8,3.76-27.01-.33-6.21-1.55-14.58,0-15.82,1.55-1.22,4.02-.63,4.02-.63,0,0-1.24,11.79,5.9,14.88ZM119.79,33.47c6.86,0,12.39,6.8,12.39,15.17,0,5.94-2.79,11.08-6.86,13.55-1.03-.43-2.1-.91-3.28-1.4,2.47-1.22,4.18-4.33,4.18-7.93,0-4.7-2.89-8.57-6.53-8.57s-6.49,3.87-6.49,8.57c0,1.72.43,3.43,1.12,4.77-2.14-.86-4.07-1.6-5.62-2.19-.81-2.04-1.29-4.35-1.29-6.8,0-8.37,5.51-15.17,12.37-15.17Zm-16.98,26.15c3.37.59,12.65,4.61,16.08,5.84,3.43,1.18,7.23,3.37,6.86,5.57-.43,2.26-2.19,2.26-6.86,5.1-4.61,2.79-14.68,9-17.9,9.42-3.21.43-5.03-1.39-8.46-3.59-3.43-2.25-9.86-7.5-8.24-10.29,0,0,5.03-3.85,7.23-5.83,2.2-2.04,7.87-6.86,11.3-6.23Zm-14.79-23.73c5.4,0,9.81,6.43,9.81,14.36,0,1.44-.16,2.78-.43,4.13-1.34.43-2.69,1.12-3.98,2.25-.63.54-1.22,1.01-1.76,1.55.85-1.6,1.18-3.91.8-6.32-.74-4.28-3.64-7.45-6.47-7.02-2.85.48-4.55,4.4-3.87,8.74.75,4.39,3.59,7.56,6.49,7.08.16-.05.32-.11.48-.16-1.39,1.34-2.67,2.52-4.02,3.48-3.91-1.82-6.8-7.28-6.8-13.72,0-7.98,4.33-14.36,9.75-14.36Zm-30.11,103.78c5.57-8.78,9.16-27.97,14.73-34.35,5.62-6.36,9.96-19.93,7.98-25.93,0,0,12,14.36,20.36,12,8.37-2.41,27.17-16.39,29.96-13.99,2.79,2.41,26.74,55.09,29.15,71.86,2.41,16.76-1.6,29.57-1.6,29.57,0,0-9.16-2.41-10.34,3.15-1.18,5.62-1.18,25.99-1.18,25.99,0,0-12.39,17.15-31.56,19.99-19.18,2.79-28.78.75-28.78.75l-10.77-12.33s8.37-1.23,7.19-9.64c-1.18-8.35-25.57-19.93-29.96-30.33-4.39-10.4-.81-27.97,4.83-36.76Zm-47.42,62.91c.96-4.11,13.39-4.11,18.16-7.01,4.77-2.89,5.73-11.21,9.59-13.4,3.8-2.25,10.82,5.73,13.72,10.23,2.84,4.39,13.72,23.58,18.16,28.35,4.5,4.81,8.63,11.19,7.34,16.93-1.22,5.73-7.98,9.92-7.98,9.92-6.05,1.87-22.92-5.42-30.59-8.63-7.67-3.22-27.17-4.18-29.68-7.02-2.58-2.89,1.23-9.27,2.25-15.32.9-6.12-1.93-9.92-.96-14.05Z"/>
  </g>
</svg>