<?xml version="1.0" encoding="UTF-8"?>
<svg id="Capa_2" data-name="Capa 2" xmlns="http://www.w3.org/2000/svg" viewBox="0 0 215.23 215.23">
  <defs>
    <style>
      .cls-1 {
        fill: #bababa;
        stroke-width: 0px;
      }
    </style>
  </defs>
  <g id="Capa_1-2" data-name="Capa 1">
    <g>
      <path class="cls-1" d="m101.37,133.11c-1.15,0-2.16.3-3.03.89-.87.59-1.55,1.47-2.02,2.63s-.71,2.51-.71,4.06.23,2.87.7,4.02c.47,1.15,1.13,2.02,2,2.63.87.61,1.89.91,3.06.91,1.78,0,3.19-.67,4.24-2.01,1.05-1.34,1.58-3.19,1.58-5.55s-.53-4.25-1.58-5.59-2.47-2-4.24-2Z"/>
      <path class="cls-1" d="m146.08,132.81c-1.46,0-2.66.5-3.6,1.51-.94,1.01-1.51,2.5-1.71,4.48h10.63c-.14-2-.68-3.5-1.62-4.5-.94-1-2.17-1.49-3.71-1.49Z"/>
      <path class="cls-1" d="m107.62,0C48.18,0,0,48.18,0,107.62s48.18,107.62,107.62,107.62,107.62-48.18,107.62-107.62S167.05,0,107.62,0Zm-8.24,66.39c0-1.46.22-2.65.65-3.57.43-.92,1.11-1.59,2.03-2.02s2.1-.63,3.54-.63h26.8c1.62,0,2.82.36,3.61,1.08.79.72,1.18,1.66,1.18,2.82s-.39,2.14-1.18,2.85c-.79.72-1.99,1.08-3.61,1.08h-22.87v12.3h21.05c1.55,0,2.71.35,3.47,1.04.76.7,1.15,1.61,1.15,2.75s-.38,2.07-1.13,2.79c-.75.72-1.91,1.08-3.49,1.08h-21.05v14.25h23.65c1.59,0,2.8.37,3.61,1.11.81.74,1.21,1.73,1.21,2.96s-.4,2.15-1.21,2.89c-.81.74-2.01,1.11-3.61,1.11h-27.58c-2.21,0-3.8-.49-4.77-1.47-.97-.98-1.45-2.56-1.45-4.75v-37.67Zm-65.98,43.36c-1.01.92-2.2,1.38-3.57,1.38s-2.63-.46-3.66-1.37-1.54-2.19-1.54-3.83c0-1.39.49-2.59,1.47-3.59.98-1,2.19-1.5,3.62-1.5s2.66.5,3.67,1.49c1.01.99,1.52,2.19,1.52,3.61,0,1.62-.51,2.89-1.52,3.81Zm51.66,35.64c-.49,1.17-1.27,2.31-2.33,3.44-1.06,1.12-2.41,2.04-4.06,2.74-1.65.7-3.57,1.05-5.76,1.05-1.66,0-3.17-.16-4.53-.47-1.36-.31-2.6-.81-3.71-1.47-1.11-.67-2.13-1.54-3.06-2.63-.83-.99-1.54-2.09-2.13-3.32-.59-1.22-1.03-2.53-1.32-3.92-.29-1.39-.44-2.86-.44-4.43,0-2.54.37-4.8,1.11-6.81.74-2,1.79-3.72,3.17-5.15,1.38-1.42,2.99-2.51,4.83-3.25,1.85-.74,3.82-1.12,5.91-1.12,2.55,0,4.82.51,6.81,1.53,1.99,1.02,3.52,2.27,4.58,3.77,1.06,1.5,1.59,2.91,1.59,4.24,0,.73-.26,1.38-.77,1.93s-1.14.84-1.87.84c-.82,0-1.43-.19-1.84-.58s-.86-1.05-1.36-2c-.83-1.56-1.81-2.73-2.93-3.5-1.12-.77-2.51-1.16-4.16-1.16-2.62,0-4.71,1-6.26,2.99-1.55,1.99-2.33,4.82-2.33,8.49,0,2.45.34,4.49,1.03,6.11.69,1.63,1.66,2.84,2.92,3.64,1.26.8,2.74,1.2,4.43,1.2,1.83,0,3.38-.45,4.65-1.36,1.27-.91,2.22-2.25,2.87-4.01.27-.83.61-1.51,1.01-2.03.4-.52,1.05-.78,1.93-.78.76,0,1.41.27,1.96.79.54.53.82,1.19.82,1.98,0,1-.25,2.09-.74,3.25Zm3.22-40.86c0,4.4-1.82,6.6-5.47,6.6-.91,0-1.73-.13-2.46-.39-.73-.26-1.41-.68-2.05-1.25-.64-.57-1.23-1.24-1.78-2s-1.09-1.54-1.64-2.34l-19.04-29.19v29.36c0,1.91-.44,3.36-1.33,4.34s-2.03,1.47-3.42,1.47-2.59-.5-3.45-1.49c-.87-.99-1.3-2.43-1.3-4.32v-38.66c0-1.64.18-2.93.55-3.86.43-1.03,1.15-1.86,2.15-2.51,1-.65,2.08-.97,3.25-.97.91,0,1.69.15,2.34.44.65.3,1.22.7,1.71,1.2.49.5.99,1.15,1.5,1.95.51.8,1.04,1.63,1.59,2.5l19.52,29.53v-29.8c0-1.94.42-3.39,1.25-4.36.83-.97,1.95-1.45,3.37-1.45s2.61.48,3.45,1.45c.84.97,1.26,2.42,1.26,4.36v39.41Zm23.99,40.99c-.54,1.48-1.33,2.74-2.36,3.8-1.03,1.06-2.26,1.87-3.7,2.44-1.43.57-3.04.85-4.83.85s-3.37-.29-4.79-.86-2.65-1.39-3.68-2.46c-1.04-1.07-1.83-2.33-2.36-3.78-.54-1.45-.81-3.06-.81-4.82s.27-3.4.82-4.88c.54-1.47,1.32-2.74,2.34-3.78,1.02-1.04,2.25-1.85,3.7-2.42,1.45-.57,3.04-.85,4.79-.85s3.39.29,4.83.86c1.45.57,2.69,1.39,3.72,2.45,1.03,1.06,1.82,2.32,2.35,3.78s.81,3.07.81,4.83-.27,3.36-.82,4.83Zm20.76-11.61c-.49.47-1.03.7-1.6.7-.21,0-.73-.13-1.56-.4-.82-.26-1.55-.4-2.18-.4-.86,0-1.56.23-2.11.68-.54.45-.97,1.12-1.27,2.01-.3.89-.51,1.94-.62,3.17-.11,1.22-.17,2.72-.17,4.48v4.9c0,1.19-.28,2.08-.84,2.67s-1.27.89-2.13.89-1.54-.3-2.08-.9c-.54-.6-.82-1.49-.82-2.66v-16.33c0-2.63.95-3.95,2.86-3.95.97,0,1.68.31,2.11.92.43.62.67,1.53.71,2.73.7-1.2,1.42-2.11,2.16-2.73.74-.62,1.72-.92,2.95-.92s2.43.31,3.59.92c1.16.62,1.74,1.43,1.74,2.45,0,.72-.25,1.31-.74,1.77Zm8.55,11.74c.52,1.02,1.22,1.78,2.08,2.3.87.52,1.82.77,2.87.77.7,0,1.34-.08,1.92-.25.58-.16,1.14-.42,1.69-.77.54-.35,1.05-.73,1.5-1.13.46-.4,1.05-.95,1.78-1.63.3-.26.73-.39,1.29-.39.6,0,1.09.17,1.46.49.37.33.56.79.56,1.4,0,.53-.21,1.15-.62,1.86-.42.71-1.04,1.39-1.88,2.04-.84.65-1.89,1.19-3.16,1.62s-2.73.64-4.37.64c-3.77,0-6.7-1.07-8.79-3.22-2.09-2.15-3.14-5.06-3.14-8.74,0-1.73.26-3.34.77-4.82s1.27-2.75,2.26-3.81c.99-1.06,2.21-1.87,3.65-2.44,1.45-.57,3.05-.85,4.81-.85,2.29,0,4.26.48,5.9,1.45,1.64.97,2.87,2.22,3.68,3.75.82,1.53,1.22,3.09,1.22,4.68,0,1.48-.42,2.43-1.27,2.87-.85.44-2.03.66-3.57.66h-11.47c.01,1.33.28,2.51.81,3.52Zm40.93-78.26c-.87.76-2.17,1.15-3.9,1.15h-11.07v36.4c0,2.1-.47,3.65-1.4,4.67-.93,1.01-2.14,1.52-3.62,1.52s-2.73-.51-3.67-1.54c-.95-1.03-1.42-2.57-1.42-4.65v-36.4h-11.07c-1.73,0-3.02-.38-3.86-1.15-.84-.76-1.26-1.77-1.26-3.02s.44-2.32,1.32-3.08c.88-.75,2.15-1.13,3.81-1.13h32.27c1.75,0,3.06.39,3.91,1.16.85.78,1.28,1.79,1.28,3.04s-.43,2.26-1.3,3.02Z"/>
    </g>
  </g>
</svg>