<?xml version="1.0" encoding="UTF-8"?>
<svg id="Capa_2" data-name="Capa 2" xmlns="http://www.w3.org/2000/svg" viewBox="0 0 242.24 267.02">
  <defs>
    <style>
      .cls-1 {
        fill: #bababa;
        stroke-width: 0px;
      }
    </style>
  </defs>
  <g id="Capa_1-2" data-name="Capa 1">
    <g>
      <path class="cls-1" d="m242.2,133.56c0,18.31-.09,36.63.04,54.94.06,9.1-3.87,15.59-11.71,20-32.77,18.45-65.51,36.95-98.27,55.4-7.58,4.27-15.17,4.11-22.68-.23-10.43-6.02-20.86-12.02-31.28-18.06-1.53-.88-4.05-1.69-3.92-3.26.16-1.9,2.85-1.94,4.56-2.53,3.74-1.29,7.35-2.89,10.71-4.95,2.09-1.28,3.72-1.07,5.73.12,7.54,4.48,15.21,8.74,22.72,13.26,2.25,1.35,4.03,1.15,6.19-.07,26.71-15.13,53.45-30.19,80.18-45.27,5.76-3.25,11.5-6.54,17.3-9.72,1.78-.97,2.52-2.23,2.52-4.27-.04-36.92-.03-73.85.01-110.77,0-2.03-.73-3.32-2.49-4.31-32.78-18.43-65.54-36.89-98.29-55.38-1.67-.94-3.13-.95-4.8,0-32.75,18.49-65.51,36.96-98.28,55.4-1.76.99-2.53,2.27-2.53,4.3.03,36.92.03,73.85,0,110.77,0,1.93.69,3.17,2.4,4.12,8.57,4.77,17.07,9.67,25.65,14.43,4.36,2.42,8.99,3.93,14.1,3.07,6.59-1.11,10.82-6.01,10.82-12.69.03-36.4.03-72.81.04-109.21,0-4.01.66-4.68,4.62-4.69,3.35,0,6.7-.02,10.05,0,2.99.02,3.81.85,3.82,3.88.01,15.34.01,30.67,0,46.01,0,21.44-.05,42.88-.03,64.32,0,4.5-.49,8.9-2.02,13.15-3.73,10.35-11.52,15.48-22.05,17-9.14,1.32-17.77-.46-25.95-4.56-10.04-5.03-19.72-10.72-29.41-16.37C3.37,203.57.03,197.47.02,189.79-.01,152.27,0,114.75.02,77.23c0-1.86.17-3.7.71-5.51,1.61-5.37,4.74-9.57,9.64-12.34C43.68,40.55,76.99,21.7,110.37,2.96c7.06-3.96,14.47-3.95,21.53.02,33.3,18.71,66.56,37.5,99.79,56.34,6.96,3.95,10.5,10.11,10.5,18.18,0,18.69,0,37.37,0,56.06Z"/>
      <path class="cls-1" d="m152.04,189.32c-11.07-.32-21.73-1.06-31.84-5.19-13.64-5.58-21.26-16.43-21.15-30.11.02-2.76.8-3.59,3.59-3.62,3.95-.04,7.89.02,11.84-.01,1.97-.02,3.09.9,3.32,2.84,1.17,9.64,6.69,15.4,16.05,17.22,12.17,2.37,24.4,2.38,36.55-.3,2.4-.53,4.6-1.68,6.63-3.1,4.25-2.96,6.32-9.28,4.52-14.1-.86-2.3-2.7-3.69-4.85-4.69-5.46-2.52-11.33-3.5-17.21-4.38-9.92-1.49-19.99-1.88-29.83-4.01-4.58-.99-9.07-2.28-13.3-4.35-10.07-4.91-14.36-13.24-13.87-24.11.6-13.18,8.26-22.51,21.67-26.94,10.2-3.37,20.68-3.87,31.3-3.31,8.47.45,16.7,1.9,24.38,5.62,11.66,5.65,17,15.45,17.94,27.99.18,2.35-.75,3.34-3.08,3.38-4.17.07-8.34,0-12.51-.02-1.8,0-2.65-1.09-3.1-2.66-.37-1.28-.67-2.59-1.12-3.84-2.06-5.67-5.85-9.72-11.72-11.31-11.5-3.13-23.11-3.19-34.59-.1-6.26,1.68-9.35,5.83-9.39,11.25-.03,4.43,1.54,6.7,5.75,8.23,4.28,1.55,8.74,2.37,13.21,3.13,10.76,1.84,21.69,2.66,32.37,5.03,4.94,1.09,9.82,2.4,14.41,4.59,8.99,4.3,13.42,11.46,13.84,21.4.72,17.02-9.35,27.18-24.39,31.96-8.38,2.66-17.04,3.31-25.43,3.5Z"/>
    </g>
  </g>
</svg>