<?xml version="1.0" encoding="UTF-8"?>
<svg id="Capa_2" data-name="Capa 2" xmlns="http://www.w3.org/2000/svg" viewBox="0 0 261.35 261.35">
  <defs>
    <style>
      .cls-1 {
        fill: #bababa;
      }
    </style>
  </defs>
  <g id="Capa_1-2" data-name="Capa 1">
    <path class="cls-1" d="m191.56,0h-121.77C31.25,0,0,31.25,0,69.79v121.77c0,38.54,31.25,69.79,69.79,69.79h121.77c38.54,0,69.79-31.25,69.79-69.79v-121.77C261.35,31.25,230.1,0,191.56,0Zm21.48,131.19l-44.42,44.42c-1.95,1.95-5.12,1.95-7.07,0l-17.16-17.16c-1.95-1.95-1.95-5.12,0-7.07l32.15-32.15c7.06-7.06,7.06-18.51,0-25.57l-25.07-25.07c-5.86-5.86-15.36-5.86-21.21,0l-51.49,51.49c-5.86,5.86-5.86,15.36,0,21.21l51.49,51.49c5.86,5.86,15.36,5.86,21.21,0l10.09-10.09c1.95-1.95,5.12-1.95,7.07,0l17.16,17.16c1.95,1.95,1.95,5.12,0,7.07l-20.18,20.18c-13.67,13.67-35.83,13.67-49.5,0l-71.67-71.67c-13.67-13.67-13.67-35.83,0-49.5L116.1,34.25c13.67-13.67,35.83-13.67,49.5,0l47.44,47.44c13.67,13.67,13.67,35.83,0,49.5Z"/>
  </g>
</svg>