<?xml version="1.0" encoding="UTF-8"?>
<svg id="Capa_2" data-name="Capa 2" xmlns="http://www.w3.org/2000/svg" viewBox="0 0 262.41 262.38">
  <defs>
    <style>
      .cls-1 {
        fill: #bababa;
        stroke-width: 0px;
      }
    </style>
  </defs>
  <g id="Capa_1-2" data-name="Capa 1">
    <g>
      <path class="cls-1" d="m75.84,136.41c4.84-3.53,10.37-5.29,16.18-6.38,8.05-1.5,16.22-1.58,24.35-1.75,14.67-.31,29.37.46,44.02-.81,4.82-.42,9.57-1.16,14.21-2.58,6.8-2.08,12.06-6.07,15.5-12.36,2.05-3.74,3.32-7.76,4.25-11.9,2.09-9.38,2.62-18.94,2.77-28.49.2-12.94.03-25.88.06-38.82.01-4.21-1.28-7.96-3.64-11.4-3.61-5.25-8.58-8.92-14.13-11.78C166.57,3.53,152.83.36,138.4.13c0,.03,0,.05.01.08-.96.04-1.92.18-2.85-.21h-8.71c-.92.39-1.89.26-2.85.21,0-.03,0-.05.01-.08-.02,0-.04,0-.05,0-1.84-.08-3.68,0-5.49.17-10.27.91-20.25,3.08-29.77,7.13-6.94,2.95-13.38,6.67-18.34,12.52-3.28,3.88-5.18,8.28-5.15,13.45.04,7.69.01,15.37.01,23.06,0,2.82.05,2.86,2.86,2.86,20.03,0,40.06,0,60.09,0,.43,0,.86.02,1.28,0,.96-.05,1.44.32,1.38,1.34-.04.72,0,1.45,0,2.18q0,2.37-2.39,2.37c-31.73,0-63.47,0-95.2,0-2.43,0-4.76.42-7,1.33-4.69,1.9-8.3,5.17-11.36,9.1-3.66,4.69-6.34,9.92-8.42,15.47C2.47,101.71.2,112.64.13,124c0,0,0,0,0,0,.03,0,.06,0,.09-.01.05,1.13.2,2.26-.22,3.36v7.69c.42,1.01.28,2.07.21,3.11l-.08.02c0,3.78.24,7.54.78,11.28,1.47,10.12,4.07,19.91,8.77,29.05,2.61,5.08,5.74,9.79,10.23,13.47,4.14,3.39,8.73,5.33,14.2,5.23,7.51-.15,15.03-.04,22.55-.04.47,0,.94,0,1.41-.03.77-.05,1.2-.45,1.2-1.21,0-1.24.31-2.46.29-3.7-.09-7.01.26-13.99,1.04-20.95.75-6.68,1.84-13.28,4.25-19.6,2.3-6.06,5.65-11.37,10.99-15.26Zm19.25-91.51c-6.73-.02-12.09-5.41-12.08-12.13,0-6.71,5.4-12.07,12.14-12.07,6.71,0,12.13,5.43,12.1,12.13-.03,6.72-5.44,12.1-12.16,12.08Z"/>
      <path class="cls-1" d="m.13,124.01s-.09.01-.13.02v3.33c.28-1.11.06-2.23.13-3.35Z"/>
      <path class="cls-1" d="m0,135.05v3.07l.1.07h.03s0-.05,0-.08c-.08-1.02.17-2.06-.13-3.07Z"/>
      <path class="cls-1" d="m126.85,0h-2.82s-.01.09-.02.13c.94-.06,1.9.14,2.84-.13Z"/>
      <path class="cls-1" d="m138.37.13s.02,0,.03,0c0-.04,0-.09-.02-.13h-2.82c.93.28,1.87.06,2.81.13Z"/>
      <path class="cls-1" d="m261.92,120.11c-.89-10.29-2.89-20.33-6.74-29.94-2.65-6.62-6.02-12.82-11.16-17.88-3.94-3.88-8.48-6.63-14.21-6.68-8.46-.06-16.91,0-25.37-.04-.92,0-1.1.27-1.11,1.13-.05,7.26-.2,14.52-.9,21.75-.68,7.06-1.75,14.04-4.11,20.77-3.2,9.09-8.73,16.11-17.78,20.03-4.49,1.95-9.21,3.03-14.03,3.73-8.77,1.27-17.61,1.35-26.45,1.47-11.31.16-22.63-.18-33.95.33-5.55.25-11.06.77-16.48,2.06-8.66,2.07-14.92,7.01-18.37,15.33-1.57,3.79-2.64,7.73-3.38,11.76-1.69,9.19-2.18,18.48-2.26,27.79-.11,12.64-.04,25.28-.04,37.92,0,.68.05,1.37.14,2.04.77,5.68,3.88,10.03,8.01,13.72,6.88,6.16,15.15,9.72,23.86,12.34,9.11,2.74,18.46,4.13,27.96,4.5,15.97.62,31.59-1.18,46.58-7.06,6.63-2.6,12.81-6.01,17.9-11.12,4.45-4.48,6.97-9.72,6.8-16.24-.2-7.72-.07-15.46-.02-23.19,0-1.09-.28-1.31-1.33-1.3-9.78.04-19.56.03-29.34.03-11.19,0-22.38-.02-33.57.03-1.23,0-1.5-.38-1.42-1.49.09-1.27.1-2.57,0-3.84-.09-1.08.25-1.31,1.31-1.31,16.31.04,32.63.03,48.94.03,15.93,0,31.86-.01,47.79,0,3.28,0,6.33-.79,9.16-2.4,5.44-3.09,9.24-7.77,12.33-13.06,6.13-10.48,9.1-21.97,10.65-33.89,1.19-9.09,1.34-18.21.55-27.35Zm-94.57,97.39c6.8.05,12.11,5.48,12.04,12.3-.07,6.63-5.49,11.93-12.18,11.9-6.7-.03-12.13-5.51-12.06-12.18.07-6.73,5.5-12.08,12.2-12.03Z"/>
    </g>
  </g>
</svg>