<?xml version="1.0" encoding="UTF-8"?>
<svg id="Capa_2" data-name="Capa 2" xmlns="http://www.w3.org/2000/svg" viewBox="0 0 283.51 283.68">
  <defs>
    <style>
      .cls-1 {
        fill: #bababa;
        stroke-width: 0px;
      }
    </style>
  </defs>
  <g id="Capa_1-2" data-name="Capa 1">
    <path class="cls-1" d="m141.12,0C62.58.31.05,64.28,0,141.83c0,77.71,63,141.81,141.69,141.85,79.64.03,141.91-65.28,141.82-142C283.41,65.16,221.35-.31,141.12,0Zm66.77,201.61c-.61,3.46-3.43,6.3-7.04,7-2.27.44-4.41,0-6.39-1.21-2.09-1.28-4.22-2.49-6.39-3.64-12.34-6.57-25.43-10.95-39.18-13.42-6.33-1.14-12.71-1.86-19.13-2.24-5.78-.34-11.56-.36-17.34-.14-7.35.27-14.66,1-21.95,2.05-6.87.99-13.66,2.34-20.44,3.8-4.82,1.04-9.38-1.89-10.52-6.71-1.09-4.63,1.82-9.33,6.58-10.48,4.13-1,8.31-1.81,12.49-2.58,6.23-1.14,12.5-2.05,18.79-2.71,3.91-.41,7.83-.73,11.76-.91,3.56-.17,7.12-.34,10.23-.28,8.37-.06,16.27.43,24.12,1.44,18.04,2.32,35.24,7.4,51.42,15.78,3.04,1.57,6.03,3.24,8.93,5.05,3.18,1.98,4.71,5.51,4.06,9.19Zm17.27-37.95c-1.64,4.86-6.22,7.92-11.36,7.56-1.73-.12-3.35-.66-4.84-1.56-16.35-9.95-34.13-16.09-52.82-19.8-6.31-1.25-12.68-2.04-19.05-2.82-8.11-.99-16.24-1.1-24.38-1.01-3.79.04-7.59.21-11.36.63-11.36,1.26-22.62,3.06-33.59,6.4-4.79,1.46-9.71-.25-12.38-4.22-4.2-6.25-1.45-14.73,5.88-16.99,5.83-1.8,11.76-3.22,17.75-4.4,6.35-1.25,12.76-2.15,19.21-2.74,6.54-.6,13.1-.96,19.47-.89,7.8-.06,15.38.36,22.93,1.16,18.24,1.92,36,5.95,53.13,12.57,6.17,2.38,12.21,5.07,18.03,8.21,3,1.62,5.95,3.36,8.84,5.19,4.33,2.75,6.13,7.98,4.53,12.72Zm9.55-36.35c-.77.15-1.56.15-2.34.22-2.63.03-5-.8-7.24-2.12-5.46-3.23-11.16-5.98-17.02-8.4-10.07-4.15-20.46-7.23-31.08-9.59-8.04-1.79-16.15-3.12-24.32-4.09-4.59-.54-9.2-.93-13.81-1.24-8.46-.58-16.92-.67-25.39-.48-6.57.15-13.12.62-19.65,1.31-9.62,1.02-19.13,2.65-28.49,5.08-2.14.56-4.22,1.36-6.43,1.69-6.9,1.04-13.59-3.7-14.85-10.55-1.25-6.81,2.59-13.22,9.23-15.25,7.08-2.16,14.29-3.78,21.58-5.07,6.83-1.21,13.71-2.09,20.61-2.71,5.25-.47,10.52-.76,15.79-.95,7.36-.28,14.71-.21,22.06.1,6.79.28,13.57.8,20.33,1.55,9.79,1.08,19.5,2.64,29.12,4.78,15.8,3.51,31.12,8.44,45.69,15.55,3.57,1.74,7.08,3.62,10.5,5.65,4.94,2.94,7.38,8.26,6.39,13.94-.91,5.26-5.2,9.51-10.67,10.55Z"/>
  </g>
</svg>