<?xml version="1.0" encoding="UTF-8"?>
<svg id="Capa_2" data-name="Capa 2" xmlns="http://www.w3.org/2000/svg" viewBox="0 0 438.21 261.35">
  <defs>
    <style>
      .cls-1 {
        fill: #b9b9b9;
        fill-rule: evenodd;
      }
    </style>
  </defs>
  <g id="Capa_1-2" data-name="Capa 1">
    <path class="cls-1" d="m219.11,0c-58.44,0-94.94,29.03-109.55,87.12,21.91-29.03,47.48-39.92,76.69-32.67,16.67,4.14,28.59,16.17,41.76,29.47,21.49,21.67,46.36,46.76,100.66,46.76,58.44,0,94.94-29.03,109.55-87.12-21.91,29.03-47.46,39.92-76.69,32.67-16.67-4.14-28.59-16.17-41.78-29.47C298.27,25.07,273.42,0,219.11,0h0Zm-109.55,130.67c-58.44,0-94.94,29.03-109.55,87.12,21.91-29.05,47.48-39.92,76.69-32.67,16.67,4.14,28.59,16.17,41.78,29.47,21.47,21.67,46.34,46.76,100.66,46.76,58.44,0,94.94-29.03,109.55-87.12-21.91,29.03-47.48,39.92-76.69,32.67-16.67-4.14-28.59-16.17-41.76-29.47-21.52-21.67-46.38-46.76-100.68-46.76Z"/>
  </g>
</svg>