<?xml version="1.0" encoding="UTF-8"?>
<svg id="Capa_2" data-name="Capa 2" xmlns="http://www.w3.org/2000/svg" viewBox="0 0 203.26 200.04">
  <defs>
    <style>
      .cls-1 {
        fill: #bababa;
        stroke-width: 0px;
      }
    </style>
  </defs>
  <g id="Capa_1-2" data-name="Capa 1">
    <path class="cls-1" d="m181.3,0H21.96C9.83,0,0,9.83,0,21.96v156.12c0,12.13,9.83,21.96,21.96,21.96h159.34c12.13,0,21.96-9.83,21.96-21.96V21.96c0-12.13-9.83-21.96-21.96-21.96Zm-56.85,114.81h-24.41v70.2h-18.64v-70.2h-24.29v-15.18h67.34v15.18Zm56.68,64.21c-5.64,4.98-13.79,7.47-24.47,7.47-4.8,0-9.73-.64-14.8-1.91s-9.6-3.06-13.6-5.36l7.68-14.53c4.29,2.58,8.04,4.34,11.25,5.27,3.22.93,6.59,1.4,10.12,1.4,4.56,0,7.99-.9,10.27-2.71,2.28-1.81,3.42-4.32,3.42-7.53,0-2.98-.91-5.29-2.74-6.94-1.83-1.65-5.14-3.05-9.94-4.2-9.45-2.22-16.31-5.33-20.6-9.32s-6.43-9.54-6.43-16.64,2.77-13.29,8.31-18.31c5.54-5.02,13.31-7.53,23.31-7.53,4.17,0,8.27.48,12.29,1.43,4.03.95,7.89,2.36,11.58,4.23l-7.09,14.65c-3.26-1.82-6.34-3.15-9.26-3.96-2.92-.81-5.65-1.22-8.19-1.22-3.93,0-7,.78-9.2,2.35-2.2,1.57-3.3,3.82-3.3,6.76,0,2.66,1,4.7,3.01,6.13,2,1.43,5.61,2.78,10.81,4.05,9.17,2.14,15.8,5.29,19.89,9.44,4.09,4.15,6.13,9.97,6.13,17.47,0,8.02-2.82,14.52-8.45,19.5Z"/>
  </g>
</svg>